STARTFONT 2.3
FONT -FontForge-STIX Two Math-Book-R-Normal--8-80-72-72-P-55-ISO10646-1
SIZE 8 72 72  2
FONTBOUNDINGBOX 33 34 -8 -13
COMMENT "Generated by fontforge, http://fontforge.sourceforge.net"
COMMENT "Copyright 2001-2021 The STIX Fonts Project Authors (https://github.com/stipub/stixfonts)"
STARTPROPERTIES 41
FOUNDRY "FontForge"
FAMILY_NAME "STIX Two Math"
WEIGHT_NAME "Book"
SLANT "R"
SETWIDTH_NAME "Normal"
ADD_STYLE_NAME ""
PIXEL_SIZE 8
POINT_SIZE 80
RESOLUTION_X 72
RESOLUTION_Y 72
SPACING "P"
AVERAGE_WIDTH 55
CHARSET_REGISTRY "ISO10646"
CHARSET_ENCODING "1"
FONTNAME_REGISTRY ""
CHARSET_COLLECTIONS "ASCII ISOLatin1Encoding ISO8859-2 ISO8859-5 ISO8859-7 ISO8859-9 ISO8859-4 ISO10646-1"
BITS_PER_PIXEL 2
FONT_NAME "STIXTwoMath-Regular"
FACE_NAME "STIX Two Math Regular"
COPYRIGHT "Copyright 2001-2021 The STIX Fonts Project Authors (https://github.com/stipub/stixfonts)"
FONT_VERSION "2.12 b168a"
FONT_ASCENT 6
FONT_DESCENT 2
UNDERLINE_POSITION -1
UNDERLINE_THICKNESS 1
X_HEIGHT 3
CAP_HEIGHT 4
RAW_ASCENT 762
RAW_DESCENT 238
NORM_SPACE 2
RELATIVE_WEIGHT 40
RELATIVE_SETWIDTH 50
SUPERSCRIPT_X 0
SUPERSCRIPT_Y 4
SUPERSCRIPT_SIZE 4
SUBSCRIPT_X 0
SUBSCRIPT_Y 2
SUBSCRIPT_SIZE 4
FIGURE_WIDTH 4
AVG_LOWERCASE_WIDTH 40
AVG_UPPERCASE_WIDTH 54
ENDPROPERTIES
CHARS 6611
STARTCHAR space
ENCODING 32
SWIDTH 235 0
DWIDTH 2 0
BBX 1 1 0 0
BITMAP
00
ENDCHAR
STARTCHAR exclam
ENCODING 33
SWIDTH 283 0
DWIDTH 2 0
BBX 2 5 0 0
BITMAP
50
50
10
10
50
ENDCHAR
STARTCHAR quotedbl
ENCODING 34
SWIDTH 334 0
DWIDTH 3 0
BBX 3 2 0 4
BITMAP
94
50
ENDCHAR
STARTCHAR numbersign
ENCODING 35
SWIDTH 702 0
DWIDTH 6 0
BBX 5 5 0 0
BITMAP
0540
2A40
1100
6640
1100
ENDCHAR
STARTCHAR dollar
ENCODING 36
SWIDTH 495 0
DWIDTH 4 0
BBX 4 6 0 0
BITMAP
10
69
90
28
56
59
ENDCHAR
STARTCHAR percent
ENCODING 37
SWIDTH 692 0
DWIDTH 6 0
BBX 5 5 0 0
BITMAP
5540
8500
5540
0600
1240
ENDCHAR
STARTCHAR ampersand
ENCODING 38
SWIDTH 736 0
DWIDTH 6 0
BBX 6 5 0 0
BITMAP
1500
2580
5840
8600
6690
ENDCHAR
STARTCHAR quotesingle
ENCODING 39
SWIDTH 187 0
DWIDTH 2 0
BBX 1 2 0 4
BITMAP
80
40
ENDCHAR
STARTCHAR parenleft
ENCODING 40
SWIDTH 357 0
DWIDTH 3 0
BBX 3 8 0 -2
BITMAP
14
10
50
80
80
50
10
04
ENDCHAR
STARTCHAR parenright
ENCODING 41
SWIDTH 357 0
DWIDTH 3 0
BBX 3 8 0 -2
BITMAP
40
20
14
14
14
14
10
40
ENDCHAR
STARTCHAR asterisk
ENCODING 42
SWIDTH 410 0
DWIDTH 3 0
BBX 3 3 0 3
BITMAP
10
64
64
ENDCHAR
STARTCHAR plus
ENCODING 43
SWIDTH 720 0
DWIDTH 6 0
BBX 5 5 0 0
BITMAP
0500
0500
6A80
0500
0400
ENDCHAR
STARTCHAR comma
ENCODING 44
SWIDTH 245 0
DWIDTH 2 0
BBX 2 2 0 -1
BITMAP
50
10
ENDCHAR
STARTCHAR hyphen
ENCODING 45
SWIDTH 315 0
DWIDTH 3 0
BBX 2 1 0 2
BITMAP
60
ENDCHAR
STARTCHAR period
ENCODING 46
SWIDTH 245 0
DWIDTH 2 0
BBX 2 1 0 0
BITMAP
50
ENDCHAR
STARTCHAR slash
ENCODING 47
SWIDTH 386 0
DWIDTH 3 0
BBX 3 7 0 -1
BITMAP
04
04
10
10
10
40
40
ENDCHAR
STARTCHAR zero
ENCODING 48
SWIDTH 495 0
DWIDTH 4 0
BBX 4 5 0 0
BITMAP
14
82
82
82
54
ENDCHAR
STARTCHAR one
ENCODING 49
SWIDTH 495 0
DWIDTH 4 0
BBX 2 5 1 0
BITMAP
90
50
50
50
A0
ENDCHAR
STARTCHAR two
ENCODING 50
SWIDTH 495 0
DWIDTH 4 0
BBX 4 5 0 0
BITMAP
68
05
04
10
69
ENDCHAR
STARTCHAR three
ENCODING 51
SWIDTH 495 0
DWIDTH 4 0
BBX 4 5 0 0
BITMAP
28
08
18
05
54
ENDCHAR
STARTCHAR four
ENCODING 52
SWIDTH 495 0
DWIDTH 4 0
BBX 4 5 0 0
BITMAP
08
18
48
AD
08
ENDCHAR
STARTCHAR five
ENCODING 53
SWIDTH 495 0
DWIDTH 4 0
BBX 4 5 0 0
BITMAP
29
28
05
01
54
ENDCHAR
STARTCHAR six
ENCODING 54
SWIDTH 495 0
DWIDTH 4 0
BBX 4 5 0 0
BITMAP
14
68
86
82
25
ENDCHAR
STARTCHAR seven
ENCODING 55
SWIDTH 495 0
DWIDTH 4 0
BBX 4 5 0 0
BITMAP
6A
05
08
04
20
ENDCHAR
STARTCHAR eight
ENCODING 56
SWIDTH 495 0
DWIDTH 4 0
BBX 4 5 0 0
BITMAP
54
55
28
85
55
ENDCHAR
STARTCHAR nine
ENCODING 57
SWIDTH 495 0
DWIDTH 4 0
BBX 4 5 0 0
BITMAP
54
85
6A
09
14
ENDCHAR
STARTCHAR colon
ENCODING 58
SWIDTH 245 0
DWIDTH 2 0
BBX 2 4 0 0
BITMAP
50
00
00
50
ENDCHAR
STARTCHAR semicolon
ENCODING 59
SWIDTH 245 0
DWIDTH 2 0
BBX 2 5 0 -1
BITMAP
50
00
00
50
10
ENDCHAR
STARTCHAR less
ENCODING 60
SWIDTH 720 0
DWIDTH 6 0
BBX 4 4 1 0
BITMAP
05
90
64
06
ENDCHAR
STARTCHAR equal
ENCODING 61
SWIDTH 720 0
DWIDTH 6 0
BBX 5 3 0 1
BITMAP
6A80
0000
6A80
ENDCHAR
STARTCHAR greater
ENCODING 62
SWIDTH 720 0
DWIDTH 6 0
BBX 5 4 0 0
BITMAP
2400
0240
0640
6400
ENDCHAR
STARTCHAR question
ENCODING 63
SWIDTH 411 0
DWIDTH 3 0
BBX 3 5 0 0
BITMAP
58
48
14
10
20
ENDCHAR
STARTCHAR at
ENCODING 64
SWIDTH 905 0
DWIDTH 7 0
BBX 7 8 0 -2
BITMAP
0550
1014
5548
4888
4888
59A4
2000
0550
ENDCHAR
STARTCHAR A
ENCODING 65
SWIDTH 718 0
DWIDTH 6 0
BBX 6 5 0 0
BITMAP
0900
0A00
1200
2680
90D0
ENDCHAR
STARTCHAR B
ENCODING 66
SWIDTH 618 0
DWIDTH 5 0
BBX 5 5 0 0
BITMAP
7600
2140
2600
2180
7540
ENDCHAR
STARTCHAR C
ENCODING 67
SWIDTH 670 0
DWIDTH 5 0
BBX 5 5 0 0
BITMAP
2580
5040
9000
5000
2940
ENDCHAR
STARTCHAR D
ENCODING 68
SWIDTH 730 0
DWIDTH 6 0
BBX 6 5 0 0
BITMAP
7540
2090
2050
2090
7540
ENDCHAR
STARTCHAR E
ENCODING 69
SWIDTH 626 0
DWIDTH 5 0
BBX 5 5 0 0
BITMAP
7540
2100
2600
2000
7580
ENDCHAR
STARTCHAR F
ENCODING 70
SWIDTH 588 0
DWIDTH 5 0
BBX 5 5 0 0
BITMAP
7540
2100
2600
2000
7000
ENDCHAR
STARTCHAR G
ENCODING 71
SWIDTH 720 0
DWIDTH 6 0
BBX 6 5 0 0
BITMAP
2580
5040
9090
5080
2580
ENDCHAR
STARTCHAR H
ENCODING 72
SWIDTH 777 0
DWIDTH 6 0
BBX 6 5 0 0
BITMAP
74A0
2050
2590
2050
34A0
ENDCHAR
STARTCHAR I
ENCODING 73
SWIDTH 357 0
DWIDTH 3 0
BBX 2 5 0 0
BITMAP
70
20
20
20
70
ENDCHAR
STARTCHAR J
ENCODING 74
SWIDTH 396 0
DWIDTH 3 0
BBX 3 5 0 0
BITMAP
28
14
14
14
A0
ENDCHAR
STARTCHAR K
ENCODING 75
SWIDTH 702 0
DWIDTH 6 0
BBX 5 5 0 0
BITMAP
7180
2500
2800
2600
7180
ENDCHAR
STARTCHAR L
ENCODING 76
SWIDTH 585 0
DWIDTH 5 0
BBX 5 5 0 0
BITMAP
7000
2000
2000
2000
7540
ENDCHAR
STARTCHAR M
ENCODING 77
SWIDTH 895 0
DWIDTH 7 0
BBX 7 5 0 0
BITMAP
7034
2860
1860
1620
6224
ENDCHAR
STARTCHAR N
ENCODING 78
SWIDTH 742 0
DWIDTH 6 0
BBX 6 5 0 0
BITMAP
7090
2840
1640
1280
6080
ENDCHAR
STARTCHAR O
ENCODING 79
SWIDTH 738 0
DWIDTH 6 0
BBX 6 5 0 0
BITMAP
1580
5090
9050
5090
1540
ENDCHAR
STARTCHAR P
ENCODING 80
SWIDTH 569 0
DWIDTH 5 0
BBX 5 5 0 0
BITMAP
7600
2240
2500
2000
7000
ENDCHAR
STARTCHAR Q
ENCODING 81
SWIDTH 737 0
DWIDTH 6 0
BBX 6 7 0 -2
BITMAP
2580
5090
9050
5090
2540
0300
0050
ENDCHAR
STARTCHAR R
ENCODING 82
SWIDTH 659 0
DWIDTH 5 0
BBX 5 5 0 0
BITMAP
7600
2240
2900
2200
7180
ENDCHAR
STARTCHAR S
ENCODING 83
SWIDTH 504 0
DWIDTH 4 0
BBX 4 5 0 0
BITMAP
59
51
28
46
95
ENDCHAR
STARTCHAR T
ENCODING 84
SWIDTH 603 0
DWIDTH 5 0
BBX 5 5 0 0
BITMAP
9980
0800
0800
0800
1C00
ENDCHAR
STARTCHAR U
ENCODING 85
SWIDTH 752 0
DWIDTH 6 0
BBX 6 5 0 0
BITMAP
6090
2040
2040
2040
1940
ENDCHAR
STARTCHAR V
ENCODING 86
SWIDTH 680 0
DWIDTH 5 0
BBX 5 5 0 0
BITMAP
A080
2040
2500
0900
0800
ENDCHAR
STARTCHAR W
ENCODING 87
SWIDTH 944 0
DWIDTH 8 0
BBX 8 5 0 0
BITMAP
A249
2144
2594
19A0
0810
ENDCHAR
STARTCHAR X
ENCODING 88
SWIDTH 664 0
DWIDTH 5 0
BBX 5 5 0 0
BITMAP
7180
1500
0D00
1600
5280
ENDCHAR
STARTCHAR Y
ENCODING 89
SWIDTH 647 0
DWIDTH 5 0
BBX 5 5 0 0
BITMAP
A180
2500
0900
0800
0D00
ENDCHAR
STARTCHAR Z
ENCODING 90
SWIDTH 594 0
DWIDTH 5 0
BBX 5 5 0 0
BITMAP
5740
0600
0800
2000
A640
ENDCHAR
STARTCHAR bracketleft
ENCODING 91
SWIDTH 349 0
DWIDTH 3 0
BBX 2 8 0 -2
BITMAP
50
50
50
50
50
50
50
50
ENDCHAR
STARTCHAR backslash
ENCODING 92
SWIDTH 385 0
DWIDTH 3 0
BBX 3 7 0 -1
BITMAP
40
50
10
10
10
04
04
ENDCHAR
STARTCHAR bracketright
ENCODING 93
SWIDTH 349 0
DWIDTH 3 0
BBX 1 8 1 -2
BITMAP
40
80
80
80
80
80
80
40
ENDCHAR
STARTCHAR asciicircum
ENCODING 94
SWIDTH 480 0
DWIDTH 4 0
BBX 4 3 0 3
BITMAP
14
14
41
ENDCHAR
STARTCHAR underscore
ENCODING 95
SWIDTH 512 0
DWIDTH 4 0
BBX 4 1 0 -1
BITMAP
55
ENDCHAR
STARTCHAR grave
ENCODING 96
SWIDTH 222 0
DWIDTH 2 0
BBX 2 2 0 4
BITMAP
40
50
ENDCHAR
STARTCHAR a
ENCODING 97
SWIDTH 480 0
DWIDTH 4 0
BBX 4 4 0 0
BITMAP
58
08
58
69
ENDCHAR
STARTCHAR b
ENCODING 98
SWIDTH 522 0
DWIDTH 4 0
BBX 4 6 0 0
BITMAP
90
50
69
52
52
65
ENDCHAR
STARTCHAR c
ENCODING 99
SWIDTH 446 0
DWIDTH 4 0
BBX 3 4 0 0
BITMAP
58
80
80
68
ENDCHAR
STARTCHAR d
ENCODING 100
SWIDTH 539 0
DWIDTH 4 0
BBX 4 6 0 0
BITMAP
06
02
1A
82
82
66
ENDCHAR
STARTCHAR e
ENCODING 101
SWIDTH 464 0
DWIDTH 4 0
BBX 4 4 0 0
BITMAP
58
95
80
68
ENDCHAR
STARTCHAR f
ENCODING 102
SWIDTH 307 0
DWIDTH 2 0
BBX 3 6 0 0
BITMAP
14
10
60
50
50
60
ENDCHAR
STARTCHAR g
ENCODING 103
SWIDTH 484 0
DWIDTH 4 0
BBX 4 6 0 -2
BITMAP
59
95
54
69
41
A5
ENDCHAR
STARTCHAR h
ENCODING 104
SWIDTH 577 0
DWIDTH 5 0
BBX 4 6 0 0
BITMAP
50
50
6A
52
52
62
ENDCHAR
STARTCHAR i
ENCODING 105
SWIDTH 285 0
DWIDTH 2 0
BBX 2 5 0 0
BITMAP
10
50
50
50
60
ENDCHAR
STARTCHAR j
ENCODING 106
SWIDTH 263 0
DWIDTH 2 0
BBX 3 7 -1 -2
BITMAP
14
14
14
14
14
14
90
ENDCHAR
STARTCHAR k
ENCODING 107
SWIDTH 542 0
DWIDTH 4 0
BBX 4 6 0 0
BITMAP
50
50
55
64
68
66
ENDCHAR
STARTCHAR l
ENCODING 108
SWIDTH 283 0
DWIDTH 2 0
BBX 2 6 0 0
BITMAP
50
50
50
50
50
60
ENDCHAR
STARTCHAR m
ENCODING 109
SWIDTH 852 0
DWIDTH 7 0
BBX 7 4 0 0
BITMAP
6660
5220
5220
6224
ENDCHAR
STARTCHAR n
ENCODING 110
SWIDTH 576 0
DWIDTH 5 0
BBX 4 4 0 0
BITMAP
66
52
52
62
ENDCHAR
STARTCHAR o
ENCODING 111
SWIDTH 514 0
DWIDTH 4 0
BBX 4 4 0 0
BITMAP
55
82
82
55
ENDCHAR
STARTCHAR p
ENCODING 112
SWIDTH 537 0
DWIDTH 4 0
BBX 4 6 0 -2
BITMAP
6A
52
52
65
50
60
ENDCHAR
STARTCHAR q
ENCODING 113
SWIDTH 521 0
DWIDTH 4 0
BBX 4 6 0 -2
BITMAP
15
82
82
66
02
06
ENDCHAR
STARTCHAR r
ENCODING 114
SWIDTH 380 0
DWIDTH 3 0
BBX 3 4 0 0
BITMAP
68
60
50
60
ENDCHAR
STARTCHAR s
ENCODING 115
SWIDTH 395 0
DWIDTH 3 0
BBX 3 4 0 0
BITMAP
54
60
18
58
ENDCHAR
STARTCHAR t
ENCODING 116
SWIDTH 315 0
DWIDTH 3 0
BBX 2 5 0 0
BITMAP
10
60
50
50
20
ENDCHAR
STARTCHAR u
ENCODING 117
SWIDTH 570 0
DWIDTH 5 0
BBX 4 4 0 0
BITMAP
56
52
52
26
ENDCHAR
STARTCHAR v
ENCODING 118
SWIDTH 481 0
DWIDTH 4 0
BBX 4 4 0 0
BITMAP
92
64
24
14
ENDCHAR
STARTCHAR w
ENCODING 119
SWIDTH 749 0
DWIDTH 6 0
BBX 6 4 0 0
BITMAP
9620
6610
2640
1540
ENDCHAR
STARTCHAR x
ENCODING 120
SWIDTH 479 0
DWIDTH 4 0
BBX 4 4 0 0
BITMAP
65
24
18
99
ENDCHAR
STARTCHAR y
ENCODING 121
SWIDTH 483 0
DWIDTH 4 0
BBX 4 6 0 -2
BITMAP
92
64
24
14
10
90
ENDCHAR
STARTCHAR z
ENCODING 122
SWIDTH 458 0
DWIDTH 4 0
BBX 4 4 0 0
BITMAP
59
18
20
A5
ENDCHAR
STARTCHAR braceleft
ENCODING 123
SWIDTH 327 0
DWIDTH 3 0
BBX 2 8 0 -2
BITMAP
10
50
10
10
40
10
50
20
ENDCHAR
STARTCHAR bar
ENCODING 124
SWIDTH 267 0
DWIDTH 2 0
BBX 1 8 1 -2
BITMAP
40
40
40
40
40
40
40
40
ENDCHAR
STARTCHAR braceright
ENCODING 125
SWIDTH 327 0
DWIDTH 3 0
BBX 3 8 0 -2
BITMAP
50
20
20
20
14
20
20
50
ENDCHAR
STARTCHAR asciitilde
ENCODING 126
SWIDTH 557 0
DWIDTH 4 0
BBX 4 1 0 1
BITMAP
69
ENDCHAR
STARTCHAR uni00A0
ENCODING 160
SWIDTH 235 0
DWIDTH 2 0
BBX 1 1 0 0
BITMAP
00
ENDCHAR
STARTCHAR exclamdown
ENCODING 161
SWIDTH 282 0
DWIDTH 2 0
BBX 2 6 0 -2
BITMAP
50
00
10
50
60
10
ENDCHAR
STARTCHAR cent
ENCODING 162
SWIDTH 495 0
DWIDTH 4 0
BBX 4 5 0 0
BITMAP
04
59
84
94
28
ENDCHAR
STARTCHAR sterling
ENCODING 163
SWIDTH 495 0
DWIDTH 4 0
BBX 4 5 0 0
BITMAP
15
20
64
20
69
ENDCHAR
STARTCHAR currency
ENCODING 164
SWIDTH 617 0
DWIDTH 5 0
BBX 5 5 0 0
BITMAP
4040
2600
5100
1100
5640
ENDCHAR
STARTCHAR yen
ENCODING 165
SWIDTH 495 0
DWIDTH 4 0
BBX 4 6 0 0
BITMAP
51
65
24
28
28
28
ENDCHAR
STARTCHAR brokenbar
ENCODING 166
SWIDTH 267 0
DWIDTH 2 0
BBX 1 6 1 0
BITMAP
40
40
00
00
40
40
ENDCHAR
STARTCHAR section
ENCODING 167
SWIDTH 491 0
DWIDTH 4 0
BBX 4 7 0 -2
BITMAP
14
20
18
55
24
08
54
ENDCHAR
STARTCHAR dieresis
ENCODING 168
SWIDTH 392 0
DWIDTH 3 0
BBX 3 1 0 5
BITMAP
88
ENDCHAR
STARTCHAR copyright
ENCODING 169
SWIDTH 781 0
DWIDTH 6 0
BBX 6 6 0 0
BITMAP
0540
1550
5410
5410
1550
0540
ENDCHAR
STARTCHAR ordfeminine
ENCODING 170
SWIDTH 410 0
DWIDTH 3 0
BBX 3 3 0 2
BITMAP
54
58
98
ENDCHAR
STARTCHAR guillemotleft
ENCODING 171
SWIDTH 517 0
DWIDTH 4 0
BBX 4 4 0 0
BITMAP
11
54
58
11
ENDCHAR
STARTCHAR logicalnot
ENCODING 172
SWIDTH 720 0
DWIDTH 6 0
BBX 5 3 0 1
BITMAP
6A80
0040
0040
ENDCHAR
STARTCHAR uni00AD
ENCODING 173
SWIDTH 315 0
DWIDTH 3 0
BBX 2 1 0 2
BITMAP
60
ENDCHAR
STARTCHAR registered
ENCODING 174
SWIDTH 413 0
DWIDTH 3 0
BBX 3 2 0 4
BITMAP
54
54
ENDCHAR
STARTCHAR macron
ENCODING 175
SWIDTH 350 0
DWIDTH 3 0
BBX 3 1 0 4
BITMAP
54
ENDCHAR
STARTCHAR degree
ENCODING 176
SWIDTH 409 0
DWIDTH 3 0
BBX 3 3 0 3
BITMAP
14
44
14
ENDCHAR
STARTCHAR plusminus
ENCODING 177
SWIDTH 720 0
DWIDTH 6 0
BBX 5 5 0 0
BITMAP
0400
6A80
0400
0400
6A80
ENDCHAR
STARTCHAR twosuperior
ENCODING 178
SWIDTH 373 0
DWIDTH 3 0
BBX 3 4 0 2
BITMAP
64
08
10
A8
ENDCHAR
STARTCHAR threesuperior
ENCODING 179
SWIDTH 374 0
DWIDTH 3 0
BBX 3 4 0 2
BITMAP
64
24
08
54
ENDCHAR
STARTCHAR acute
ENCODING 180
SWIDTH 222 0
DWIDTH 2 0
BBX 2 2 0 4
BITMAP
10
40
ENDCHAR
STARTCHAR uni00B5
ENCODING 181
SWIDTH 556 0
DWIDTH 4 0
BBX 4 6 0 -2
BITMAP
52
41
45
66
80
40
ENDCHAR
STARTCHAR paragraph
ENCODING 182
SWIDTH 605 0
DWIDTH 5 0
BBX 4 7 0 -2
BITMAP
5A
8A
5A
1A
0A
0A
16
ENDCHAR
STARTCHAR periodcentered
ENCODING 183
SWIDTH 282 0
DWIDTH 2 0
BBX 2 1 0 2
BITMAP
50
ENDCHAR
STARTCHAR cedilla
ENCODING 184
SWIDTH 247 0
DWIDTH 2 0
BBX 2 2 0 -2
BITMAP
50
50
ENDCHAR
STARTCHAR onesuperior
ENCODING 185
SWIDTH 343 0
DWIDTH 3 0
BBX 2 4 0 2
BITMAP
60
20
20
20
ENDCHAR
STARTCHAR ordmasculine
ENCODING 186
SWIDTH 432 0
DWIDTH 3 0
BBX 3 3 0 2
BITMAP
58
84
54
ENDCHAR
STARTCHAR guillemotright
ENCODING 187
SWIDTH 517 0
DWIDTH 4 0
BBX 4 3 0 0
BITMAP
15
25
44
ENDCHAR
STARTCHAR onequarter
ENCODING 188
SWIDTH 861 0
DWIDTH 7 0
BBX 7 6 0 0
BITMAP
5040
2040
2110
1560
04A4
1010
ENDCHAR
STARTCHAR onehalf
ENCODING 189
SWIDTH 889 0
DWIDTH 7 0
BBX 7 6 0 0
BITMAP
5040
2040
2154
1508
0414
1068
ENDCHAR
STARTCHAR threequarters
ENCODING 190
SWIDTH 861 0
DWIDTH 7 0
BBX 7 6 0 0
BITMAP
6440
2440
0920
5560
04A4
1010
ENDCHAR
STARTCHAR questiondown
ENCODING 191
SWIDTH 411 0
DWIDTH 3 0
BBX 3 6 0 -2
BITMAP
20
10
10
40
88
54
ENDCHAR
STARTCHAR Agrave
ENCODING 192
SWIDTH 718 0
DWIDTH 6 0
BBX 6 7 0 0
BITMAP
0500
0000
0900
0A00
1200
2680
90D0
ENDCHAR
STARTCHAR Aacute
ENCODING 193
SWIDTH 718 0
DWIDTH 6 0
BBX 6 7 0 0
BITMAP
0500
0000
0900
0A00
1200
2680
90D0
ENDCHAR
STARTCHAR Acircumflex
ENCODING 194
SWIDTH 718 0
DWIDTH 6 0
BBX 6 7 0 0
BITMAP
0500
0000
0900
0A00
1200
2680
90D0
ENDCHAR
STARTCHAR Atilde
ENCODING 195
SWIDTH 718 0
DWIDTH 6 0
BBX 6 7 0 0
BITMAP
0500
0000
0900
0A00
1200
2680
90D0
ENDCHAR
STARTCHAR Adieresis
ENCODING 196
SWIDTH 718 0
DWIDTH 6 0
BBX 6 7 0 0
BITMAP
1600
0000
0900
0A00
1200
2680
90D0
ENDCHAR
STARTCHAR Aring
ENCODING 197
SWIDTH 718 0
DWIDTH 6 0
BBX 6 7 0 0
BITMAP
0500
0500
0900
0A00
1200
2680
90D0
ENDCHAR
STARTCHAR AE
ENCODING 198
SWIDTH 894 0
DWIDTH 7 0
BBX 7 5 0 0
BITMAP
0758
0610
1660
1204
9358
ENDCHAR
STARTCHAR Ccedilla
ENCODING 199
SWIDTH 670 0
DWIDTH 5 0
BBX 5 7 0 -2
BITMAP
2580
5040
9000
5000
2940
0500
0500
ENDCHAR
STARTCHAR Egrave
ENCODING 200
SWIDTH 626 0
DWIDTH 5 0
BBX 5 7 0 0
BITMAP
0800
0000
7540
2100
2600
2000
7580
ENDCHAR
STARTCHAR Eacute
ENCODING 201
SWIDTH 626 0
DWIDTH 5 0
BBX 5 7 0 0
BITMAP
0800
0000
7540
2100
2600
2000
7580
ENDCHAR
STARTCHAR Ecircumflex
ENCODING 202
SWIDTH 626 0
DWIDTH 5 0
BBX 5 7 0 0
BITMAP
1900
0000
7540
2100
2600
2000
7580
ENDCHAR
STARTCHAR Edieresis
ENCODING 203
SWIDTH 626 0
DWIDTH 5 0
BBX 5 7 0 0
BITMAP
2200
0000
7540
2100
2600
2000
7580
ENDCHAR
STARTCHAR Igrave
ENCODING 204
SWIDTH 357 0
DWIDTH 3 0
BBX 2 7 0 0
BITMAP
20
00
70
20
20
20
70
ENDCHAR
STARTCHAR Iacute
ENCODING 205
SWIDTH 357 0
DWIDTH 3 0
BBX 2 7 0 0
BITMAP
20
00
70
20
20
20
70
ENDCHAR
STARTCHAR Icircumflex
ENCODING 206
SWIDTH 357 0
DWIDTH 3 0
BBX 3 7 0 0
BITMAP
64
00
70
20
20
20
70
ENDCHAR
STARTCHAR Idieresis
ENCODING 207
SWIDTH 357 0
DWIDTH 3 0
BBX 3 7 0 0
BITMAP
88
00
70
20
20
20
70
ENDCHAR
STARTCHAR Eth
ENCODING 208
SWIDTH 737 0
DWIDTH 6 0
BBX 6 5 0 0
BITMAP
7540
2090
7450
2090
7540
ENDCHAR
STARTCHAR Ntilde
ENCODING 209
SWIDTH 742 0
DWIDTH 6 0
BBX 6 7 0 0
BITMAP
0500
0000
7090
2840
1640
1280
6080
ENDCHAR
STARTCHAR Ograve
ENCODING 210
SWIDTH 738 0
DWIDTH 6 0
BBX 6 7 0 0
BITMAP
0500
0000
1580
5090
9050
5090
1540
ENDCHAR
STARTCHAR Oacute
ENCODING 211
SWIDTH 738 0
DWIDTH 6 0
BBX 6 7 0 0
BITMAP
0500
0000
1580
5090
9050
5090
1540
ENDCHAR
STARTCHAR Ocircumflex
ENCODING 212
SWIDTH 738 0
DWIDTH 6 0
BBX 6 7 0 0
BITMAP
0500
0000
1580
5090
9050
5090
1540
ENDCHAR
STARTCHAR Otilde
ENCODING 213
SWIDTH 738 0
DWIDTH 6 0
BBX 6 7 0 0
BITMAP
0500
0000
1580
5090
9050
5090
1540
ENDCHAR
STARTCHAR Odieresis
ENCODING 214
SWIDTH 738 0
DWIDTH 6 0
BBX 6 7 0 0
BITMAP
1500
0000
1580
5090
9050
5090
1540
ENDCHAR
STARTCHAR multiply
ENCODING 215
SWIDTH 720 0
DWIDTH 6 0
BBX 4 4 1 0
BITMAP
82
28
28
82
ENDCHAR
STARTCHAR Oslash
ENCODING 216
SWIDTH 737 0
DWIDTH 6 0
BBX 6 5 0 0
BITMAP
1580
5190
9450
6490
2540
ENDCHAR
STARTCHAR Ugrave
ENCODING 217
SWIDTH 752 0
DWIDTH 6 0
BBX 6 7 0 0
BITMAP
0500
0000
6090
2040
2040
2040
1940
ENDCHAR
STARTCHAR Uacute
ENCODING 218
SWIDTH 752 0
DWIDTH 6 0
BBX 6 7 0 0
BITMAP
0500
0000
6090
2040
2040
2040
1940
ENDCHAR
STARTCHAR Ucircumflex
ENCODING 219
SWIDTH 752 0
DWIDTH 6 0
BBX 6 7 0 0
BITMAP
0500
0000
6090
2040
2040
2040
1940
ENDCHAR
STARTCHAR Udieresis
ENCODING 220
SWIDTH 752 0
DWIDTH 6 0
BBX 6 7 0 0
BITMAP
0940
0000
6090
2040
2040
2040
1940
ENDCHAR
STARTCHAR Yacute
ENCODING 221
SWIDTH 647 0
DWIDTH 5 0
BBX 5 7 0 0
BITMAP
0500
0000
A180
2500
0900
0800
0D00
ENDCHAR
STARTCHAR Thorn
ENCODING 222
SWIDTH 572 0
DWIDTH 5 0
BBX 5 5 0 0
BITMAP
7900
2240
2240
2500
7400
ENDCHAR
STARTCHAR germandbls
ENCODING 223
SWIDTH 563 0
DWIDTH 5 0
BBX 5 6 0 0
BITMAP
1500
2200
5900
5200
5240
6900
ENDCHAR
STARTCHAR agrave
ENCODING 224
SWIDTH 480 0
DWIDTH 4 0
BBX 4 6 0 0
BITMAP
10
10
58
08
58
69
ENDCHAR
STARTCHAR aacute
ENCODING 225
SWIDTH 480 0
DWIDTH 4 0
BBX 4 6 0 0
BITMAP
04
10
58
08
58
69
ENDCHAR
STARTCHAR acircumflex
ENCODING 226
SWIDTH 480 0
DWIDTH 4 0
BBX 4 6 0 0
BITMAP
10
14
58
08
58
69
ENDCHAR
STARTCHAR atilde
ENCODING 227
SWIDTH 480 0
DWIDTH 4 0
BBX 4 5 0 0
BITMAP
14
58
08
58
69
ENDCHAR
STARTCHAR adieresis
ENCODING 228
SWIDTH 480 0
DWIDTH 4 0
BBX 4 6 0 0
BITMAP
58
00
58
08
58
69
ENDCHAR
STARTCHAR aring
ENCODING 229
SWIDTH 480 0
DWIDTH 4 0
BBX 4 6 0 0
BITMAP
14
14
58
08
58
69
ENDCHAR
STARTCHAR ae
ENCODING 230
SWIDTH 709 0
DWIDTH 6 0
BBX 6 4 0 0
BITMAP
5980
1950
5800
6680
ENDCHAR
STARTCHAR ccedilla
ENCODING 231
SWIDTH 446 0
DWIDTH 4 0
BBX 3 6 0 -2
BITMAP
58
80
80
68
14
14
ENDCHAR
STARTCHAR egrave
ENCODING 232
SWIDTH 464 0
DWIDTH 4 0
BBX 4 6 0 0
BITMAP
10
14
58
95
80
68
ENDCHAR
STARTCHAR eacute
ENCODING 233
SWIDTH 464 0
DWIDTH 4 0
BBX 4 6 0 0
BITMAP
04
14
58
95
80
68
ENDCHAR
STARTCHAR ecircumflex
ENCODING 234
SWIDTH 464 0
DWIDTH 4 0
BBX 4 6 0 0
BITMAP
14
14
58
95
80
68
ENDCHAR
STARTCHAR edieresis
ENCODING 235
SWIDTH 464 0
DWIDTH 4 0
BBX 4 6 0 0
BITMAP
54
00
58
95
80
68
ENDCHAR
STARTCHAR igrave
ENCODING 236
SWIDTH 285 0
DWIDTH 2 0
BBX 2 6 0 0
BITMAP
40
50
50
50
50
60
ENDCHAR
STARTCHAR iacute
ENCODING 237
SWIDTH 285 0
DWIDTH 2 0
BBX 2 6 0 0
BITMAP
10
50
50
50
50
60
ENDCHAR
STARTCHAR icircumflex
ENCODING 238
SWIDTH 285 0
DWIDTH 2 0
BBX 2 6 0 0
BITMAP
50
50
50
50
50
60
ENDCHAR
STARTCHAR idieresis
ENCODING 239
SWIDTH 285 0
DWIDTH 2 0
BBX 2 5 0 0
BITMAP
50
50
50
50
60
ENDCHAR
STARTCHAR eth
ENCODING 240
SWIDTH 532 0
DWIDTH 4 0
BBX 4 6 0 0
BITMAP
15
05
56
82
82
55
ENDCHAR
STARTCHAR ntilde
ENCODING 241
SWIDTH 576 0
DWIDTH 5 0
BBX 4 5 0 0
BITMAP
15
66
52
52
62
ENDCHAR
STARTCHAR ograve
ENCODING 242
SWIDTH 514 0
DWIDTH 4 0
BBX 4 6 0 0
BITMAP
10
14
55
82
82
55
ENDCHAR
STARTCHAR oacute
ENCODING 243
SWIDTH 514 0
DWIDTH 4 0
BBX 4 6 0 0
BITMAP
04
04
55
82
82
55
ENDCHAR
STARTCHAR ocircumflex
ENCODING 244
SWIDTH 514 0
DWIDTH 4 0
BBX 4 6 0 0
BITMAP
04
14
55
82
82
55
ENDCHAR
STARTCHAR otilde
ENCODING 245
SWIDTH 514 0
DWIDTH 4 0
BBX 4 5 0 0
BITMAP
14
55
82
82
55
ENDCHAR
STARTCHAR odieresis
ENCODING 246
SWIDTH 514 0
DWIDTH 4 0
BBX 4 6 0 0
BITMAP
25
00
55
82
82
55
ENDCHAR
STARTCHAR divide
ENCODING 247
SWIDTH 720 0
DWIDTH 6 0
BBX 5 4 0 0
BITMAP
0500
6A80
0000
0500
ENDCHAR
STARTCHAR oslash
ENCODING 248
SWIDTH 514 0
DWIDTH 4 0
BBX 4 4 0 0
BITMAP
55
86
92
65
ENDCHAR
STARTCHAR ugrave
ENCODING 249
SWIDTH 570 0
DWIDTH 5 0
BBX 4 6 0 0
BITMAP
10
04
56
52
52
26
ENDCHAR
STARTCHAR uacute
ENCODING 250
SWIDTH 570 0
DWIDTH 5 0
BBX 4 6 0 0
BITMAP
04
04
56
52
52
26
ENDCHAR
STARTCHAR ucircumflex
ENCODING 251
SWIDTH 570 0
DWIDTH 5 0
BBX 4 6 0 0
BITMAP
04
14
56
52
52
26
ENDCHAR
STARTCHAR udieresis
ENCODING 252
SWIDTH 570 0
DWIDTH 5 0
BBX 4 6 0 0
BITMAP
25
00
56
52
52
26
ENDCHAR
STARTCHAR yacute
ENCODING 253
SWIDTH 483 0
DWIDTH 4 0
BBX 4 8 0 -2
BITMAP
04
04
92
64
24
14
10
90
ENDCHAR
STARTCHAR thorn
ENCODING 254
SWIDTH 524 0
DWIDTH 4 0
BBX 4 8 0 -2
BITMAP
90
50
69
52
52
65
50
A0
ENDCHAR
STARTCHAR ydieresis
ENCODING 255
SWIDTH 483 0
DWIDTH 4 0
BBX 4 8 0 -2
BITMAP
25
00
92
64
24
14
10
90
ENDCHAR
STARTCHAR Amacron
ENCODING 256
SWIDTH 718 0
DWIDTH 6 0
BBX 6 7 0 0
BITMAP
0500
0000
0900
0A00
1200
2680
90D0
ENDCHAR
STARTCHAR amacron
ENCODING 257
SWIDTH 480 0
DWIDTH 4 0
BBX 4 5 0 0
BITMAP
14
58
08
58
69
ENDCHAR
STARTCHAR Abreve
ENCODING 258
SWIDTH 718 0
DWIDTH 6 0
BBX 6 8 0 0
BITMAP
1100
0900
0000
0900
0A00
1200
2680
90D0
ENDCHAR
STARTCHAR abreve
ENCODING 259
SWIDTH 480 0
DWIDTH 4 0
BBX 4 6 0 0
BITMAP
44
24
58
08
58
69
ENDCHAR
STARTCHAR Aogonek
ENCODING 260
SWIDTH 719 0
DWIDTH 6 0
BBX 6 7 0 -2
BITMAP
0900
0A00
1200
2680
90D0
0100
0200
ENDCHAR
STARTCHAR aogonek
ENCODING 261
SWIDTH 480 0
DWIDTH 4 0
BBX 4 6 0 -2
BITMAP
58
08
58
59
04
09
ENDCHAR
STARTCHAR Cacute
ENCODING 262
SWIDTH 670 0
DWIDTH 5 0
BBX 5 7 0 0
BITMAP
0500
0000
2580
5040
9000
5000
2940
ENDCHAR
STARTCHAR cacute
ENCODING 263
SWIDTH 446 0
DWIDTH 4 0
BBX 3 6 0 0
BITMAP
04
14
58
80
80
68
ENDCHAR
STARTCHAR Ccircumflex
ENCODING 264
SWIDTH 670 0
DWIDTH 5 0
BBX 5 7 0 0
BITMAP
0500
0000
2580
5040
9000
5000
2940
ENDCHAR
STARTCHAR ccircumflex
ENCODING 265
SWIDTH 446 0
DWIDTH 4 0
BBX 3 6 0 0
BITMAP
10
14
58
80
80
68
ENDCHAR
STARTCHAR Cdotaccent
ENCODING 266
SWIDTH 670 0
DWIDTH 5 0
BBX 5 7 0 0
BITMAP
0500
0000
2580
5040
9000
5000
2940
ENDCHAR
STARTCHAR cdotaccent
ENCODING 267
SWIDTH 446 0
DWIDTH 4 0
BBX 3 6 0 0
BITMAP
14
00
58
80
80
68
ENDCHAR
STARTCHAR Ccaron
ENCODING 268
SWIDTH 670 0
DWIDTH 5 0
BBX 5 7 0 0
BITMAP
0500
0000
2580
5040
9000
5000
2940
ENDCHAR
STARTCHAR ccaron
ENCODING 269
SWIDTH 446 0
DWIDTH 4 0
BBX 3 6 0 0
BITMAP
04
24
58
80
80
68
ENDCHAR
STARTCHAR Dcaron
ENCODING 270
SWIDTH 730 0
DWIDTH 6 0
BBX 6 7 0 0
BITMAP
0900
0000
7540
2090
2050
2090
7540
ENDCHAR
STARTCHAR dcaron
ENCODING 271
SWIDTH 626 0
DWIDTH 5 0
BBX 5 6 0 0
BITMAP
0680
0240
1A00
8200
8200
6600
ENDCHAR
STARTCHAR Dcroat
ENCODING 272
SWIDTH 733 0
DWIDTH 6 0
BBX 6 5 0 0
BITMAP
7540
2090
7450
2090
7540
ENDCHAR
STARTCHAR dcroat
ENCODING 273
SWIDTH 540 0
DWIDTH 4 0
BBX 4 6 0 0
BITMAP
06
06
16
82
82
66
ENDCHAR
STARTCHAR Emacron
ENCODING 274
SWIDTH 626 0
DWIDTH 5 0
BBX 5 7 0 0
BITMAP
1500
0000
7540
2100
2600
2000
7580
ENDCHAR
STARTCHAR emacron
ENCODING 275
SWIDTH 464 0
DWIDTH 4 0
BBX 4 5 0 0
BITMAP
14
58
95
80
68
ENDCHAR
STARTCHAR Ebreve
ENCODING 276
SWIDTH 626 0
DWIDTH 5 0
BBX 5 8 0 0
BITMAP
1100
1900
0000
7540
2100
2600
2000
7580
ENDCHAR
STARTCHAR ebreve
ENCODING 277
SWIDTH 464 0
DWIDTH 4 0
BBX 4 6 0 0
BITMAP
04
24
58
95
80
68
ENDCHAR
STARTCHAR Edotaccent
ENCODING 278
SWIDTH 626 0
DWIDTH 5 0
BBX 5 7 0 0
BITMAP
0800
0000
7540
2100
2600
2000
7580
ENDCHAR
STARTCHAR edotaccent
ENCODING 279
SWIDTH 464 0
DWIDTH 4 0
BBX 4 6 0 0
BITMAP
14
00
58
95
80
68
ENDCHAR
STARTCHAR Eogonek
ENCODING 280
SWIDTH 625 0
DWIDTH 5 0
BBX 5 7 0 -2
BITMAP
7540
2100
2600
2000
7580
0100
0240
ENDCHAR
STARTCHAR eogonek
ENCODING 281
SWIDTH 464 0
DWIDTH 4 0
BBX 4 6 0 -2
BITMAP
58
95
80
68
10
14
ENDCHAR
STARTCHAR Ecaron
ENCODING 282
SWIDTH 626 0
DWIDTH 5 0
BBX 5 7 0 0
BITMAP
1900
0000
7540
2100
2600
2000
7580
ENDCHAR
STARTCHAR ecaron
ENCODING 283
SWIDTH 464 0
DWIDTH 4 0
BBX 4 6 0 0
BITMAP
04
14
58
95
80
68
ENDCHAR
STARTCHAR Gcircumflex
ENCODING 284
SWIDTH 720 0
DWIDTH 6 0
BBX 6 7 0 0
BITMAP
0500
0000
2580
5040
9090
5080
2580
ENDCHAR
STARTCHAR gcircumflex
ENCODING 285
SWIDTH 484 0
DWIDTH 4 0
BBX 4 8 0 -2
BITMAP
14
14
59
95
54
69
41
A5
ENDCHAR
STARTCHAR Gbreve
ENCODING 286
SWIDTH 720 0
DWIDTH 6 0
BBX 6 7 0 0
BITMAP
0500
0000
2580
5040
9090
5080
2580
ENDCHAR
STARTCHAR gbreve
ENCODING 287
SWIDTH 484 0
DWIDTH 4 0
BBX 4 8 0 -2
BITMAP
04
24
59
95
54
69
41
A5
ENDCHAR
STARTCHAR Gdotaccent
ENCODING 288
SWIDTH 720 0
DWIDTH 6 0
BBX 6 7 0 0
BITMAP
0500
0000
2580
5040
9090
5080
2580
ENDCHAR
STARTCHAR gdotaccent
ENCODING 289
SWIDTH 484 0
DWIDTH 4 0
BBX 4 8 0 -2
BITMAP
14
00
59
95
54
69
41
A5
ENDCHAR
STARTCHAR Gcommaaccent
ENCODING 290
SWIDTH 720 0
DWIDTH 6 0
BBX 6 7 0 -2
BITMAP
2580
5040
9090
5080
2580
0500
0400
ENDCHAR
STARTCHAR gcommaaccent
ENCODING 291
SWIDTH 484 0
DWIDTH 4 0
BBX 4 8 0 -2
BITMAP
10
14
59
95
54
69
41
A5
ENDCHAR
STARTCHAR Hcircumflex
ENCODING 292
SWIDTH 777 0
DWIDTH 6 0
BBX 6 7 0 0
BITMAP
0500
0000
7090
2080
2580
2080
7090
ENDCHAR
STARTCHAR hcircumflex
ENCODING 293
SWIDTH 577 0
DWIDTH 5 0
BBX 4 7 0 0
BITMAP
14
50
50
6A
52
52
62
ENDCHAR
STARTCHAR Hbar
ENCODING 294
SWIDTH 788 0
DWIDTH 6 0
BBX 6 5 0 0
BITMAP
7490
6590
2590
2090
7090
ENDCHAR
STARTCHAR hbar
ENCODING 295
SWIDTH 579 0
DWIDTH 5 0
BBX 4 6 0 0
BITMAP
50
64
6A
52
52
62
ENDCHAR
STARTCHAR Itilde
ENCODING 296
SWIDTH 357 0
DWIDTH 3 0
BBX 3 7 0 0
BITMAP
54
00
70
20
20
20
70
ENDCHAR
STARTCHAR itilde
ENCODING 297
SWIDTH 285 0
DWIDTH 2 0
BBX 2 5 0 0
BITMAP
A0
50
50
50
60
ENDCHAR
STARTCHAR Imacron
ENCODING 298
SWIDTH 357 0
DWIDTH 3 0
BBX 3 7 0 0
BITMAP
54
00
70
20
20
20
70
ENDCHAR
STARTCHAR imacron
ENCODING 299
SWIDTH 285 0
DWIDTH 2 0
BBX 2 5 0 0
BITMAP
50
50
50
50
60
ENDCHAR
STARTCHAR Ibreve
ENCODING 300
SWIDTH 357 0
DWIDTH 3 0
BBX 3 8 0 0
BITMAP
44
60
00
70
20
20
20
70
ENDCHAR
STARTCHAR ibreve
ENCODING 301
SWIDTH 285 0
DWIDTH 2 0
BBX 2 6 0 0
BITMAP
50
50
50
50
50
60
ENDCHAR
STARTCHAR Iogonek
ENCODING 302
SWIDTH 357 0
DWIDTH 3 0
BBX 2 7 0 -2
BITMAP
70
20
20
20
70
10
60
ENDCHAR
STARTCHAR iogonek
ENCODING 303
SWIDTH 285 0
DWIDTH 2 0
BBX 2 8 0 -2
BITMAP
10
00
50
50
50
60
40
50
ENDCHAR
STARTCHAR Idotaccent
ENCODING 304
SWIDTH 357 0
DWIDTH 3 0
BBX 2 7 0 0
BITMAP
20
00
70
20
20
20
70
ENDCHAR
STARTCHAR dotlessi
ENCODING 305
SWIDTH 285 0
DWIDTH 2 0
BBX 2 4 0 0
BITMAP
50
50
50
60
ENDCHAR
STARTCHAR IJ
ENCODING 306
SWIDTH 753 0
DWIDTH 6 0
BBX 6 5 0 0
BITMAP
7090
2080
2080
2080
7680
ENDCHAR
STARTCHAR ij
ENCODING 307
SWIDTH 548 0
DWIDTH 4 0
BBX 4 7 0 -2
BITMAP
12
52
52
52
62
02
15
ENDCHAR
STARTCHAR Jcircumflex
ENCODING 308
SWIDTH 396 0
DWIDTH 3 0
BBX 3 7 0 0
BITMAP
14
00
28
14
14
14
A0
ENDCHAR
STARTCHAR jcircumflex
ENCODING 309
SWIDTH 263 0
DWIDTH 2 0
BBX 3 8 -1 -2
BITMAP
14
14
14
14
14
14
14
90
ENDCHAR
STARTCHAR Kcommaaccent
ENCODING 310
SWIDTH 702 0
DWIDTH 6 0
BBX 5 7 0 -2
BITMAP
7180
2500
2800
2600
7180
0900
0400
ENDCHAR
STARTCHAR kcommaaccent
ENCODING 311
SWIDTH 542 0
DWIDTH 4 0
BBX 4 8 0 -2
BITMAP
50
50
55
64
68
66
18
04
ENDCHAR
STARTCHAR kgreenlandic
ENCODING 312
SWIDTH 542 0
DWIDTH 4 0
BBX 4 4 0 0
BITMAP
55
64
68
66
ENDCHAR
STARTCHAR Lacute
ENCODING 313
SWIDTH 585 0
DWIDTH 5 0
BBX 5 7 0 0
BITMAP
1400
0000
7000
2000
2000
2000
7540
ENDCHAR
STARTCHAR lacute
ENCODING 314
SWIDTH 283 0
DWIDTH 2 0
BBX 2 7 0 0
BITMAP
20
50
50
50
50
50
60
ENDCHAR
STARTCHAR Lcommaaccent
ENCODING 315
SWIDTH 585 0
DWIDTH 5 0
BBX 5 7 0 -2
BITMAP
7000
2000
2000
2000
7540
0800
0400
ENDCHAR
STARTCHAR lcommaaccent
ENCODING 316
SWIDTH 283 0
DWIDTH 2 0
BBX 2 8 0 -2
BITMAP
50
50
50
50
50
60
60
10
ENDCHAR
STARTCHAR Lcaron
ENCODING 317
SWIDTH 585 0
DWIDTH 5 0
BBX 5 5 0 0
BITMAP
7200
2100
2000
2000
7540
ENDCHAR
STARTCHAR lcaron
ENCODING 318
SWIDTH 366 0
DWIDTH 3 0
BBX 3 6 0 0
BITMAP
58
54
50
50
50
60
ENDCHAR
STARTCHAR Ldot
ENCODING 319
SWIDTH 605 0
DWIDTH 5 0
BBX 5 5 0 0
BITMAP
7000
2140
2000
2000
7540
ENDCHAR
STARTCHAR ldot
ENCODING 320
SWIDTH 357 0
DWIDTH 3 0
BBX 3 6 0 0
BITMAP
50
50
58
50
50
60
ENDCHAR
STARTCHAR Lslash
ENCODING 321
SWIDTH 590 0
DWIDTH 5 0
BBX 5 5 0 0
BITMAP
7400
2400
2000
2000
7540
ENDCHAR
STARTCHAR lslash
ENCODING 322
SWIDTH 290 0
DWIDTH 2 0
BBX 2 6 0 0
BITMAP
50
20
20
60
20
60
ENDCHAR
STARTCHAR Nacute
ENCODING 323
SWIDTH 742 0
DWIDTH 6 0
BBX 6 7 0 0
BITMAP
0500
0000
7090
2840
1640
1280
6080
ENDCHAR
STARTCHAR nacute
ENCODING 324
SWIDTH 576 0
DWIDTH 5 0
BBX 4 6 0 0
BITMAP
04
08
66
52
52
62
ENDCHAR
STARTCHAR Ncommaaccent
ENCODING 325
SWIDTH 742 0
DWIDTH 6 0
BBX 6 7 0 -2
BITMAP
7090
2840
1640
1280
6080
0500
0400
ENDCHAR
STARTCHAR ncommaaccent
ENCODING 326
SWIDTH 576 0
DWIDTH 5 0
BBX 4 6 0 -2
BITMAP
66
52
52
62
08
04
ENDCHAR
STARTCHAR Ncaron
ENCODING 327
SWIDTH 742 0
DWIDTH 6 0
BBX 6 7 0 0
BITMAP
0500
0000
7090
2840
1640
1280
6080
ENDCHAR
STARTCHAR ncaron
ENCODING 328
SWIDTH 576 0
DWIDTH 5 0
BBX 4 6 0 0
BITMAP
10
08
66
52
52
62
ENDCHAR
STARTCHAR napostrophe
ENCODING 329
SWIDTH 576 0
DWIDTH 5 0
BBX 5 6 -1 0
BITMAP
8000
4000
1980
1480
1480
1880
ENDCHAR
STARTCHAR Eng
ENCODING 330
SWIDTH 742 0
DWIDTH 6 0
BBX 6 7 0 -2
BITMAP
7090
2840
1640
1280
6080
0040
0240
ENDCHAR
STARTCHAR eng
ENCODING 331
SWIDTH 559 0
DWIDTH 4 0
BBX 4 6 0 -2
BITMAP
66
52
52
62
02
19
ENDCHAR
STARTCHAR Omacron
ENCODING 332
SWIDTH 738 0
DWIDTH 6 0
BBX 6 7 0 0
BITMAP
0500
0000
1580
5090
9050
5090
1540
ENDCHAR
STARTCHAR omacron
ENCODING 333
SWIDTH 514 0
DWIDTH 4 0
BBX 4 5 0 0
BITMAP
14
55
82
82
55
ENDCHAR
STARTCHAR Obreve
ENCODING 334
SWIDTH 738 0
DWIDTH 6 0
BBX 6 8 0 0
BITMAP
0100
0900
0000
1580
5090
9050
5090
1540
ENDCHAR
STARTCHAR obreve
ENCODING 335
SWIDTH 514 0
DWIDTH 4 0
BBX 4 6 0 0
BITMAP
10
14
55
82
82
55
ENDCHAR
STARTCHAR Ohungarumlaut
ENCODING 336
SWIDTH 738 0
DWIDTH 6 0
BBX 6 7 0 0
BITMAP
0640
0000
1580
5090
9050
5090
1540
ENDCHAR
STARTCHAR ohungarumlaut
ENCODING 337
SWIDTH 514 0
DWIDTH 4 0
BBX 4 6 0 0
BITMAP
19
00
55
82
82
55
ENDCHAR
STARTCHAR OE
ENCODING 338
SWIDTH 945 0
DWIDTH 8 0
BBX 8 5 0 0
BITMAP
1698
5144
9194
5140
1699
ENDCHAR
STARTCHAR oe
ENCODING 339
SWIDTH 807 0
DWIDTH 6 0
BBX 6 4 0 0
BITMAP
5560
8260
8300
5690
ENDCHAR
STARTCHAR Racute
ENCODING 340
SWIDTH 659 0
DWIDTH 5 0
BBX 5 7 0 0
BITMAP
0800
0000
7600
2240
2900
2200
7180
ENDCHAR
STARTCHAR racute
ENCODING 341
SWIDTH 380 0
DWIDTH 3 0
BBX 3 6 0 0
BITMAP
14
10
68
60
50
60
ENDCHAR
STARTCHAR Rcommaaccent
ENCODING 342
SWIDTH 659 0
DWIDTH 5 0
BBX 5 7 0 -2
BITMAP
7600
2240
2900
2200
7180
0800
0400
ENDCHAR
STARTCHAR rcommaaccent
ENCODING 343
SWIDTH 380 0
DWIDTH 3 0
BBX 3 6 0 -2
BITMAP
68
60
50
60
20
10
ENDCHAR
STARTCHAR Rcaron
ENCODING 344
SWIDTH 659 0
DWIDTH 5 0
BBX 5 7 0 0
BITMAP
1900
0000
7600
2240
2900
2200
7180
ENDCHAR
STARTCHAR rcaron
ENCODING 345
SWIDTH 380 0
DWIDTH 3 0
BBX 3 6 0 0
BITMAP
44
20
68
60
50
60
ENDCHAR
STARTCHAR Sacute
ENCODING 346
SWIDTH 504 0
DWIDTH 4 0
BBX 4 7 0 0
BITMAP
14
00
59
51
28
46
95
ENDCHAR
STARTCHAR sacute
ENCODING 347
SWIDTH 394 0
DWIDTH 3 0
BBX 3 6 0 0
BITMAP
14
10
54
60
18
58
ENDCHAR
STARTCHAR Scircumflex
ENCODING 348
SWIDTH 504 0
DWIDTH 4 0
BBX 4 7 0 0
BITMAP
14
00
59
51
28
46
95
ENDCHAR
STARTCHAR scircumflex
ENCODING 349
SWIDTH 394 0
DWIDTH 3 0
BBX 3 6 0 0
BITMAP
10
54
54
60
18
58
ENDCHAR
STARTCHAR uni015E
ENCODING 350
SWIDTH 504 0
DWIDTH 4 0
BBX 4 7 0 -2
BITMAP
59
51
28
46
95
14
14
ENDCHAR
STARTCHAR uni015F
ENCODING 351
SWIDTH 394 0
DWIDTH 3 0
BBX 3 6 0 -2
BITMAP
54
60
18
58
10
10
ENDCHAR
STARTCHAR Scaron
ENCODING 352
SWIDTH 504 0
DWIDTH 4 0
BBX 4 7 0 0
BITMAP
14
00
59
51
28
46
95
ENDCHAR
STARTCHAR scaron
ENCODING 353
SWIDTH 394 0
DWIDTH 3 0
BBX 3 6 0 0
BITMAP
04
20
54
60
18
58
ENDCHAR
STARTCHAR uni0162
ENCODING 354
SWIDTH 603 0
DWIDTH 5 0
BBX 5 7 0 -2
BITMAP
9980
0800
0800
0800
1C00
0400
0400
ENDCHAR
STARTCHAR uni0163
ENCODING 355
SWIDTH 315 0
DWIDTH 3 0
BBX 2 7 0 -2
BITMAP
10
60
50
50
20
10
10
ENDCHAR
STARTCHAR Tcaron
ENCODING 356
SWIDTH 603 0
DWIDTH 5 0
BBX 5 7 0 0
BITMAP
1900
0000
9980
0800
0800
0800
1C00
ENDCHAR
STARTCHAR tcaron
ENCODING 357
SWIDTH 353 0
DWIDTH 3 0
BBX 3 6 0 0
BITMAP
08
14
60
50
50
20
ENDCHAR
STARTCHAR Tbar
ENCODING 358
SWIDTH 603 0
DWIDTH 5 0
BBX 5 5 0 0
BITMAP
9980
0800
1900
0800
1C00
ENDCHAR
STARTCHAR tbar
ENCODING 359
SWIDTH 328 0
DWIDTH 3 0
BBX 2 5 0 0
BITMAP
10
60
60
50
20
ENDCHAR
STARTCHAR Utilde
ENCODING 360
SWIDTH 752 0
DWIDTH 6 0
BBX 6 7 0 0
BITMAP
0500
0000
6090
2040
2040
2040
1940
ENDCHAR
STARTCHAR utilde
ENCODING 361
SWIDTH 570 0
DWIDTH 5 0
BBX 4 5 0 0
BITMAP
14
56
52
52
26
ENDCHAR
STARTCHAR Umacron
ENCODING 362
SWIDTH 752 0
DWIDTH 6 0
BBX 6 7 0 0
BITMAP
0500
0000
6090
2040
2040
2040
1940
ENDCHAR
STARTCHAR umacron
ENCODING 363
SWIDTH 570 0
DWIDTH 5 0
BBX 4 5 0 0
BITMAP
14
56
52
52
26
ENDCHAR
STARTCHAR Ubreve
ENCODING 364
SWIDTH 752 0
DWIDTH 6 0
BBX 6 8 0 0
BITMAP
0440
0600
0000
6090
2040
2040
2040
1940
ENDCHAR
STARTCHAR ubreve
ENCODING 365
SWIDTH 570 0
DWIDTH 5 0
BBX 4 6 0 0
BITMAP
11
18
56
52
52
26
ENDCHAR
STARTCHAR Uring
ENCODING 366
SWIDTH 752 0
DWIDTH 6 0
BBX 6 7 0 0
BITMAP
0500
0500
6090
2040
2040
2040
1940
ENDCHAR
STARTCHAR uring
ENCODING 367
SWIDTH 570 0
DWIDTH 5 0
BBX 4 6 0 0
BITMAP
14
14
56
52
52
26
ENDCHAR
STARTCHAR Uhungarumlaut
ENCODING 368
SWIDTH 752 0
DWIDTH 6 0
BBX 6 7 0 0
BITMAP
0540
0000
6090
2040
2040
2040
1940
ENDCHAR
STARTCHAR uhungarumlaut
ENCODING 369
SWIDTH 570 0
DWIDTH 5 0
BBX 4 6 0 0
BITMAP
19
00
56
52
52
26
ENDCHAR
STARTCHAR Uogonek
ENCODING 370
SWIDTH 753 0
DWIDTH 6 0
BBX 6 7 0 -2
BITMAP
6090
2040
2040
2040
1980
0100
0600
ENDCHAR
STARTCHAR uogonek
ENCODING 371
SWIDTH 570 0
DWIDTH 5 0
BBX 4 6 0 -2
BITMAP
56
52
52
26
04
05
ENDCHAR
STARTCHAR Wcircumflex
ENCODING 372
SWIDTH 944 0
DWIDTH 8 0
BBX 8 7 0 0
BITMAP
0240
0000
A249
2144
2594
19A0
0810
ENDCHAR
STARTCHAR wcircumflex
ENCODING 373
SWIDTH 749 0
DWIDTH 6 0
BBX 6 6 0 0
BITMAP
0500
0500
9620
6610
2640
1540
ENDCHAR
STARTCHAR Ycircumflex
ENCODING 374
SWIDTH 647 0
DWIDTH 5 0
BBX 5 7 0 0
BITMAP
0900
0000
A180
2500
0900
0800
0D00
ENDCHAR
STARTCHAR ycircumflex
ENCODING 375
SWIDTH 483 0
DWIDTH 4 0
BBX 4 8 0 -2
BITMAP
04
14
92
64
24
14
10
90
ENDCHAR
STARTCHAR Ydieresis
ENCODING 376
SWIDTH 647 0
DWIDTH 5 0
BBX 5 7 0 0
BITMAP
1200
0000
A180
2500
0900
0800
0D00
ENDCHAR
STARTCHAR Zacute
ENCODING 377
SWIDTH 594 0
DWIDTH 5 0
BBX 5 7 0 0
BITMAP
0800
0000
5740
0600
0800
2000
A640
ENDCHAR
STARTCHAR zacute
ENCODING 378
SWIDTH 458 0
DWIDTH 4 0
BBX 4 6 0 0
BITMAP
04
14
59
18
20
A5
ENDCHAR
STARTCHAR Zdotaccent
ENCODING 379
SWIDTH 594 0
DWIDTH 5 0
BBX 5 7 0 0
BITMAP
0800
0000
5740
0600
0800
2000
A640
ENDCHAR
STARTCHAR zdotaccent
ENCODING 380
SWIDTH 458 0
DWIDTH 4 0
BBX 4 6 0 0
BITMAP
14
00
59
18
20
A5
ENDCHAR
STARTCHAR Zcaron
ENCODING 381
SWIDTH 594 0
DWIDTH 5 0
BBX 5 7 0 0
BITMAP
1900
0000
5740
0600
0800
2000
A640
ENDCHAR
STARTCHAR zcaron
ENCODING 382
SWIDTH 458 0
DWIDTH 4 0
BBX 4 6 0 0
BITMAP
04
24
59
18
20
A5
ENDCHAR
STARTCHAR longs
ENCODING 383
SWIDTH 285 0
DWIDTH 2 0
BBX 3 6 0 0
BITMAP
14
10
50
50
50
60
ENDCHAR
STARTCHAR uni0180
ENCODING 384
SWIDTH 522 0
DWIDTH 4 0
BBX 4 6 0 0
BITMAP
90
A4
69
52
52
65
ENDCHAR
STARTCHAR uni0188
ENCODING 392
SWIDTH 446 0
DWIDTH 4 0
BBX 4 5 0 0
BITMAP
05
58
80
80
68
ENDCHAR
STARTCHAR uni0190
ENCODING 400
SWIDTH 518 0
DWIDTH 4 0
BBX 4 5 0 0
BITMAP
66
50
24
90
69
ENDCHAR
STARTCHAR uni0192
ENCODING 402
SWIDTH 301 0
DWIDTH 2 0
BBX 4 8 -1 -2
BITMAP
05
04
18
14
14
14
14
50
ENDCHAR
STARTCHAR uni0195
ENCODING 405
SWIDTH 798 0
DWIDTH 6 0
BBX 6 6 0 0
BITMAP
5000
5000
6920
5210
5210
6250
ENDCHAR
STARTCHAR uni0199
ENCODING 409
SWIDTH 538 0
DWIDTH 4 0
BBX 4 6 0 0
BITMAP
14
10
59
64
68
66
ENDCHAR
STARTCHAR uni019A
ENCODING 410
SWIDTH 287 0
DWIDTH 2 0
BBX 2 6 0 0
BITMAP
50
50
60
50
50
60
ENDCHAR
STARTCHAR uni019B
ENCODING 411
SWIDTH 495 0
DWIDTH 4 0
BBX 4 6 0 0
BITMAP
54
14
18
24
21
92
ENDCHAR
STARTCHAR uni019E
ENCODING 414
SWIDTH 559 0
DWIDTH 4 0
BBX 4 6 0 -2
BITMAP
66
52
52
62
02
02
ENDCHAR
STARTCHAR Ohorn
ENCODING 416
SWIDTH 737 0
DWIDTH 6 0
BBX 6 7 0 0
BITMAP
0010
0020
1580
5090
9050
5090
1540
ENDCHAR
STARTCHAR ohorn
ENCODING 417
SWIDTH 516 0
DWIDTH 4 0
BBX 4 6 0 0
BITMAP
01
01
59
82
82
55
ENDCHAR
STARTCHAR uni01A5
ENCODING 421
SWIDTH 522 0
DWIDTH 4 0
BBX 4 8 0 -2
BITMAP
18
50
69
52
52
65
50
A0
ENDCHAR
STARTCHAR uni01AA
ENCODING 426
SWIDTH 298 0
DWIDTH 2 0
BBX 4 8 -1 -2
BITMAP
54
48
18
08
08
08
08
06
ENDCHAR
STARTCHAR uni01AB
ENCODING 427
SWIDTH 321 0
DWIDTH 3 0
BBX 3 7 0 -2
BITMAP
10
60
50
50
24
04
14
ENDCHAR
STARTCHAR uni01AD
ENCODING 429
SWIDTH 315 0
DWIDTH 3 0
BBX 3 6 0 0
BITMAP
18
50
60
50
50
20
ENDCHAR
STARTCHAR Uhorn
ENCODING 431
SWIDTH 762 0
DWIDTH 6 0
BBX 7 7 0 0
BITMAP
0014
0004
6080
2040
2040
2040
1940
ENDCHAR
STARTCHAR uhorn
ENCODING 432
SWIDTH 574 0
DWIDTH 5 0
BBX 5 5 0 0
BITMAP
0040
5600
5200
5200
2600
ENDCHAR
STARTCHAR uni01B5
ENCODING 437
SWIDTH 594 0
DWIDTH 5 0
BBX 5 5 0 0
BITMAP
5640
0600
1900
2400
A540
ENDCHAR
STARTCHAR uni01BA
ENCODING 442
SWIDTH 430 0
DWIDTH 3 0
BBX 3 6 0 -2
BITMAP
98
20
18
08
54
58
ENDCHAR
STARTCHAR uni01BB
ENCODING 443
SWIDTH 508 0
DWIDTH 4 0
BBX 4 6 0 0
BITMAP
28
05
05
59
10
6A
ENDCHAR
STARTCHAR uni01BE
ENCODING 446
SWIDTH 406 0
DWIDTH 3 0
BBX 3 5 0 0
BITMAP
10
60
18
08
54
ENDCHAR
STARTCHAR uni01C0
ENCODING 448
SWIDTH 250 0
DWIDTH 2 0
BBX 2 6 0 0
BITMAP
50
50
50
50
50
50
ENDCHAR
STARTCHAR uni01C1
ENCODING 449
SWIDTH 423 0
DWIDTH 3 0
BBX 3 6 0 0
BITMAP
58
58
58
58
58
58
ENDCHAR
STARTCHAR uni01C2
ENCODING 450
SWIDTH 422 0
DWIDTH 3 0
BBX 3 6 0 0
BITMAP
20
20
64
64
20
20
ENDCHAR
STARTCHAR uni01C3
ENCODING 451
SWIDTH 245 0
DWIDTH 2 0
BBX 2 6 0 0
BITMAP
50
50
50
50
00
50
ENDCHAR
STARTCHAR uni01DE
ENCODING 478
SWIDTH 718 0
DWIDTH 6 0
BBX 6 8 0 0
BITMAP
0500
1600
0000
0900
0A00
1200
2680
90D0
ENDCHAR
STARTCHAR uni01DF
ENCODING 479
SWIDTH 480 0
DWIDTH 4 0
BBX 4 6 0 0
BITMAP
6C
00
58
08
58
69
ENDCHAR
STARTCHAR uni01F0
ENCODING 496
SWIDTH 263 0
DWIDTH 2 0
BBX 3 8 -1 -2
BITMAP
10
14
14
14
14
14
14
90
ENDCHAR
STARTCHAR Aringacute
ENCODING 506
SWIDTH 718 0
DWIDTH 6 0
BBX 6 9 0 0
BITMAP
0500
0000
0500
0500
0900
0A00
1200
2680
90D0
ENDCHAR
STARTCHAR aringacute
ENCODING 507
SWIDTH 480 0
DWIDTH 4 0
BBX 4 7 0 0
BITMAP
14
14
14
58
08
58
69
ENDCHAR
STARTCHAR AEacute
ENCODING 508
SWIDTH 894 0
DWIDTH 7 0
BBX 7 7 0 0
BITMAP
0080
0000
0758
0610
1660
1204
9358
ENDCHAR
STARTCHAR aeacute
ENCODING 509
SWIDTH 709 0
DWIDTH 6 0
BBX 6 6 0 0
BITMAP
0500
0400
5980
1950
5800
6680
ENDCHAR
STARTCHAR Oslashacute
ENCODING 510
SWIDTH 737 0
DWIDTH 6 0
BBX 6 7 0 0
BITMAP
0500
0000
1580
5190
9450
6490
2540
ENDCHAR
STARTCHAR oslashacute
ENCODING 511
SWIDTH 514 0
DWIDTH 4 0
BBX 4 6 0 0
BITMAP
04
14
55
86
92
65
ENDCHAR
STARTCHAR uni0218
ENCODING 536
SWIDTH 504 0
DWIDTH 4 0
BBX 4 7 0 -2
BITMAP
59
51
28
46
95
14
04
ENDCHAR
STARTCHAR uni0219
ENCODING 537
SWIDTH 394 0
DWIDTH 3 0
BBX 3 6 0 -2
BITMAP
54
60
18
58
20
10
ENDCHAR
STARTCHAR uni021A
ENCODING 538
SWIDTH 603 0
DWIDTH 5 0
BBX 5 7 0 -2
BITMAP
9980
0800
0800
0800
1C00
0800
0400
ENDCHAR
STARTCHAR uni021B
ENCODING 539
SWIDTH 315 0
DWIDTH 3 0
BBX 2 7 0 -2
BITMAP
10
60
50
50
20
20
10
ENDCHAR
STARTCHAR uni0221
ENCODING 545
SWIDTH 674 0
DWIDTH 5 0
BBX 6 7 0 -1
BITMAP
0600
0200
1600
8200
8240
6650
0100
ENDCHAR
STARTCHAR uni0228
ENCODING 552
SWIDTH 626 0
DWIDTH 5 0
BBX 5 7 0 -2
BITMAP
7540
2100
2600
2000
7580
0400
0400
ENDCHAR
STARTCHAR uni0229
ENCODING 553
SWIDTH 464 0
DWIDTH 4 0
BBX 4 6 0 -2
BITMAP
58
95
80
68
14
14
ENDCHAR
STARTCHAR uni0234
ENCODING 564
SWIDTH 399 0
DWIDTH 3 0
BBX 3 7 0 -1
BITMAP
90
50
50
50
54
64
10
ENDCHAR
STARTCHAR uni0235
ENCODING 565
SWIDTH 702 0
DWIDTH 6 0
BBX 6 5 0 -1
BITMAP
6500
5200
5250
6250
0100
ENDCHAR
STARTCHAR uni0236
ENCODING 566
SWIDTH 406 0
DWIDTH 3 0
BBX 3 6 0 -1
BITMAP
10
60
50
54
24
10
ENDCHAR
STARTCHAR uni0237
ENCODING 567
SWIDTH 263 0
DWIDTH 2 0
BBX 3 6 -1 -2
BITMAP
14
14
14
14
14
90
ENDCHAR
STARTCHAR uni0250
ENCODING 592
SWIDTH 475 0
DWIDTH 4 0
BBX 4 4 0 0
BITMAP
A9
55
60
25
ENDCHAR
STARTCHAR uni0251
ENCODING 593
SWIDTH 542 0
DWIDTH 4 0
BBX 4 4 0 0
BITMAP
15
82
82
66
ENDCHAR
STARTCHAR uni0252
ENCODING 594
SWIDTH 544 0
DWIDTH 4 0
BBX 4 4 0 0
BITMAP
6A
52
52
65
ENDCHAR
STARTCHAR uni0253
ENCODING 595
SWIDTH 518 0
DWIDTH 4 0
BBX 4 6 0 0
BITMAP
18
50
69
52
52
65
ENDCHAR
STARTCHAR uni0254
ENCODING 596
SWIDTH 454 0
DWIDTH 4 0
BBX 4 4 0 0
BITMAP
68
05
05
54
ENDCHAR
STARTCHAR uni0255
ENCODING 597
SWIDTH 447 0
DWIDTH 4 0
BBX 3 4 0 0
BITMAP
58
80
94
74
ENDCHAR
STARTCHAR uni0256
ENCODING 598
SWIDTH 528 0
DWIDTH 4 0
BBX 5 8 0 -2
BITMAP
0600
0200
1600
8200
8200
6600
0200
0180
ENDCHAR
STARTCHAR uni0257
ENCODING 599
SWIDTH 542 0
DWIDTH 4 0
BBX 5 6 0 0
BITMAP
0140
0200
1A00
8200
8200
6600
ENDCHAR
STARTCHAR uni0258
ENCODING 600
SWIDTH 466 0
DWIDTH 4 0
BBX 4 4 0 0
BITMAP
54
55
05
68
ENDCHAR
STARTCHAR uni0259
ENCODING 601
SWIDTH 464 0
DWIDTH 4 0
BBX 4 4 0 0
BITMAP
68
05
55
54
ENDCHAR
STARTCHAR uni025A
ENCODING 602
SWIDTH 642 0
DWIDTH 5 0
BBX 5 4 0 0
BITMAP
6800
0640
5500
5400
ENDCHAR
STARTCHAR uni025B
ENCODING 603
SWIDTH 399 0
DWIDTH 3 0
BBX 3 4 0 0
BITMAP
58
60
80
64
ENDCHAR
STARTCHAR uni025C
ENCODING 604
SWIDTH 398 0
DWIDTH 3 0
BBX 3 4 0 0
BITMAP
58
24
08
54
ENDCHAR
STARTCHAR uni025D
ENCODING 605
SWIDTH 575 0
DWIDTH 5 0
BBX 5 4 0 0
BITMAP
5800
2540
0800
5800
ENDCHAR
STARTCHAR uni025E
ENCODING 606
SWIDTH 500 0
DWIDTH 4 0
BBX 4 4 0 0
BITMAP
15
89
82
15
ENDCHAR
STARTCHAR uni025F
ENCODING 607
SWIDTH 272 0
DWIDTH 2 0
BBX 3 6 -1 -2
BITMAP
14
18
18
18
14
54
ENDCHAR
STARTCHAR uni0260
ENCODING 608
SWIDTH 541 0
DWIDTH 4 0
BBX 5 8 0 -2
BITMAP
0140
0200
1600
8200
8200
6600
0500
5400
ENDCHAR
STARTCHAR uni0261
ENCODING 609
SWIDTH 521 0
DWIDTH 4 0
BBX 4 6 0 -2
BITMAP
15
82
82
66
05
54
ENDCHAR
STARTCHAR uni0262
ENCODING 610
SWIDTH 535 0
DWIDTH 4 0
BBX 4 4 0 0
BITMAP
16
80
82
66
ENDCHAR
STARTCHAR uni0263
ENCODING 611
SWIDTH 479 0
DWIDTH 4 0
BBX 4 6 0 -2
BITMAP
92
54
24
14
18
18
ENDCHAR
STARTCHAR uni0264
ENCODING 612
SWIDTH 466 0
DWIDTH 4 0
BBX 4 4 0 0
BITMAP
A5
18
08
18
ENDCHAR
STARTCHAR uni0265
ENCODING 613
SWIDTH 553 0
DWIDTH 4 0
BBX 4 6 0 -2
BITMAP
52
52
52
26
02
02
ENDCHAR
STARTCHAR uni0266
ENCODING 614
SWIDTH 577 0
DWIDTH 5 0
BBX 4 6 0 0
BITMAP
14
10
6A
52
52
62
ENDCHAR
STARTCHAR uni0267
ENCODING 615
SWIDTH 562 0
DWIDTH 5 0
BBX 4 8 0 -2
BITMAP
14
10
6A
52
52
62
02
19
ENDCHAR
STARTCHAR uni0268
ENCODING 616
SWIDTH 295 0
DWIDTH 2 0
BBX 2 6 0 0
BITMAP
10
00
60
60
20
60
ENDCHAR
STARTCHAR uni0269
ENCODING 617
SWIDTH 286 0
DWIDTH 2 0
BBX 2 4 0 0
BITMAP
50
50
50
20
ENDCHAR
STARTCHAR uni026A
ENCODING 618
SWIDTH 287 0
DWIDTH 2 0
BBX 2 4 0 0
BITMAP
60
50
50
60
ENDCHAR
STARTCHAR uni026B
ENCODING 619
SWIDTH 290 0
DWIDTH 2 0
BBX 3 6 0 0
BITMAP
50
50
54
60
50
60
ENDCHAR
STARTCHAR uni026C
ENCODING 620
SWIDTH 318 0
DWIDTH 3 0
BBX 3 6 0 0
BITMAP
20
20
60
A4
20
20
ENDCHAR
STARTCHAR uni026D
ENCODING 621
SWIDTH 248 0
DWIDTH 2 0
BBX 3 8 0 -2
BITMAP
90
50
50
50
50
50
50
18
ENDCHAR
STARTCHAR uni026E
ENCODING 622
SWIDTH 590 0
DWIDTH 5 0
BBX 5 8 0 -2
BITMAP
5000
5000
6640
5600
5900
6140
0180
1500
ENDCHAR
STARTCHAR uni026F
ENCODING 623
SWIDTH 846 0
DWIDTH 7 0
BBX 6 4 0 0
BITMAP
5620
5220
5220
2660
ENDCHAR
STARTCHAR uni0270
ENCODING 624
SWIDTH 826 0
DWIDTH 7 0
BBX 7 6 0 -2
BITMAP
5620
5220
5220
2660
0020
0024
ENDCHAR
STARTCHAR uni0271
ENCODING 625
SWIDTH 835 0
DWIDTH 7 0
BBX 6 6 0 -2
BITMAP
6660
5220
5220
6220
0020
0090
ENDCHAR
STARTCHAR uni0272
ENCODING 626
SWIDTH 574 0
DWIDTH 5 0
BBX 5 6 -1 -2
BITMAP
1980
1480
1480
1480
1400
9000
ENDCHAR
STARTCHAR uni0273
ENCODING 627
SWIDTH 563 0
DWIDTH 5 0
BBX 6 6 0 -2
BITMAP
6600
5200
5200
6200
0200
0190
ENDCHAR
STARTCHAR uni0274
ENCODING 628
SWIDTH 568 0
DWIDTH 5 0
BBX 4 4 0 0
BITMAP
62
65
4A
52
ENDCHAR
STARTCHAR uni0275
ENCODING 629
SWIDTH 514 0
DWIDTH 4 0
BBX 4 4 0 0
BITMAP
55
96
82
65
ENDCHAR
STARTCHAR uni0276
ENCODING 630
SWIDTH 732 0
DWIDTH 6 0
BBX 6 4 0 0
BITMAP
6A50
8680
8500
5650
ENDCHAR
STARTCHAR uni0277
ENCODING 631
SWIDTH 672 0
DWIDTH 5 0
BBX 5 4 0 0
BITMAP
1540
8480
8880
5580
ENDCHAR
STARTCHAR uni0278
ENCODING 632
SWIDTH 658 0
DWIDTH 5 0
BBX 5 8 0 -2
BITMAP
0800
0800
1940
8880
8880
6940
0800
0800
ENDCHAR
STARTCHAR uni0279
ENCODING 633
SWIDTH 380 0
DWIDTH 3 0
BBX 3 4 0 0
BITMAP
24
14
14
A4
ENDCHAR
STARTCHAR uni027A
ENCODING 634
SWIDTH 374 0
DWIDTH 3 0
BBX 3 6 0 0
BITMAP
24
14
14
14
14
A4
ENDCHAR
STARTCHAR uni027B
ENCODING 635
SWIDTH 375 0
DWIDTH 3 0
BBX 4 6 0 -2
BITMAP
24
14
14
A4
14
06
ENDCHAR
STARTCHAR uni027C
ENCODING 636
SWIDTH 378 0
DWIDTH 3 0
BBX 3 6 0 -2
BITMAP
68
60
50
50
50
60
ENDCHAR
STARTCHAR uni027D
ENCODING 637
SWIDTH 373 0
DWIDTH 3 0
BBX 3 6 0 -2
BITMAP
68
50
50
50
50
18
ENDCHAR
STARTCHAR uni027E
ENCODING 638
SWIDTH 371 0
DWIDTH 3 0
BBX 3 4 0 0
BITMAP
14
50
50
60
ENDCHAR
STARTCHAR uni027F
ENCODING 639
SWIDTH 371 0
DWIDTH 3 0
BBX 3 4 0 0
BITMAP
50
10
14
24
ENDCHAR
STARTCHAR uni0280
ENCODING 640
SWIDTH 494 0
DWIDTH 4 0
BBX 4 4 0 0
BITMAP
68
55
68
65
ENDCHAR
STARTCHAR uni0281
ENCODING 641
SWIDTH 494 0
DWIDTH 4 0
BBX 4 4 0 0
BITMAP
65
68
55
68
ENDCHAR
STARTCHAR uni0282
ENCODING 642
SWIDTH 395 0
DWIDTH 3 0
BBX 3 6 0 -2
BITMAP
54
60
18
58
40
50
ENDCHAR
STARTCHAR uni0283
ENCODING 643
SWIDTH 253 0
DWIDTH 2 0
BBX 4 8 -1 -2
BITMAP
05
14
14
14
14
14
14
50
ENDCHAR
STARTCHAR uni0284
ENCODING 644
SWIDTH 286 0
DWIDTH 2 0
BBX 4 8 -1 -2
BITMAP
05
04
14
14
14
18
14
50
ENDCHAR
STARTCHAR uni0285
ENCODING 645
SWIDTH 361 0
DWIDTH 3 0
BBX 4 6 0 -2
BITMAP
90
14
14
14
14
05
ENDCHAR
STARTCHAR uni0286
ENCODING 646
SWIDTH 253 0
DWIDTH 2 0
BBX 4 8 -1 -2
BITMAP
05
14
14
14
14
14
64
64
ENDCHAR
STARTCHAR uni0287
ENCODING 647
SWIDTH 315 0
DWIDTH 3 0
BBX 2 5 0 -1
BITMAP
60
20
20
60
20
ENDCHAR
STARTCHAR uni0288
ENCODING 648
SWIDTH 309 0
DWIDTH 2 0
BBX 3 7 0 -2
BITMAP
10
60
50
50
50
50
18
ENDCHAR
STARTCHAR uni0289
ENCODING 649
SWIDTH 580 0
DWIDTH 5 0
BBX 4 4 0 0
BITMAP
52
66
52
26
ENDCHAR
STARTCHAR uni028A
ENCODING 650
SWIDTH 548 0
DWIDTH 4 0
BBX 4 4 0 0
BITMAP
66
52
82
55
ENDCHAR
STARTCHAR uni028B
ENCODING 651
SWIDTH 530 0
DWIDTH 4 0
BBX 4 4 0 0
BITMAP
52
51
51
25
ENDCHAR
STARTCHAR uni028C
ENCODING 652
SWIDTH 495 0
DWIDTH 4 0
BBX 4 4 0 0
BITMAP
14
18
58
86
ENDCHAR
STARTCHAR uni028D
ENCODING 653
SWIDTH 764 0
DWIDTH 6 0
BBX 6 4 0 0
BITMAP
1580
1980
5950
8660
ENDCHAR
STARTCHAR uni028E
ENCODING 654
SWIDTH 492 0
DWIDTH 4 0
BBX 4 6 0 0
BITMAP
06
04
14
18
58
86
ENDCHAR
STARTCHAR uni028F
ENCODING 655
SWIDTH 454 0
DWIDTH 4 0
BBX 4 4 0 0
BITMAP
95
24
24
24
ENDCHAR
STARTCHAR uni0290
ENCODING 656
SWIDTH 458 0
DWIDTH 4 0
BBX 5 6 0 -2
BITMAP
5900
1800
2000
A500
0100
0140
ENDCHAR
STARTCHAR uni0291
ENCODING 657
SWIDTH 458 0
DWIDTH 4 0
BBX 4 5 0 -1
BITMAP
59
18
25
A5
10
ENDCHAR
STARTCHAR uni0292
ENCODING 658
SWIDTH 443 0
DWIDTH 4 0
BBX 4 6 0 -2
BITMAP
98
14
24
09
05
94
ENDCHAR
STARTCHAR uni0293
ENCODING 659
SWIDTH 443 0
DWIDTH 4 0
BBX 4 7 0 -3
BITMAP
9C
14
24
09
55
68
04
ENDCHAR
STARTCHAR uni0294
ENCODING 660
SWIDTH 383 0
DWIDTH 3 0
BBX 3 6 0 0
BITMAP
54
48
08
10
50
60
ENDCHAR
STARTCHAR uni0295
ENCODING 661
SWIDTH 383 0
DWIDTH 3 0
BBX 3 6 0 0
BITMAP
58
80
80
14
14
24
ENDCHAR
STARTCHAR uni0296
ENCODING 662
SWIDTH 408 0
DWIDTH 3 0
BBX 3 6 0 0
BITMAP
60
20
20
08
08
94
ENDCHAR
STARTCHAR uni0297
ENCODING 663
SWIDTH 437 0
DWIDTH 4 0
BBX 3 6 0 -2
BITMAP
18
80
80
80
50
28
ENDCHAR
STARTCHAR uni0298
ENCODING 664
SWIDTH 736 0
DWIDTH 6 0
BBX 6 6 0 0
BITMAP
1540
5050
8560
8060
5050
1540
ENDCHAR
STARTCHAR uni0299
ENCODING 665
SWIDTH 485 0
DWIDTH 4 0
BBX 4 4 0 0
BITMAP
69
68
55
65
ENDCHAR
STARTCHAR uni029A
ENCODING 666
SWIDTH 500 0
DWIDTH 4 0
BBX 4 4 0 0
BITMAP
54
62
82
54
ENDCHAR
STARTCHAR uni029B
ENCODING 667
SWIDTH 536 0
DWIDTH 4 0
BBX 5 5 0 0
BITMAP
0140
1600
8000
8200
6600
ENDCHAR
STARTCHAR uni029C
ENCODING 668
SWIDTH 599 0
DWIDTH 5 0
BBX 4 4 0 0
BITMAP
62
66
52
62
ENDCHAR
STARTCHAR uni029D
ENCODING 669
SWIDTH 263 0
DWIDTH 2 0
BBX 3 7 -1 -2
BITMAP
14
14
14
14
14
58
54
ENDCHAR
STARTCHAR uni029E
ENCODING 670
SWIDTH 542 0
DWIDTH 4 0
BBX 4 6 0 -2
BITMAP
66
16
0A
62
02
02
ENDCHAR
STARTCHAR uni029F
ENCODING 671
SWIDTH 440 0
DWIDTH 4 0
BBX 4 4 0 0
BITMAP
60
50
50
65
ENDCHAR
STARTCHAR uni02A0
ENCODING 672
SWIDTH 541 0
DWIDTH 4 0
BBX 5 8 0 -2
BITMAP
0140
0200
1A00
8200
8200
6600
0200
0600
ENDCHAR
STARTCHAR uni02A1
ENCODING 673
SWIDTH 393 0
DWIDTH 3 0
BBX 3 6 0 0
BITMAP
54
48
08
14
60
60
ENDCHAR
STARTCHAR uni02A2
ENCODING 674
SWIDTH 393 0
DWIDTH 3 0
BBX 3 6 0 0
BITMAP
58
80
80
10
24
24
ENDCHAR
STARTCHAR uni02A3
ENCODING 675
SWIDTH 830 0
DWIDTH 7 0
BBX 7 6 0 0
BITMAP
0600
0200
1A64
8260
8280
6794
ENDCHAR
STARTCHAR uni02A4
ENCODING 676
SWIDTH 838 0
DWIDTH 7 0
BBX 7 8 0 -2
BITMAP
0600
0200
1A64
8260
8290
6614
0014
0250
ENDCHAR
STARTCHAR uni02A5
ENCODING 677
SWIDTH 829 0
DWIDTH 7 0
BBX 7 7 0 -1
BITMAP
0600
0200
1A64
8260
8294
6794
0040
ENDCHAR
STARTCHAR uni02A6
ENCODING 678
SWIDTH 614 0
DWIDTH 5 0
BBX 5 5 0 0
BITMAP
1000
6940
5900
5180
2540
ENDCHAR
STARTCHAR uni02A7
ENCODING 679
SWIDTH 513 0
DWIDTH 4 0
BBX 5 8 0 -2
BITMAP
0140
1500
6500
5500
5500
2500
0500
1400
ENDCHAR
STARTCHAR uni02A8
ENCODING 680
SWIDTH 687 0
DWIDTH 6 0
BBX 5 5 0 0
BITMAP
1000
6580
5800
5940
2640
ENDCHAR
STARTCHAR uni02A9
ENCODING 681
SWIDTH 866 0
DWIDTH 7 0
BBX 7 8 0 -2
BITMAP
1400
1000
6660
5214
5214
6214
0014
0090
ENDCHAR
STARTCHAR uni02AA
ENCODING 682
SWIDTH 595 0
DWIDTH 5 0
BBX 5 6 0 0
BITMAP
9000
5000
5940
5900
5240
1540
ENDCHAR
STARTCHAR uni02AB
ENCODING 683
SWIDTH 580 0
DWIDTH 5 0
BBX 5 6 0 0
BITMAP
5000
5000
6600
5500
5800
7A40
ENDCHAR
STARTCHAR uni02AC
ENCODING 684
SWIDTH 599 0
DWIDTH 5 0
BBX 5 6 0 0
BITMAP
9840
1900
2600
5440
5900
2600
ENDCHAR
STARTCHAR uni02AD
ENCODING 685
SWIDTH 479 0
DWIDTH 4 0
BBX 4 5 0 0
BITMAP
69
41
69
45
45
ENDCHAR
STARTCHAR uni02AE
ENCODING 686
SWIDTH 595 0
DWIDTH 5 0
BBX 5 6 0 -2
BITMAP
5200
2200
2200
2600
0200
0240
ENDCHAR
STARTCHAR uni02AF
ENCODING 687
SWIDTH 600 0
DWIDTH 5 0
BBX 6 6 0 -2
BITMAP
9200
2200
2200
2600
0100
0150
ENDCHAR
STARTCHAR uni02B0
ENCODING 688
SWIDTH 488 0
DWIDTH 4 0
BBX 4 4 0 2
BITMAP
50
58
55
55
ENDCHAR
STARTCHAR uni02B1
ENCODING 689
SWIDTH 488 0
DWIDTH 4 0
BBX 4 5 0 2
BITMAP
14
50
58
55
55
ENDCHAR
STARTCHAR uni02B2
ENCODING 690
SWIDTH 222 0
DWIDTH 2 0
BBX 3 5 -1 1
BITMAP
14
14
14
14
60
ENDCHAR
STARTCHAR uni02B3
ENCODING 691
SWIDTH 325 0
DWIDTH 3 0
BBX 3 3 0 2
BITMAP
64
50
50
ENDCHAR
STARTCHAR uni02B4
ENCODING 692
SWIDTH 325 0
DWIDTH 3 0
BBX 3 3 0 2
BITMAP
24
20
64
ENDCHAR
STARTCHAR uni02B5
ENCODING 693
SWIDTH 325 0
DWIDTH 3 0
BBX 3 4 0 1
BITMAP
24
20
60
04
ENDCHAR
STARTCHAR uni02B6
ENCODING 694
SWIDTH 443 0
DWIDTH 4 0
BBX 3 3 0 2
BITMAP
58
64
58
ENDCHAR
STARTCHAR uni02B7
ENCODING 695
SWIDTH 653 0
DWIDTH 5 0
BBX 5 3 0 2
BITMAP
9880
1940
2200
ENDCHAR
STARTCHAR uni02B8
ENCODING 696
SWIDTH 427 0
DWIDTH 3 0
BBX 3 4 0 1
BITMAP
94
24
20
50
ENDCHAR
STARTCHAR uni02B9
ENCODING 697
SWIDTH 296 0
DWIDTH 2 0
BBX 2 2 0 4
BITMAP
20
50
ENDCHAR
STARTCHAR uni02BA
ENCODING 698
SWIDTH 456 0
DWIDTH 4 0
BBX 3 2 0 4
BITMAP
28
58
ENDCHAR
STARTCHAR uni02BB
ENCODING 699
SWIDTH 245 0
DWIDTH 2 0
BBX 2 2 0 4
BITMAP
40
50
ENDCHAR
STARTCHAR uni02BC
ENCODING 700
SWIDTH 244 0
DWIDTH 2 0
BBX 2 2 0 4
BITMAP
50
10
ENDCHAR
STARTCHAR uni02BD
ENCODING 701
SWIDTH 244 0
DWIDTH 2 0
BBX 2 2 0 4
BITMAP
50
40
ENDCHAR
STARTCHAR uni02BE
ENCODING 702
SWIDTH 203 0
DWIDTH 2 0
BBX 1 2 0 4
BITMAP
40
40
ENDCHAR
STARTCHAR uni02BF
ENCODING 703
SWIDTH 203 0
DWIDTH 2 0
BBX 1 2 0 4
BITMAP
40
40
ENDCHAR
STARTCHAR uni02C0
ENCODING 704
SWIDTH 364 0
DWIDTH 3 0
BBX 3 3 0 3
BITMAP
54
08
20
ENDCHAR
STARTCHAR uni02C1
ENCODING 705
SWIDTH 364 0
DWIDTH 3 0
BBX 3 3 0 3
BITMAP
54
80
20
ENDCHAR
STARTCHAR uni02C2
ENCODING 706
SWIDTH 324 0
DWIDTH 3 0
BBX 2 2 0 4
BITMAP
10
50
ENDCHAR
STARTCHAR uni02C3
ENCODING 707
SWIDTH 324 0
DWIDTH 3 0
BBX 2 3 0 3
BITMAP
50
20
40
ENDCHAR
STARTCHAR uni02C4
ENCODING 708
SWIDTH 324 0
DWIDTH 3 0
BBX 3 2 0 4
BITMAP
20
54
ENDCHAR
STARTCHAR uni02C5
ENCODING 709
SWIDTH 324 0
DWIDTH 3 0
BBX 3 2 0 4
BITMAP
54
20
ENDCHAR
STARTCHAR circumflex
ENCODING 710
SWIDTH 342 0
DWIDTH 3 0
BBX 3 2 0 4
BITMAP
10
54
ENDCHAR
STARTCHAR caron
ENCODING 711
SWIDTH 342 0
DWIDTH 3 0
BBX 2 2 0 4
BITMAP
40
60
ENDCHAR
STARTCHAR uni02C8
ENCODING 712
SWIDTH 284 0
DWIDTH 2 0
BBX 1 2 1 4
BITMAP
40
40
ENDCHAR
STARTCHAR uni02C9
ENCODING 713
SWIDTH 350 0
DWIDTH 3 0
BBX 3 1 0 4
BITMAP
54
ENDCHAR
STARTCHAR uni02CA
ENCODING 714
SWIDTH 222 0
DWIDTH 2 0
BBX 2 2 0 4
BITMAP
10
40
ENDCHAR
STARTCHAR uni02CB
ENCODING 715
SWIDTH 222 0
DWIDTH 2 0
BBX 2 2 0 4
BITMAP
40
50
ENDCHAR
STARTCHAR uni02CC
ENCODING 716
SWIDTH 284 0
DWIDTH 2 0
BBX 1 2 1 -2
BITMAP
40
40
ENDCHAR
STARTCHAR uni02CD
ENCODING 717
SWIDTH 342 0
DWIDTH 3 0
BBX 3 1 0 -2
BITMAP
54
ENDCHAR
STARTCHAR uni02CE
ENCODING 718
SWIDTH 222 0
DWIDTH 2 0
BBX 2 2 0 -2
BITMAP
40
50
ENDCHAR
STARTCHAR uni02CF
ENCODING 719
SWIDTH 223 0
DWIDTH 2 0
BBX 2 2 0 -2
BITMAP
10
40
ENDCHAR
STARTCHAR uni02D0
ENCODING 720
SWIDTH 341 0
DWIDTH 3 0
BBX 1 3 1 0
BITMAP
80
00
80
ENDCHAR
STARTCHAR uni02D1
ENCODING 721
SWIDTH 341 0
DWIDTH 3 0
BBX 1 1 1 3
BITMAP
80
ENDCHAR
STARTCHAR uni02D2
ENCODING 722
SWIDTH 341 0
DWIDTH 3 0
BBX 2 3 0 0
BITMAP
50
10
50
ENDCHAR
STARTCHAR uni02D3
ENCODING 723
SWIDTH 341 0
DWIDTH 3 0
BBX 2 3 0 0
BITMAP
20
40
20
ENDCHAR
STARTCHAR uni02D4
ENCODING 724
SWIDTH 341 0
DWIDTH 3 0
BBX 2 2 0 1
BITMAP
10
50
ENDCHAR
STARTCHAR uni02D5
ENCODING 725
SWIDTH 341 0
DWIDTH 3 0
BBX 2 2 0 1
BITMAP
50
10
ENDCHAR
STARTCHAR uni02D6
ENCODING 726
SWIDTH 341 0
DWIDTH 3 0
BBX 1 2 1 1
BITMAP
40
80
ENDCHAR
STARTCHAR uni02D7
ENCODING 727
SWIDTH 341 0
DWIDTH 3 0
BBX 1 1 1 2
BITMAP
40
ENDCHAR
STARTCHAR breve
ENCODING 728
SWIDTH 353 0
DWIDTH 3 0
BBX 3 2 0 4
BITMAP
44
60
ENDCHAR
STARTCHAR dotaccent
ENCODING 729
SWIDTH 194 0
DWIDTH 2 0
BBX 1 1 0 5
BITMAP
80
ENDCHAR
STARTCHAR ring
ENCODING 730
SWIDTH 265 0
DWIDTH 2 0
BBX 2 2 0 4
BITMAP
50
50
ENDCHAR
STARTCHAR ogonek
ENCODING 731
SWIDTH 277 0
DWIDTH 2 0
BBX 2 2 0 -2
BITMAP
40
50
ENDCHAR
STARTCHAR tilde
ENCODING 732
SWIDTH 381 0
DWIDTH 3 0
BBX 3 1 0 4
BITMAP
54
ENDCHAR
STARTCHAR hungarumlaut
ENCODING 733
SWIDTH 350 0
DWIDTH 3 0
BBX 3 1 0 5
BITMAP
64
ENDCHAR
STARTCHAR uni02DE
ENCODING 734
SWIDTH 205 0
DWIDTH 2 0
BBX 2 2 0 1
BITMAP
40
50
ENDCHAR
STARTCHAR uni02DF
ENCODING 735
SWIDTH 302 0
DWIDTH 2 0
BBX 2 2 0 4
BITMAP
50
60
ENDCHAR
STARTCHAR uni02E0
ENCODING 736
SWIDTH 413 0
DWIDTH 3 0
BBX 3 4 0 1
BITMAP
94
24
20
24
ENDCHAR
STARTCHAR uni02E1
ENCODING 737
SWIDTH 244 0
DWIDTH 2 0
BBX 2 4 0 2
BITMAP
50
50
50
50
ENDCHAR
STARTCHAR uni02E2
ENCODING 738
SWIDTH 337 0
DWIDTH 3 0
BBX 3 3 0 2
BITMAP
54
60
54
ENDCHAR
STARTCHAR uni02E3
ENCODING 739
SWIDTH 445 0
DWIDTH 4 0
BBX 3 3 0 2
BITMAP
68
24
58
ENDCHAR
STARTCHAR uni02E4
ENCODING 740
SWIDTH 364 0
DWIDTH 3 0
BBX 3 4 0 2
BITMAP
58
80
14
14
ENDCHAR
STARTCHAR uni02E5
ENCODING 741
SWIDTH 423 0
DWIDTH 3 0
BBX 3 6 0 0
BITMAP
58
04
04
04
04
04
ENDCHAR
STARTCHAR uni02E6
ENCODING 742
SWIDTH 414 0
DWIDTH 3 0
BBX 3 5 0 0
BITMAP
04
58
04
04
04
ENDCHAR
STARTCHAR uni02E7
ENCODING 743
SWIDTH 414 0
DWIDTH 3 0
BBX 3 5 0 0
BITMAP
04
04
58
04
04
ENDCHAR
STARTCHAR uni02E8
ENCODING 744
SWIDTH 414 0
DWIDTH 3 0
BBX 3 5 0 0
BITMAP
04
04
04
58
04
ENDCHAR
STARTCHAR uni02E9
ENCODING 745
SWIDTH 414 0
DWIDTH 3 0
BBX 3 6 0 0
BITMAP
04
04
04
04
04
58
ENDCHAR
STARTCHAR uni02EC
ENCODING 748
SWIDTH 341 0
DWIDTH 3 0
BBX 3 2 0 -1
BITMAP
94
20
ENDCHAR
STARTCHAR uni02ED
ENCODING 749
SWIDTH 380 0
DWIDTH 3 0
BBX 3 2 0 4
BITMAP
54
54
ENDCHAR
STARTCHAR uni02F7
ENCODING 759
SWIDTH 381 0
DWIDTH 3 0
BBX 3 1 0 -2
BITMAP
54
ENDCHAR
STARTCHAR uni0300
ENCODING 768
SWIDTH 0 0
DWIDTH 0 0
BBX 2 2 -3 4
BITMAP
40
10
ENDCHAR
STARTCHAR uni0301
ENCODING 769
SWIDTH 0 0
DWIDTH 0 0
BBX 1 2 -2 4
BITMAP
40
40
ENDCHAR
STARTCHAR uni0302
ENCODING 770
SWIDTH 0 0
DWIDTH 0 0
BBX 2 2 -3 4
BITMAP
10
50
ENDCHAR
STARTCHAR uni0303
ENCODING 771
SWIDTH 0 0
DWIDTH 0 0
BBX 2 1 -3 4
BITMAP
50
ENDCHAR
STARTCHAR uni0304
ENCODING 772
SWIDTH 0 0
DWIDTH 0 0
BBX 2 1 -3 4
BITMAP
50
ENDCHAR
STARTCHAR uni0305
ENCODING 773
SWIDTH 0 0
DWIDTH 0 0
BBX 3 1 -3 4
BITMAP
54
ENDCHAR
STARTCHAR uni0306
ENCODING 774
SWIDTH 0 0
DWIDTH 0 0
BBX 3 2 -3 4
BITMAP
44
60
ENDCHAR
STARTCHAR uni0307
ENCODING 775
SWIDTH 0 0
DWIDTH 0 0
BBX 2 1 -3 5
BITMAP
50
ENDCHAR
STARTCHAR uni0308
ENCODING 776
SWIDTH 0 0
DWIDTH 0 0
BBX 3 1 -3 5
BITMAP
94
ENDCHAR
STARTCHAR uni0309
ENCODING 777
SWIDTH 0 0
DWIDTH 0 0
BBX 1 2 -2 4
BITMAP
40
40
ENDCHAR
STARTCHAR uni030A
ENCODING 778
SWIDTH 0 0
DWIDTH 0 0
BBX 2 2 -3 4
BITMAP
50
50
ENDCHAR
STARTCHAR uni030B
ENCODING 779
SWIDTH 0 0
DWIDTH 0 0
BBX 3 1 -3 5
BITMAP
64
ENDCHAR
STARTCHAR uni030C
ENCODING 780
SWIDTH 0 0
DWIDTH 0 0
BBX 2 2 -3 4
BITMAP
40
60
ENDCHAR
STARTCHAR uni030D
ENCODING 781
SWIDTH 0 0
DWIDTH 0 0
BBX 1 2 -2 4
BITMAP
40
40
ENDCHAR
STARTCHAR uni030E
ENCODING 782
SWIDTH 0 0
DWIDTH 0 0
BBX 2 2 -3 4
BITMAP
50
50
ENDCHAR
STARTCHAR uni030F
ENCODING 783
SWIDTH 0 0
DWIDTH 0 0
BBX 2 1 -3 5
BITMAP
90
ENDCHAR
STARTCHAR uni0310
ENCODING 784
SWIDTH 0 0
DWIDTH 0 0
BBX 2 2 -3 4
BITMAP
50
60
ENDCHAR
STARTCHAR uni0311
ENCODING 785
SWIDTH 0 0
DWIDTH 0 0
BBX 2 2 -3 4
BITMAP
60
40
ENDCHAR
STARTCHAR uni0312
ENCODING 786
SWIDTH 0 0
DWIDTH 0 0
BBX 2 2 -3 4
BITMAP
10
60
ENDCHAR
STARTCHAR uni0313
ENCODING 787
SWIDTH 0 0
DWIDTH 0 0
BBX 2 2 -3 4
BITMAP
60
10
ENDCHAR
STARTCHAR uni0314
ENCODING 788
SWIDTH 0 0
DWIDTH 0 0
BBX 2 2 -3 4
BITMAP
60
10
ENDCHAR
STARTCHAR uni0315
ENCODING 789
SWIDTH 0 0
DWIDTH 0 0
BBX 1 2 -2 4
BITMAP
80
40
ENDCHAR
STARTCHAR uni0316
ENCODING 790
SWIDTH 0 0
DWIDTH 0 0
BBX 2 2 -3 -2
BITMAP
40
10
ENDCHAR
STARTCHAR uni0317
ENCODING 791
SWIDTH 0 0
DWIDTH 0 0
BBX 1 2 -2 -2
BITMAP
40
40
ENDCHAR
STARTCHAR uni0318
ENCODING 792
SWIDTH 0 0
DWIDTH 0 0
BBX 1 2 -2 -2
BITMAP
40
40
ENDCHAR
STARTCHAR uni0319
ENCODING 793
SWIDTH 0 0
DWIDTH 0 0
BBX 2 2 -3 -2
BITMAP
40
50
ENDCHAR
STARTCHAR uni031A
ENCODING 794
SWIDTH 0 0
DWIDTH 0 0
BBX 2 2 -3 4
BITMAP
60
10
ENDCHAR
STARTCHAR uni031B
ENCODING 795
SWIDTH 0 0
DWIDTH 0 0
BBX 1 2 -1 3
BITMAP
40
40
ENDCHAR
STARTCHAR uni031C
ENCODING 796
SWIDTH 0 0
DWIDTH 0 0
BBX 1 2 -2 -2
BITMAP
40
40
ENDCHAR
STARTCHAR uni031D
ENCODING 797
SWIDTH 0 0
DWIDTH 0 0
BBX 2 2 -3 -2
BITMAP
10
50
ENDCHAR
STARTCHAR uni031E
ENCODING 798
SWIDTH 0 0
DWIDTH 0 0
BBX 2 2 -3 -2
BITMAP
50
10
ENDCHAR
STARTCHAR uni031F
ENCODING 799
SWIDTH 0 0
DWIDTH 0 0
BBX 2 2 -3 -2
BITMAP
10
50
ENDCHAR
STARTCHAR uni0320
ENCODING 800
SWIDTH 0 0
DWIDTH 0 0
BBX 2 1 -3 -2
BITMAP
50
ENDCHAR
STARTCHAR uni0321
ENCODING 801
SWIDTH 0 0
DWIDTH 0 0
BBX 3 3 -4 -2
BITMAP
04
08
54
ENDCHAR
STARTCHAR uni0322
ENCODING 802
SWIDTH 0 0
DWIDTH 0 0
BBX 2 3 -2 -2
BITMAP
40
80
50
ENDCHAR
STARTCHAR uni0323
ENCODING 803
SWIDTH 0 0
DWIDTH 0 0
BBX 2 1 -3 -2
BITMAP
50
ENDCHAR
STARTCHAR uni0324
ENCODING 804
SWIDTH 0 0
DWIDTH 0 0
BBX 3 1 -3 -1
BITMAP
94
ENDCHAR
STARTCHAR uni0325
ENCODING 805
SWIDTH 0 0
DWIDTH 0 0
BBX 2 2 -3 -2
BITMAP
50
50
ENDCHAR
STARTCHAR uni0326
ENCODING 806
SWIDTH 0 0
DWIDTH 0 0
BBX 2 2 -3 -2
BITMAP
60
10
ENDCHAR
STARTCHAR uni0327
ENCODING 807
SWIDTH 0 0
DWIDTH 0 0
BBX 1 2 -2 -2
BITMAP
40
40
ENDCHAR
STARTCHAR uni0328
ENCODING 808
SWIDTH 0 0
DWIDTH 0 0
BBX 2 2 -3 -2
BITMAP
40
50
ENDCHAR
STARTCHAR uni0329
ENCODING 809
SWIDTH 0 0
DWIDTH 0 0
BBX 1 1 -2 -2
BITMAP
40
ENDCHAR
STARTCHAR uni032A
ENCODING 810
SWIDTH 0 0
DWIDTH 0 0
BBX 2 1 -3 -1
BITMAP
50
ENDCHAR
STARTCHAR uni032B
ENCODING 811
SWIDTH 0 0
DWIDTH 0 0
BBX 2 1 -3 -2
BITMAP
50
ENDCHAR
STARTCHAR uni032C
ENCODING 812
SWIDTH 0 0
DWIDTH 0 0
BBX 2 2 -3 -2
BITMAP
40
60
ENDCHAR
STARTCHAR uni032D
ENCODING 813
SWIDTH 0 0
DWIDTH 0 0
BBX 2 2 -3 -2
BITMAP
10
50
ENDCHAR
STARTCHAR uni032E
ENCODING 814
SWIDTH 0 0
DWIDTH 0 0
BBX 3 2 -3 -2
BITMAP
44
60
ENDCHAR
STARTCHAR uni032F
ENCODING 815
SWIDTH 0 0
DWIDTH 0 0
BBX 2 1 -3 -1
BITMAP
60
ENDCHAR
STARTCHAR uni0330
ENCODING 816
SWIDTH 0 0
DWIDTH 0 0
BBX 2 1 -3 -2
BITMAP
50
ENDCHAR
STARTCHAR uni0331
ENCODING 817
SWIDTH 0 0
DWIDTH 0 0
BBX 2 1 -3 -1
BITMAP
50
ENDCHAR
STARTCHAR uni0332
ENCODING 818
SWIDTH 0 0
DWIDTH 0 0
BBX 4 1 -4 -1
BITMAP
55
ENDCHAR
STARTCHAR uni0333
ENCODING 819
SWIDTH 0 0
DWIDTH 0 0
BBX 4 2 -4 -2
BITMAP
55
55
ENDCHAR
STARTCHAR uni0334
ENCODING 820
SWIDTH 0 0
DWIDTH 0 0
BBX 2 1 -3 1
BITMAP
50
ENDCHAR
STARTCHAR uni0335
ENCODING 821
SWIDTH 0 0
DWIDTH 0 0
BBX 2 1 -3 2
BITMAP
50
ENDCHAR
STARTCHAR uni0336
ENCODING 822
SWIDTH 0 0
DWIDTH 0 0
BBX 4 1 -4 2
BITMAP
55
ENDCHAR
STARTCHAR uni0337
ENCODING 823
SWIDTH 0 0
DWIDTH 0 0
BBX 2 2 -3 2
BITMAP
10
40
ENDCHAR
STARTCHAR uni0338
ENCODING 824
SWIDTH 0 0
DWIDTH 0 0
BBX 4 7 -4 -1
BITMAP
01
01
04
04
10
10
50
ENDCHAR
STARTCHAR uni0339
ENCODING 825
SWIDTH 0 0
DWIDTH 0 0
BBX 1 2 -2 -2
BITMAP
40
40
ENDCHAR
STARTCHAR uni033A
ENCODING 826
SWIDTH 0 0
DWIDTH 0 0
BBX 2 1 -3 -2
BITMAP
50
ENDCHAR
STARTCHAR uni033B
ENCODING 827
SWIDTH 0 0
DWIDTH 0 0
BBX 2 2 -3 -2
BITMAP
50
50
ENDCHAR
STARTCHAR uni033C
ENCODING 828
SWIDTH 0 0
DWIDTH 0 0
BBX 2 1 -3 -1
BITMAP
50
ENDCHAR
STARTCHAR uni033D
ENCODING 829
SWIDTH 0 0
DWIDTH 0 0
BBX 2 2 -3 4
BITMAP
50
50
ENDCHAR
STARTCHAR uni033E
ENCODING 830
SWIDTH 0 0
DWIDTH 0 0
BBX 1 3 -2 4
BITMAP
40
40
40
ENDCHAR
STARTCHAR uni033F
ENCODING 831
SWIDTH 0 0
DWIDTH 0 0
BBX 4 2 -4 4
BITMAP
55
55
ENDCHAR
STARTCHAR uni0346
ENCODING 838
SWIDTH 0 0
DWIDTH 0 0
BBX 3 2 -3 4
BITMAP
94
40
ENDCHAR
STARTCHAR uni0347
ENCODING 839
SWIDTH 0 0
DWIDTH 0 0
BBX 3 2 -3 -2
BITMAP
54
54
ENDCHAR
STARTCHAR uni034C
ENCODING 844
SWIDTH 0 0
DWIDTH 0 0
BBX 2 2 -3 4
BITMAP
50
50
ENDCHAR
STARTCHAR uni034D
ENCODING 845
SWIDTH 0 0
DWIDTH 0 0
BBX 4 1 -4 -2
BITMAP
66
ENDCHAR
STARTCHAR uni0359
ENCODING 857
SWIDTH 0 0
DWIDTH 0 0
BBX 2 3 -3 -3
BITMAP
10
60
60
ENDCHAR
STARTCHAR uni035C
ENCODING 860
SWIDTH 0 0
DWIDTH 0 0
BBX 6 2 -3 -2
BITMAP
4010
1A40
ENDCHAR
STARTCHAR uni0360
ENCODING 864
SWIDTH 0 0
DWIDTH 0 0
BBX 4 2 -2 4
BITMAP
60
09
ENDCHAR
STARTCHAR uni0361
ENCODING 865
SWIDTH 0 0
DWIDTH 0 0
BBX 4 2 -2 4
BITMAP
69
41
ENDCHAR
STARTCHAR uni0362
ENCODING 866
SWIDTH 0 0
DWIDTH 0 0
BBX 6 1 -3 -2
BITMAP
5560
ENDCHAR
STARTCHAR uni037E
ENCODING 894
SWIDTH 261 0
DWIDTH 2 0
BBX 2 5 0 -1
BITMAP
50
00
00
50
10
ENDCHAR
STARTCHAR tonos
ENCODING 900
SWIDTH 165 0
DWIDTH 1 0
BBX 1 1 0 5
BITMAP
80
ENDCHAR
STARTCHAR dieresistonos
ENCODING 901
SWIDTH 426 0
DWIDTH 3 0
BBX 3 1 0 5
BITMAP
64
ENDCHAR
STARTCHAR Alphatonos
ENCODING 902
SWIDTH 718 0
DWIDTH 6 0
BBX 6 6 0 0
BITMAP
4000
0900
0A00
1200
2680
90D0
ENDCHAR
STARTCHAR anoteleia
ENCODING 903
SWIDTH 261 0
DWIDTH 2 0
BBX 2 1 0 3
BITMAP
50
ENDCHAR
STARTCHAR Epsilontonos
ENCODING 904
SWIDTH 745 0
DWIDTH 6 0
BBX 6 6 0 0
BITMAP
8000
1D50
0840
0980
0800
1D60
ENDCHAR
STARTCHAR Etatonos
ENCODING 905
SWIDTH 896 0
DWIDTH 7 0
BBX 7 6 0 0
BITMAP
8000
1C24
0820
0960
0820
1C24
ENDCHAR
STARTCHAR Iotatonos
ENCODING 906
SWIDTH 478 0
DWIDTH 4 0
BBX 3 6 0 0
BITMAP
80
1C
08
08
08
1C
ENDCHAR
STARTCHAR Omicrontonos
ENCODING 908
SWIDTH 806 0
DWIDTH 6 0
BBX 6 6 0 0
BITMAP
8000
0990
2020
2030
2020
0950
ENDCHAR
STARTCHAR Upsilontonos
ENCODING 910
SWIDTH 787 0
DWIDTH 6 0
BBX 7 6 -1 0
BITMAP
5000
0708
0250
0090
0080
0090
ENDCHAR
STARTCHAR Omegatonos
ENCODING 911
SWIDTH 830 0
DWIDTH 7 0
BBX 6 6 0 0
BITMAP
8000
1A90
3430
3020
1450
2CE0
ENDCHAR
STARTCHAR iotadieresistonos
ENCODING 912
SWIDTH 259 0
DWIDTH 2 0
BBX 4 5 -1 0
BITMAP
55
14
10
10
18
ENDCHAR
STARTCHAR Alpha
ENCODING 913
SWIDTH 718 0
DWIDTH 6 0
BBX 6 5 0 0
BITMAP
0900
0A00
1200
2680
90D0
ENDCHAR
STARTCHAR Beta
ENCODING 914
SWIDTH 618 0
DWIDTH 5 0
BBX 5 5 0 0
BITMAP
7600
2140
2600
2180
7540
ENDCHAR
STARTCHAR Gamma
ENCODING 915
SWIDTH 569 0
DWIDTH 5 0
BBX 5 5 0 0
BITMAP
BB40
2040
2000
2000
B400
ENDCHAR
STARTCHAR Delta
ENCODING 916
SWIDTH 667 0
DWIDTH 5 0
BBX 5 5 0 0
BITMAP
0800
1600
1200
5140
AAC0
ENDCHAR
STARTCHAR Epsilon
ENCODING 917
SWIDTH 626 0
DWIDTH 5 0
BBX 5 5 0 0
BITMAP
7540
2100
2600
2000
7580
ENDCHAR
STARTCHAR Zeta
ENCODING 918
SWIDTH 594 0
DWIDTH 5 0
BBX 5 5 0 0
BITMAP
5740
0600
0800
2000
A640
ENDCHAR
STARTCHAR Eta
ENCODING 919
SWIDTH 777 0
DWIDTH 6 0
BBX 6 5 0 0
BITMAP
7090
2080
2580
2080
7090
ENDCHAR
STARTCHAR Theta
ENCODING 920
SWIDTH 738 0
DWIDTH 6 0
BBX 6 5 0 0
BITMAP
2A80
6590
9E50
6090
2A80
ENDCHAR
STARTCHAR Iota
ENCODING 921
SWIDTH 357 0
DWIDTH 3 0
BBX 2 5 0 0
BITMAP
70
20
20
20
70
ENDCHAR
STARTCHAR Kappa
ENCODING 922
SWIDTH 702 0
DWIDTH 6 0
BBX 5 5 0 0
BITMAP
7180
2500
2800
2600
7180
ENDCHAR
STARTCHAR Lambda
ENCODING 923
SWIDTH 710 0
DWIDTH 6 0
BBX 6 5 0 0
BITMAP
0900
0600
1240
1080
E1E0
ENDCHAR
STARTCHAR Mu
ENCODING 924
SWIDTH 895 0
DWIDTH 7 0
BBX 7 5 0 0
BITMAP
7034
2860
1860
1620
6224
ENDCHAR
STARTCHAR Nu
ENCODING 925
SWIDTH 742 0
DWIDTH 6 0
BBX 6 5 0 0
BITMAP
7090
2840
1640
1280
6080
ENDCHAR
STARTCHAR Xi
ENCODING 926
SWIDTH 648 0
DWIDTH 5 0
BBX 5 5 0 0
BITMAP
6A80
1100
2A00
0000
AA80
ENDCHAR
STARTCHAR Omicron
ENCODING 927
SWIDTH 738 0
DWIDTH 6 0
BBX 6 5 0 0
BITMAP
1580
5090
9050
5090
1540
ENDCHAR
STARTCHAR Pi
ENCODING 928
SWIDTH 759 0
DWIDTH 6 0
BBX 6 5 0 0
BITMAP
BAE0
2080
2080
2080
B5E0
ENDCHAR
STARTCHAR Rho
ENCODING 929
SWIDTH 569 0
DWIDTH 5 0
BBX 5 5 0 0
BITMAP
7600
2240
2500
2000
7000
ENDCHAR
STARTCHAR Sigma
ENCODING 931
SWIDTH 604 0
DWIDTH 5 0
BBX 5 5 0 0
BITMAP
BB40
2040
0800
1040
AA40
ENDCHAR
STARTCHAR Tau
ENCODING 932
SWIDTH 603 0
DWIDTH 5 0
BBX 5 5 0 0
BITMAP
9980
0800
0800
0800
1C00
ENDCHAR
STARTCHAR Upsilon
ENCODING 933
SWIDTH 647 0
DWIDTH 5 0
BBX 5 5 0 0
BITMAP
A180
2500
0900
0800
0D00
ENDCHAR
STARTCHAR Phi
ENCODING 934
SWIDTH 718 0
DWIDTH 6 0
BBX 6 5 0 0
BITMAP
1F40
9990
9950
1940
1F00
ENDCHAR
STARTCHAR Chi
ENCODING 935
SWIDTH 664 0
DWIDTH 5 0
BBX 5 5 0 0
BITMAP
7180
1500
0D00
1600
5280
ENDCHAR
STARTCHAR Psi
ENCODING 936
SWIDTH 720 0
DWIDTH 6 0
BBX 6 5 0 0
BITMAP
9F60
5590
5590
2E40
1F00
ENDCHAR
STARTCHAR Omega
ENCODING 937
SWIDTH 777 0
DWIDTH 6 0
BBX 6 5 0 0
BITMAP
1A80
6090
6060
2090
69A0
ENDCHAR
STARTCHAR Iotadieresis
ENCODING 938
SWIDTH 357 0
DWIDTH 3 0
BBX 3 7 0 0
BITMAP
88
00
70
20
20
20
70
ENDCHAR
STARTCHAR Upsilondieresis
ENCODING 939
SWIDTH 647 0
DWIDTH 5 0
BBX 5 7 0 0
BITMAP
1200
0000
A180
2500
0900
0800
0D00
ENDCHAR
STARTCHAR alphatonos
ENCODING 940
SWIDTH 561 0
DWIDTH 4 0
BBX 4 6 0 0
BITMAP
08
00
2A
45
45
66
ENDCHAR
STARTCHAR epsilontonos
ENCODING 941
SWIDTH 381 0
DWIDTH 3 0
BBX 3 6 0 0
BITMAP
14
00
68
50
40
68
ENDCHAR
STARTCHAR etatonos
ENCODING 942
SWIDTH 510 0
DWIDTH 4 0
BBX 4 8 0 -2
BITMAP
08
00
99
21
11
51
02
05
ENDCHAR
STARTCHAR iotatonos
ENCODING 943
SWIDTH 259 0
DWIDTH 2 0
BBX 2 6 0 0
BITMAP
10
00
50
40
40
60
ENDCHAR
STARTCHAR upsilondieresistonos
ENCODING 944
SWIDTH 491 0
DWIDTH 4 0
BBX 4 5 0 0
BITMAP
64
94
51
41
28
ENDCHAR
STARTCHAR alpha
ENCODING 945
SWIDTH 561 0
DWIDTH 4 0
BBX 4 4 0 0
BITMAP
2A
45
45
66
ENDCHAR
STARTCHAR beta
ENCODING 946
SWIDTH 530 0
DWIDTH 4 0
BBX 4 8 0 -2
BITMAP
19
11
58
41
52
99
80
40
ENDCHAR
STARTCHAR gamma
ENCODING 947
SWIDTH 466 0
DWIDTH 4 0
BBX 4 6 0 -2
BITMAP
95
18
14
10
20
20
ENDCHAR
STARTCHAR delta
ENCODING 948
SWIDTH 479 0
DWIDTH 4 0
BBX 4 6 0 0
BITMAP
28
10
28
45
41
68
ENDCHAR
STARTCHAR epsilon
ENCODING 949
SWIDTH 381 0
DWIDTH 3 0
BBX 3 4 0 0
BITMAP
68
50
40
68
ENDCHAR
STARTCHAR zeta
ENCODING 950
SWIDTH 386 0
DWIDTH 3 0
BBX 4 8 0 -3
BITMAP
29
24
50
40
40
68
04
14
ENDCHAR
STARTCHAR eta
ENCODING 951
SWIDTH 510 0
DWIDTH 4 0
BBX 4 6 0 -2
BITMAP
99
21
11
51
02
05
ENDCHAR
STARTCHAR theta
ENCODING 952
SWIDTH 514 0
DWIDTH 4 0
BBX 4 6 0 0
BITMAP
28
41
AA
41
41
28
ENDCHAR
STARTCHAR iota
ENCODING 953
SWIDTH 259 0
DWIDTH 2 0
BBX 2 4 0 0
BITMAP
50
40
40
60
ENDCHAR
STARTCHAR kappa
ENCODING 954
SWIDTH 495 0
DWIDTH 4 0
BBX 4 4 0 0
BITMAP
96
24
24
59
ENDCHAR
STARTCHAR lambda
ENCODING 955
SWIDTH 506 0
DWIDTH 4 0
BBX 4 6 0 0
BITMAP
20
04
04
24
58
86
ENDCHAR
STARTCHAR mu
ENCODING 956
SWIDTH 552 0
DWIDTH 4 0
BBX 4 6 0 -2
BITMAP
52
41
45
66
80
40
ENDCHAR
STARTCHAR nu
ENCODING 957
SWIDTH 453 0
DWIDTH 4 0
BBX 4 4 0 0
BITMAP
95
15
18
24
ENDCHAR
STARTCHAR xi
ENCODING 958
SWIDTH 390 0
DWIDTH 3 0
BBX 3 7 0 -2
BITMAP
28
50
24
40
64
04
18
ENDCHAR
STARTCHAR omicron
ENCODING 959
SWIDTH 475 0
DWIDTH 4 0
BBX 4 4 0 0
BITMAP
28
41
41
68
ENDCHAR
STARTCHAR pi
ENCODING 960
SWIDTH 591 0
DWIDTH 5 0
BBX 5 4 0 0
BITMAP
6B40
1100
1100
5240
ENDCHAR
STARTCHAR rho
ENCODING 961
SWIDTH 515 0
DWIDTH 4 0
BBX 4 6 0 -2
BITMAP
29
51
51
69
80
40
ENDCHAR
STARTCHAR uni03C2
ENCODING 962
SWIDTH 377 0
DWIDTH 3 0
BBX 3 6 0 -2
BITMAP
68
40
40
64
04
24
ENDCHAR
STARTCHAR sigma
ENCODING 963
SWIDTH 545 0
DWIDTH 4 0
BBX 5 4 0 0
BITMAP
2A40
4100
4100
6800
ENDCHAR
STARTCHAR tau
ENCODING 964
SWIDTH 392 0
DWIDTH 3 0
BBX 3 4 0 0
BITMAP
B8
10
20
24
ENDCHAR
STARTCHAR upsilon
ENCODING 965
SWIDTH 491 0
DWIDTH 4 0
BBX 4 4 0 0
BITMAP
94
51
41
28
ENDCHAR
STARTCHAR phi
ENCODING 966
SWIDTH 603 0
DWIDTH 5 0
BBX 5 6 0 -2
BITMAP
6640
4440
4440
2A00
0800
0400
ENDCHAR
STARTCHAR chi
ENCODING 967
SWIDTH 462 0
DWIDTH 4 0
BBX 4 6 0 -2
BITMAP
96
18
14
24
94
89
ENDCHAR
STARTCHAR psi
ENCODING 968
SWIDTH 620 0
DWIDTH 5 0
BBX 5 8 0 -2
BITMAP
0800
0800
9540
5480
4540
2E00
0800
0400
ENDCHAR
STARTCHAR omega
ENCODING 969
SWIDTH 660 0
DWIDTH 5 0
BBX 5 4 0 0
BITMAP
2040
4880
4480
6680
ENDCHAR
STARTCHAR iotadieresis
ENCODING 970
SWIDTH 259 0
DWIDTH 2 0
BBX 2 5 0 0
BITMAP
50
50
40
40
60
ENDCHAR
STARTCHAR upsilondieresis
ENCODING 971
SWIDTH 491 0
DWIDTH 4 0
BBX 4 5 0 0
BITMAP
54
94
51
41
28
ENDCHAR
STARTCHAR omicrontonos
ENCODING 972
SWIDTH 475 0
DWIDTH 4 0
BBX 4 6 0 0
BITMAP
08
00
28
41
41
68
ENDCHAR
STARTCHAR upsilontonos
ENCODING 973
SWIDTH 491 0
DWIDTH 4 0
BBX 4 6 0 0
BITMAP
14
00
94
51
41
28
ENDCHAR
STARTCHAR omegatonos
ENCODING 974
SWIDTH 660 0
DWIDTH 5 0
BBX 5 6 0 0
BITMAP
0400
0000
2040
4880
4480
6680
ENDCHAR
STARTCHAR uni03D0
ENCODING 976
SWIDTH 438 0
DWIDTH 4 0
BBX 4 6 0 0
BITMAP
18
11
58
A8
51
28
ENDCHAR
STARTCHAR uni03D1
ENCODING 977
SWIDTH 541 0
DWIDTH 4 0
BBX 4 6 0 0
BITMAP
28
11
11
6A
21
29
ENDCHAR
STARTCHAR uni03D2
ENCODING 978
SWIDTH 616 0
DWIDTH 5 0
BBX 5 5 0 0
BITMAP
7280
1940
0800
0800
2D00
ENDCHAR
STARTCHAR uni03D5
ENCODING 981
SWIDTH 575 0
DWIDTH 5 0
BBX 5 8 0 -2
BITMAP
0400
0800
1D00
5900
4840
6A00
1800
1400
ENDCHAR
STARTCHAR uni03D6
ENCODING 982
SWIDTH 821 0
DWIDTH 7 0
BBX 7 4 0 0
BITMAP
BAB4
1210
1220
1990
ENDCHAR
STARTCHAR uni03D8
ENCODING 984
SWIDTH 627 0
DWIDTH 5 0
BBX 5 5 0 0
BITMAP
2A00
9180
9180
1500
1D00
ENDCHAR
STARTCHAR uni03D9
ENCODING 985
SWIDTH 475 0
DWIDTH 4 0
BBX 4 6 0 -2
BITMAP
28
41
41
68
10
10
ENDCHAR
STARTCHAR uni03DA
ENCODING 986
SWIDTH 578 0
DWIDTH 5 0
BBX 5 5 0 0
BITMAP
2B40
9140
9000
2900
0A00
ENDCHAR
STARTCHAR uni03DB
ENCODING 987
SWIDTH 490 0
DWIDTH 4 0
BBX 4 6 0 -2
BITMAP
2A
40
40
64
04
24
ENDCHAR
STARTCHAR uni03DC
ENCODING 988
SWIDTH 588 0
DWIDTH 5 0
BBX 5 5 0 0
BITMAP
7540
2100
2600
2000
7000
ENDCHAR
STARTCHAR uni03DD
ENCODING 989
SWIDTH 386 0
DWIDTH 3 0
BBX 4 6 -1 -2
BITMAP
1A
14
19
10
10
90
ENDCHAR
STARTCHAR uni03DE
ENCODING 990
SWIDTH 525 0
DWIDTH 4 0
BBX 4 5 0 0
BITMAP
38
10
AA
04
1D
ENDCHAR
STARTCHAR uni03DF
ENCODING 991
SWIDTH 434 0
DWIDTH 3 0
BBX 4 5 0 0
BITMAP
80
40
68
04
09
ENDCHAR
STARTCHAR uni03E0
ENCODING 992
SWIDTH 697 0
DWIDTH 6 0
BBX 6 5 0 0
BITMAP
0800
0A00
1700
1580
55D0
ENDCHAR
STARTCHAR uni03E1
ENCODING 993
SWIDTH 458 0
DWIDTH 4 0
BBX 4 7 0 -2
BITMAP
90
20
18
44
29
01
04
ENDCHAR
STARTCHAR uni03F0
ENCODING 1008
SWIDTH 504 0
DWIDTH 4 0
BBX 4 4 0 0
BITMAP
92
18
28
56
ENDCHAR
STARTCHAR uni03F1
ENCODING 1009
SWIDTH 467 0
DWIDTH 4 0
BBX 4 6 0 -2
BITMAP
28
41
81
68
14
24
ENDCHAR
STARTCHAR uni03F4
ENCODING 1012
SWIDTH 737 0
DWIDTH 6 0
BBX 6 5 0 0
BITMAP
2A80
5090
AAD0
5090
2A40
ENDCHAR
STARTCHAR uni03F5
ENCODING 1013
SWIDTH 380 0
DWIDTH 3 0
BBX 3 4 0 0
BITMAP
68
A4
40
68
ENDCHAR
STARTCHAR uni03F6
ENCODING 1014
SWIDTH 382 0
DWIDTH 3 0
BBX 3 4 0 0
BITMAP
64
68
08
A4
ENDCHAR
STARTCHAR uni0400
ENCODING 1024
SWIDTH 626 0
DWIDTH 5 0
BBX 5 7 0 0
BITMAP
0800
0000
7540
2100
2600
2000
7580
ENDCHAR
STARTCHAR uni0401
ENCODING 1025
SWIDTH 626 0
DWIDTH 5 0
BBX 5 7 0 0
BITMAP
2200
0000
7540
2100
2600
2000
7580
ENDCHAR
STARTCHAR uni0402
ENCODING 1026
SWIDTH 731 0
DWIDTH 6 0
BBX 6 5 0 0
BITMAP
9980
0800
0980
0860
1950
ENDCHAR
STARTCHAR uni0403
ENCODING 1027
SWIDTH 548 0
DWIDTH 4 0
BBX 5 7 0 0
BITMAP
0800
0000
7640
2000
2000
2000
7400
ENDCHAR
STARTCHAR uni0404
ENCODING 1028
SWIDTH 668 0
DWIDTH 5 0
BBX 5 5 0 0
BITMAP
2580
5040
A500
5000
2940
ENDCHAR
STARTCHAR uni0405
ENCODING 1029
SWIDTH 504 0
DWIDTH 4 0
BBX 4 5 0 0
BITMAP
59
51
28
46
95
ENDCHAR
STARTCHAR uni0406
ENCODING 1030
SWIDTH 357 0
DWIDTH 3 0
BBX 2 5 0 0
BITMAP
70
20
20
20
70
ENDCHAR
STARTCHAR uni0407
ENCODING 1031
SWIDTH 357 0
DWIDTH 3 0
BBX 3 7 0 0
BITMAP
88
00
70
20
20
20
70
ENDCHAR
STARTCHAR uni0408
ENCODING 1032
SWIDTH 396 0
DWIDTH 3 0
BBX 3 5 0 0
BITMAP
28
14
14
14
A0
ENDCHAR
STARTCHAR uni0409
ENCODING 1033
SWIDTH 924 0
DWIDTH 7 0
BBX 7 5 0 0
BITMAP
1A80
1540
1194
1148
9298
ENDCHAR
STARTCHAR uni040A
ENCODING 1034
SWIDTH 1013 0
DWIDTH 8 0
BBX 8 5 0 0
BITMAP
7090
2080
2595
2082
7095
ENDCHAR
STARTCHAR uni040B
ENCODING 1035
SWIDTH 761 0
DWIDTH 6 0
BBX 6 5 0 0
BITMAP
9980
0800
0980
0850
1CA0
ENDCHAR
STARTCHAR uni040C
ENCODING 1036
SWIDTH 658 0
DWIDTH 5 0
BBX 5 7 0 0
BITMAP
0500
0000
7180
2100
2500
2200
7180
ENDCHAR
STARTCHAR uni040D
ENCODING 1037
SWIDTH 780 0
DWIDTH 6 0
BBX 6 7 0 0
BITMAP
0800
0000
7090
2190
2190
2490
7090
ENDCHAR
STARTCHAR uni040E
ENCODING 1038
SWIDTH 625 0
DWIDTH 5 0
BBX 5 8 0 0
BITMAP
1100
1500
0000
A180
2100
1900
0800
6400
ENDCHAR
STARTCHAR uni040F
ENCODING 1039
SWIDTH 759 0
DWIDTH 6 0
BBX 6 7 0 -2
BITMAP
70D0
2080
2080
2080
7590
0500
0500
ENDCHAR
STARTCHAR uni0410
ENCODING 1040
SWIDTH 718 0
DWIDTH 6 0
BBX 6 5 0 0
BITMAP
0900
0A00
1200
2680
90D0
ENDCHAR
STARTCHAR uni0411
ENCODING 1041
SWIDTH 617 0
DWIDTH 5 0
BBX 5 5 0 0
BITMAP
3640
2000
2500
2180
7640
ENDCHAR
STARTCHAR uni0412
ENCODING 1042
SWIDTH 618 0
DWIDTH 5 0
BBX 5 5 0 0
BITMAP
7600
2140
2600
2180
7540
ENDCHAR
STARTCHAR uni0413
ENCODING 1043
SWIDTH 548 0
DWIDTH 4 0
BBX 5 5 0 0
BITMAP
7640
2000
2000
2000
7400
ENDCHAR
STARTCHAR uni0414
ENCODING 1044
SWIDTH 663 0
DWIDTH 5 0
BBX 5 7 0 -2
BITMAP
2640
1240
1240
1240
9680
8080
4040
ENDCHAR
STARTCHAR uni0415
ENCODING 1045
SWIDTH 626 0
DWIDTH 5 0
BBX 5 5 0 0
BITMAP
7540
2100
2600
2000
7580
ENDCHAR
STARTCHAR uni0416
ENCODING 1046
SWIDTH 937 0
DWIDTH 8 0
BBX 8 5 0 0
BITMAP
9249
1210
0A60
2620
6248
ENDCHAR
STARTCHAR uni0417
ENCODING 1047
SWIDTH 545 0
DWIDTH 4 0
BBX 4 5 0 0
BITMAP
55
42
19
02
5A
ENDCHAR
STARTCHAR uni0418
ENCODING 1048
SWIDTH 780 0
DWIDTH 6 0
BBX 6 5 0 0
BITMAP
7090
2190
2190
2490
7090
ENDCHAR
STARTCHAR uni0419
ENCODING 1049
SWIDTH 780 0
DWIDTH 6 0
BBX 6 7 0 0
BITMAP
0540
0500
7090
2190
2190
2490
7090
ENDCHAR
STARTCHAR uni041A
ENCODING 1050
SWIDTH 658 0
DWIDTH 5 0
BBX 5 5 0 0
BITMAP
7180
2100
2500
2200
7180
ENDCHAR
STARTCHAR uni041B
ENCODING 1051
SWIDTH 684 0
DWIDTH 5 0
BBX 5 5 0 0
BITMAP
1A80
1540
1140
1140
9280
ENDCHAR
STARTCHAR uni041C
ENCODING 1052
SWIDTH 895 0
DWIDTH 7 0
BBX 7 5 0 0
BITMAP
7034
2860
1860
1620
6224
ENDCHAR
STARTCHAR uni041D
ENCODING 1053
SWIDTH 777 0
DWIDTH 6 0
BBX 6 5 0 0
BITMAP
7090
2080
2580
2080
7090
ENDCHAR
STARTCHAR uni041E
ENCODING 1054
SWIDTH 738 0
DWIDTH 6 0
BBX 6 5 0 0
BITMAP
1580
5090
9050
5090
1540
ENDCHAR
STARTCHAR uni041F
ENCODING 1055
SWIDTH 759 0
DWIDTH 6 0
BBX 6 5 0 0
BITMAP
BAE0
2080
2080
2080
B5E0
ENDCHAR
STARTCHAR uni0420
ENCODING 1056
SWIDTH 569 0
DWIDTH 5 0
BBX 5 5 0 0
BITMAP
7600
2240
2500
2000
7000
ENDCHAR
STARTCHAR uni0421
ENCODING 1057
SWIDTH 670 0
DWIDTH 5 0
BBX 5 5 0 0
BITMAP
2580
5040
9000
5000
2940
ENDCHAR
STARTCHAR uni0422
ENCODING 1058
SWIDTH 603 0
DWIDTH 5 0
BBX 5 5 0 0
BITMAP
9980
0800
0800
0800
1C00
ENDCHAR
STARTCHAR uni0423
ENCODING 1059
SWIDTH 625 0
DWIDTH 5 0
BBX 5 5 0 0
BITMAP
A180
2100
1900
0800
6400
ENDCHAR
STARTCHAR uni0424
ENCODING 1060
SWIDTH 725 0
DWIDTH 6 0
BBX 6 5 0 0
BITMAP
1A00
5590
8550
6980
0A00
ENDCHAR
STARTCHAR uni0425
ENCODING 1061
SWIDTH 664 0
DWIDTH 5 0
BBX 5 5 0 0
BITMAP
7180
1500
0D00
1600
5280
ENDCHAR
STARTCHAR uni0426
ENCODING 1062
SWIDTH 756 0
DWIDTH 6 0
BBX 6 7 0 -2
BITMAP
70D0
2080
2080
2080
7590
0020
0010
ENDCHAR
STARTCHAR uni0427
ENCODING 1063
SWIDTH 650 0
DWIDTH 5 0
BBX 5 5 0 0
BITMAP
A240
5200
2600
0200
0240
ENDCHAR
STARTCHAR uni0428
ENCODING 1064
SWIDTH 1053 0
DWIDTH 8 0
BBX 8 5 0 0
BITMAP
718A
2085
2085
2085
759A
ENDCHAR
STARTCHAR uni0429
ENCODING 1065
SWIDTH 1044 0
DWIDTH 8 0
BBX 8 7 0 -2
BITMAP
718A
2185
2185
2185
759A
0002
0001
ENDCHAR
STARTCHAR uni042A
ENCODING 1066
SWIDTH 723 0
DWIDTH 6 0
BBX 6 5 0 0
BITMAP
9C00
0800
0940
0850
1D90
ENDCHAR
STARTCHAR uni042B
ENCODING 1067
SWIDTH 887 0
DWIDTH 7 0
BBX 7 5 0 0
BITMAP
7034
2020
2520
2160
7674
ENDCHAR
STARTCHAR uni042C
ENCODING 1068
SWIDTH 606 0
DWIDTH 5 0
BBX 5 5 0 0
BITMAP
7000
2000
2500
2180
7640
ENDCHAR
STARTCHAR uni042D
ENCODING 1069
SWIDTH 667 0
DWIDTH 5 0
BBX 5 5 0 0
BITMAP
5640
4080
15C0
0080
5A00
ENDCHAR
STARTCHAR uni042E
ENCODING 1070
SWIDTH 1042 0
DWIDTH 8 0
BBX 8 5 0 0
BITMAP
7498
2202
2602
2202
7054
ENDCHAR
STARTCHAR uni042F
ENCODING 1071
SWIDTH 654 0
DWIDTH 5 0
BBX 5 5 0 0
BITMAP
2640
2240
1A40
2240
6240
ENDCHAR
STARTCHAR uni0430
ENCODING 1072
SWIDTH 480 0
DWIDTH 4 0
BBX 4 4 0 0
BITMAP
58
08
58
69
ENDCHAR
STARTCHAR uni0431
ENCODING 1073
SWIDTH 520 0
DWIDTH 4 0
BBX 4 6 0 0
BITMAP
05
64
55
82
82
15
ENDCHAR
STARTCHAR uni0432
ENCODING 1074
SWIDTH 505 0
DWIDTH 4 0
BBX 4 4 0 0
BITMAP
65
62
69
66
ENDCHAR
STARTCHAR uni0433
ENCODING 1075
SWIDTH 429 0
DWIDTH 3 0
BBX 4 4 0 0
BITMAP
65
50
50
60
ENDCHAR
STARTCHAR uni0434
ENCODING 1076
SWIDTH 530 0
DWIDTH 4 0
BBX 4 5 0 -1
BITMAP
26
15
15
96
82
ENDCHAR
STARTCHAR uni0435
ENCODING 1077
SWIDTH 464 0
DWIDTH 4 0
BBX 4 4 0 0
BITMAP
58
95
80
68
ENDCHAR
STARTCHAR uni0436
ENCODING 1078
SWIDTH 754 0
DWIDTH 6 0
BBX 6 4 0 0
BITMAP
9660
1540
1A80
5550
ENDCHAR
STARTCHAR uni0437
ENCODING 1079
SWIDTH 435 0
DWIDTH 3 0
BBX 3 4 0 0
BITMAP
58
18
08
58
ENDCHAR
STARTCHAR uni0438
ENCODING 1080
SWIDTH 609 0
DWIDTH 5 0
BBX 5 4 0 0
BITMAP
6240
5600
6600
6240
ENDCHAR
STARTCHAR uni0439
ENCODING 1081
SWIDTH 609 0
DWIDTH 5 0
BBX 5 6 0 0
BITMAP
1100
1500
6240
5600
6600
6240
ENDCHAR
STARTCHAR uni043A
ENCODING 1082
SWIDTH 521 0
DWIDTH 4 0
BBX 4 4 0 0
BITMAP
62
54
68
66
ENDCHAR
STARTCHAR uni043B
ENCODING 1083
SWIDTH 553 0
DWIDTH 4 0
BBX 4 4 0 0
BITMAP
26
12
12
96
ENDCHAR
STARTCHAR uni043C
ENCODING 1084
SWIDTH 697 0
DWIDTH 6 0
BBX 5 4 0 0
BITMAP
61C0
6580
5980
5880
ENDCHAR
STARTCHAR uni043D
ENCODING 1085
SWIDTH 605 0
DWIDTH 5 0
BBX 5 4 0 0
BITMAP
6240
6600
5200
6240
ENDCHAR
STARTCHAR uni043E
ENCODING 1086
SWIDTH 514 0
DWIDTH 4 0
BBX 4 4 0 0
BITMAP
55
82
82
55
ENDCHAR
STARTCHAR uni043F
ENCODING 1087
SWIDTH 591 0
DWIDTH 5 0
BBX 4 4 0 0
BITMAP
66
52
52
62
ENDCHAR
STARTCHAR uni0440
ENCODING 1088
SWIDTH 537 0
DWIDTH 4 0
BBX 4 6 0 -2
BITMAP
6A
52
52
65
50
60
ENDCHAR
STARTCHAR uni0441
ENCODING 1089
SWIDTH 446 0
DWIDTH 4 0
BBX 3 4 0 0
BITMAP
58
80
80
68
ENDCHAR
STARTCHAR uni0442
ENCODING 1090
SWIDTH 456 0
DWIDTH 4 0
BBX 4 4 0 0
BITMAP
A5
20
20
24
ENDCHAR
STARTCHAR uni0443
ENCODING 1091
SWIDTH 483 0
DWIDTH 4 0
BBX 4 6 0 -2
BITMAP
92
64
24
14
10
90
ENDCHAR
STARTCHAR uni0444
ENCODING 1092
SWIDTH 710 0
DWIDTH 6 0
BBX 6 8 0 -2
BITMAP
0400
0800
5980
8450
8450
5980
0400
0900
ENDCHAR
STARTCHAR uni0445
ENCODING 1093
SWIDTH 479 0
DWIDTH 4 0
BBX 4 4 0 0
BITMAP
65
24
18
99
ENDCHAR
STARTCHAR uni0446
ENCODING 1094
SWIDTH 590 0
DWIDTH 5 0
BBX 5 6 0 -2
BITMAP
6200
5200
5200
6600
0040
0040
ENDCHAR
STARTCHAR uni0447
ENCODING 1095
SWIDTH 535 0
DWIDTH 4 0
BBX 4 4 0 0
BITMAP
96
55
15
06
ENDCHAR
STARTCHAR uni0448
ENCODING 1096
SWIDTH 812 0
DWIDTH 7 0
BBX 6 4 0 0
BITMAP
6620
5220
5220
6660
ENDCHAR
STARTCHAR uni0449
ENCODING 1097
SWIDTH 814 0
DWIDTH 7 0
BBX 7 6 0 -2
BITMAP
6620
5220
5220
6660
0014
0004
ENDCHAR
STARTCHAR uni044A
ENCODING 1098
SWIDTH 568 0
DWIDTH 5 0
BBX 5 4 0 0
BITMAP
A400
2500
2140
2600
ENDCHAR
STARTCHAR uni044B
ENCODING 1099
SWIDTH 728 0
DWIDTH 6 0
BBX 6 4 0 0
BITMAP
6090
6480
5680
6590
ENDCHAR
STARTCHAR uni044C
ENCODING 1100
SWIDTH 489 0
DWIDTH 4 0
BBX 4 4 0 0
BITMAP
60
64
52
65
ENDCHAR
STARTCHAR uni044D
ENCODING 1101
SWIDTH 467 0
DWIDTH 4 0
BBX 4 4 0 0
BITMAP
54
19
05
58
ENDCHAR
STARTCHAR uni044E
ENCODING 1102
SWIDTH 774 0
DWIDTH 6 0
BBX 6 4 0 0
BITMAP
6650
6920
5520
6150
ENDCHAR
STARTCHAR uni044F
ENCODING 1103
SWIDTH 518 0
DWIDTH 4 0
BBX 4 4 0 0
BITMAP
55
55
29
66
ENDCHAR
STARTCHAR uni0450
ENCODING 1104
SWIDTH 464 0
DWIDTH 4 0
BBX 4 6 0 0
BITMAP
10
14
58
95
80
68
ENDCHAR
STARTCHAR uni0451
ENCODING 1105
SWIDTH 464 0
DWIDTH 4 0
BBX 4 6 0 0
BITMAP
54
00
58
95
80
68
ENDCHAR
STARTCHAR uni0452
ENCODING 1106
SWIDTH 563 0
DWIDTH 5 0
BBX 4 8 0 -2
BITMAP
50
64
66
52
52
62
02
15
ENDCHAR
STARTCHAR uni0453
ENCODING 1107
SWIDTH 429 0
DWIDTH 3 0
BBX 4 6 0 0
BITMAP
04
10
65
50
50
60
ENDCHAR
STARTCHAR uni0454
ENCODING 1108
SWIDTH 460 0
DWIDTH 4 0
BBX 4 4 0 0
BITMAP
59
94
80
64
ENDCHAR
STARTCHAR uni0455
ENCODING 1109
SWIDTH 394 0
DWIDTH 3 0
BBX 3 4 0 0
BITMAP
54
60
18
58
ENDCHAR
STARTCHAR uni0456
ENCODING 1110
SWIDTH 285 0
DWIDTH 2 0
BBX 2 5 0 0
BITMAP
10
50
50
50
60
ENDCHAR
STARTCHAR uni0457
ENCODING 1111
SWIDTH 285 0
DWIDTH 2 0
BBX 2 5 0 0
BITMAP
50
50
50
50
60
ENDCHAR
STARTCHAR uni0458
ENCODING 1112
SWIDTH 263 0
DWIDTH 2 0
BBX 3 7 -1 -2
BITMAP
14
14
14
14
14
14
90
ENDCHAR
STARTCHAR uni0459
ENCODING 1113
SWIDTH 742 0
DWIDTH 6 0
BBX 6 4 0 0
BITMAP
2600
1250
1220
9650
ENDCHAR
STARTCHAR uni045A
ENCODING 1114
SWIDTH 790 0
DWIDTH 6 0
BBX 6 4 0 0
BITMAP
6200
6650
5220
6260
ENDCHAR
STARTCHAR uni045B
ENCODING 1115
SWIDTH 579 0
DWIDTH 5 0
BBX 4 6 0 0
BITMAP
50
64
6A
52
52
62
ENDCHAR
STARTCHAR uni045C
ENCODING 1116
SWIDTH 521 0
DWIDTH 4 0
BBX 4 6 0 0
BITMAP
04
14
62
54
68
66
ENDCHAR
STARTCHAR uni045D
ENCODING 1117
SWIDTH 609 0
DWIDTH 5 0
BBX 5 6 0 0
BITMAP
1000
0400
6240
5600
6600
6240
ENDCHAR
STARTCHAR uni045E
ENCODING 1118
SWIDTH 483 0
DWIDTH 4 0
BBX 4 8 0 -2
BITMAP
14
14
92
64
24
14
10
90
ENDCHAR
STARTCHAR uni045F
ENCODING 1119
SWIDTH 587 0
DWIDTH 5 0
BBX 4 6 0 -2
BITMAP
62
52
52
66
08
04
ENDCHAR
STARTCHAR uni0462
ENCODING 1122
SWIDTH 727 0
DWIDTH 6 0
BBX 6 6 0 0
BITMAP
1800
5980
4840
0940
0850
1980
ENDCHAR
STARTCHAR uni0463
ENCODING 1123
SWIDTH 561 0
DWIDTH 4 0
BBX 5 6 0 0
BITMAP
2000
2000
A500
2600
2140
2600
ENDCHAR
STARTCHAR uni046A
ENCODING 1130
SWIDTH 881 0
DWIDTH 7 0
BBX 7 5 0 0
BITMAP
1950
0940
0740
2220
6318
ENDCHAR
STARTCHAR uni046B
ENCODING 1131
SWIDTH 667 0
DWIDTH 5 0
BBX 5 4 0 0
BITMAP
2600
1900
2A40
9980
ENDCHAR
STARTCHAR uni0472
ENCODING 1138
SWIDTH 737 0
DWIDTH 6 0
BBX 6 5 0 0
BITMAP
2540
6850
9690
5090
2540
ENDCHAR
STARTCHAR uni0473
ENCODING 1139
SWIDTH 514 0
DWIDTH 4 0
BBX 4 4 0 0
BITMAP
55
92
86
55
ENDCHAR
STARTCHAR uni0474
ENCODING 1140
SWIDTH 705 0
DWIDTH 6 0
BBX 6 5 0 0
BITMAP
A0A0
2040
2500
0900
0800
ENDCHAR
STARTCHAR uni0475
ENCODING 1141
SWIDTH 520 0
DWIDTH 4 0
BBX 5 4 0 0
BITMAP
9240
5400
2400
1400
ENDCHAR
STARTCHAR uni0490
ENCODING 1168
SWIDTH 525 0
DWIDTH 4 0
BBX 4 6 0 0
BITMAP
01
75
20
20
20
74
ENDCHAR
STARTCHAR uni0491
ENCODING 1169
SWIDTH 404 0
DWIDTH 3 0
BBX 4 5 0 0
BITMAP
05
64
50
50
60
ENDCHAR
STARTCHAR uni1D00
ENCODING 7424
SWIDTH 511 0
DWIDTH 4 0
BBX 4 4 0 0
BITMAP
14
18
59
86
ENDCHAR
STARTCHAR uni1D07
ENCODING 7431
SWIDTH 495 0
DWIDTH 4 0
BBX 4 4 0 0
BITMAP
65
54
50
65
ENDCHAR
STARTCHAR uni1D1C
ENCODING 7452
SWIDTH 584 0
DWIDTH 5 0
BBX 4 4 0 0
BITMAP
62
51
51
25
ENDCHAR
STARTCHAR uni1D81
ENCODING 7553
SWIDTH 539 0
DWIDTH 4 0
BBX 4 8 0 -2
BITMAP
06
02
16
82
82
66
01
05
ENDCHAR
STARTCHAR uni1D84
ENCODING 7556
SWIDTH 542 0
DWIDTH 4 0
BBX 5 8 0 -2
BITMAP
5000
5000
5500
6400
6800
6600
0040
0500
ENDCHAR
STARTCHAR uni1D85
ENCODING 7557
SWIDTH 283 0
DWIDTH 2 0
BBX 2 8 0 -2
BITMAP
50
50
50
50
50
60
10
50
ENDCHAR
STARTCHAR uni1D8A
ENCODING 7562
SWIDTH 395 0
DWIDTH 3 0
BBX 3 6 0 -2
BITMAP
54
60
18
58
04
14
ENDCHAR
STARTCHAR uni1D8D
ENCODING 7565
SWIDTH 479 0
DWIDTH 4 0
BBX 4 6 0 -2
BITMAP
65
24
18
99
01
05
ENDCHAR
STARTCHAR uni1D8E
ENCODING 7566
SWIDTH 458 0
DWIDTH 4 0
BBX 4 6 0 -2
BITMAP
59
18
20
A5
01
14
ENDCHAR
STARTCHAR uni1D98
ENCODING 7576
SWIDTH 368 0
DWIDTH 3 0
BBX 4 8 0 -2
BITMAP
05
14
14
14
14
A0
40
50
ENDCHAR
STARTCHAR uni1D9B
ENCODING 7579
SWIDTH 462 0
DWIDTH 4 0
BBX 4 3 0 2
BITMAP
98
45
54
ENDCHAR
STARTCHAR uni1DA3
ENCODING 7587
SWIDTH 488 0
DWIDTH 4 0
BBX 4 4 0 1
BITMAP
55
55
69
05
ENDCHAR
STARTCHAR uni1E00
ENCODING 7680
SWIDTH 718 0
DWIDTH 6 0
BBX 6 7 0 -2
BITMAP
0900
0A00
1200
2680
90D0
0500
0500
ENDCHAR
STARTCHAR uni1E01
ENCODING 7681
SWIDTH 480 0
DWIDTH 4 0
BBX 4 6 0 -2
BITMAP
58
08
58
69
14
14
ENDCHAR
STARTCHAR uni1E02
ENCODING 7682
SWIDTH 618 0
DWIDTH 5 0
BBX 5 7 0 0
BITMAP
0800
0000
7600
2140
2600
2180
7540
ENDCHAR
STARTCHAR uni1E03
ENCODING 7683
SWIDTH 522 0
DWIDTH 4 0
BBX 4 7 0 0
BITMAP
14
90
50
69
52
52
65
ENDCHAR
STARTCHAR uni1E04
ENCODING 7684
SWIDTH 618 0
DWIDTH 5 0
BBX 5 7 0 -2
BITMAP
7600
2140
2600
2180
7540
0000
0800
ENDCHAR
STARTCHAR uni1E05
ENCODING 7685
SWIDTH 522 0
DWIDTH 4 0
BBX 4 8 0 -2
BITMAP
90
50
69
52
52
65
00
14
ENDCHAR
STARTCHAR uni1E06
ENCODING 7686
SWIDTH 618 0
DWIDTH 5 0
BBX 5 6 0 -1
BITMAP
7600
2140
2600
2180
7540
1500
ENDCHAR
STARTCHAR uni1E07
ENCODING 7687
SWIDTH 522 0
DWIDTH 4 0
BBX 4 7 0 -1
BITMAP
90
50
69
52
52
65
14
ENDCHAR
STARTCHAR uni1E08
ENCODING 7688
SWIDTH 670 0
DWIDTH 5 0
BBX 5 9 0 -2
BITMAP
0500
0000
2580
5040
9000
5000
2940
0500
0500
ENDCHAR
STARTCHAR uni1E09
ENCODING 7689
SWIDTH 446 0
DWIDTH 4 0
BBX 3 8 0 -2
BITMAP
04
14
58
80
80
68
14
14
ENDCHAR
STARTCHAR uni1E0A
ENCODING 7690
SWIDTH 730 0
DWIDTH 6 0
BBX 6 7 0 0
BITMAP
0800
0000
7540
2090
2050
2090
7540
ENDCHAR
STARTCHAR uni1E0B
ENCODING 7691
SWIDTH 539 0
DWIDTH 4 0
BBX 4 7 0 0
BITMAP
14
06
02
1A
82
82
66
ENDCHAR
STARTCHAR uni1E0C
ENCODING 7692
SWIDTH 730 0
DWIDTH 6 0
BBX 6 7 0 -2
BITMAP
7540
2090
2050
2090
7540
0000
0800
ENDCHAR
STARTCHAR uni1E0D
ENCODING 7693
SWIDTH 539 0
DWIDTH 4 0
BBX 4 8 0 -2
BITMAP
06
02
1A
82
82
66
00
14
ENDCHAR
STARTCHAR uni1E0E
ENCODING 7694
SWIDTH 730 0
DWIDTH 6 0
BBX 6 6 0 -1
BITMAP
7540
2090
2050
2090
7540
1500
ENDCHAR
STARTCHAR uni1E0F
ENCODING 7695
SWIDTH 539 0
DWIDTH 4 0
BBX 4 7 0 -1
BITMAP
06
02
1A
82
82
66
14
ENDCHAR
STARTCHAR uni1E10
ENCODING 7696
SWIDTH 730 0
DWIDTH 6 0
BBX 6 7 0 -2
BITMAP
7540
2090
2050
2090
7540
0800
0400
ENDCHAR
STARTCHAR uni1E11
ENCODING 7697
SWIDTH 539 0
DWIDTH 4 0
BBX 4 8 0 -2
BITMAP
06
02
1A
82
82
66
18
04
ENDCHAR
STARTCHAR uni1E12
ENCODING 7698
SWIDTH 730 0
DWIDTH 6 0
BBX 6 7 0 -2
BITMAP
7540
2090
2050
2090
7540
0400
1500
ENDCHAR
STARTCHAR uni1E13
ENCODING 7699
SWIDTH 539 0
DWIDTH 4 0
BBX 4 8 0 -2
BITMAP
06
02
1A
82
82
66
04
14
ENDCHAR
STARTCHAR uni1E14
ENCODING 7700
SWIDTH 626 0
DWIDTH 5 0
BBX 5 8 0 0
BITMAP
0800
1500
0000
7540
2100
2600
2000
7580
ENDCHAR
STARTCHAR uni1E15
ENCODING 7701
SWIDTH 464 0
DWIDTH 4 0
BBX 4 7 0 0
BITMAP
10
14
14
58
95
80
68
ENDCHAR
STARTCHAR uni1E16
ENCODING 7702
SWIDTH 626 0
DWIDTH 5 0
BBX 5 8 0 0
BITMAP
0800
1500
0000
7540
2100
2600
2000
7580
ENDCHAR
STARTCHAR uni1E17
ENCODING 7703
SWIDTH 464 0
DWIDTH 4 0
BBX 4 7 0 0
BITMAP
04
14
14
58
95
80
68
ENDCHAR
STARTCHAR uni1E18
ENCODING 7704
SWIDTH 626 0
DWIDTH 5 0
BBX 5 7 0 -2
BITMAP
7540
2100
2600
2000
7580
0400
1500
ENDCHAR
STARTCHAR uni1E19
ENCODING 7705
SWIDTH 464 0
DWIDTH 4 0
BBX 4 6 0 -2
BITMAP
58
95
80
68
14
14
ENDCHAR
STARTCHAR uni1E1A
ENCODING 7706
SWIDTH 626 0
DWIDTH 5 0
BBX 5 7 0 -2
BITMAP
7540
2100
2600
2000
7580
0000
1500
ENDCHAR
STARTCHAR uni1E1B
ENCODING 7707
SWIDTH 464 0
DWIDTH 4 0
BBX 4 6 0 -2
BITMAP
58
95
80
68
00
14
ENDCHAR
STARTCHAR uni1E1C
ENCODING 7708
SWIDTH 626 0
DWIDTH 5 0
BBX 5 10 0 -2
BITMAP
1100
1900
0000
7540
2100
2600
2000
7580
0400
0400
ENDCHAR
STARTCHAR uni1E1D
ENCODING 7709
SWIDTH 464 0
DWIDTH 4 0
BBX 4 8 0 -2
BITMAP
04
24
58
95
80
68
14
14
ENDCHAR
STARTCHAR uni1E1E
ENCODING 7710
SWIDTH 588 0
DWIDTH 5 0
BBX 5 7 0 0
BITMAP
0800
0000
7540
2100
2600
2000
7000
ENDCHAR
STARTCHAR uni1E1F
ENCODING 7711
SWIDTH 307 0
DWIDTH 2 0
BBX 3 7 0 0
BITMAP
10
14
10
60
50
50
60
ENDCHAR
STARTCHAR uni1E20
ENCODING 7712
SWIDTH 720 0
DWIDTH 6 0
BBX 6 7 0 0
BITMAP
0500
0000
2580
5040
9090
5080
2580
ENDCHAR
STARTCHAR uni1E21
ENCODING 7713
SWIDTH 484 0
DWIDTH 4 0
BBX 4 7 0 -2
BITMAP
14
59
95
54
69
41
A5
ENDCHAR
STARTCHAR uni1E22
ENCODING 7714
SWIDTH 777 0
DWIDTH 6 0
BBX 6 7 0 0
BITMAP
0500
0000
7090
2080
2580
2080
7090
ENDCHAR
STARTCHAR uni1E23
ENCODING 7715
SWIDTH 577 0
DWIDTH 5 0
BBX 4 7 0 0
BITMAP
08
50
50
6A
52
52
62
ENDCHAR
STARTCHAR uni1E24
ENCODING 7716
SWIDTH 777 0
DWIDTH 6 0
BBX 6 7 0 -2
BITMAP
7090
2080
2580
2080
7090
0000
0500
ENDCHAR
STARTCHAR uni1E25
ENCODING 7717
SWIDTH 577 0
DWIDTH 5 0
BBX 4 8 0 -2
BITMAP
50
50
6A
52
52
62
00
08
ENDCHAR
STARTCHAR uni1E26
ENCODING 7718
SWIDTH 777 0
DWIDTH 6 0
BBX 6 7 0 0
BITMAP
0540
0000
7090
2080
2580
2080
7090
ENDCHAR
STARTCHAR uni1E27
ENCODING 7719
SWIDTH 577 0
DWIDTH 5 0
BBX 4 7 0 0
BITMAP
21
50
50
6A
52
52
62
ENDCHAR
STARTCHAR uni1E28
ENCODING 7720
SWIDTH 777 0
DWIDTH 6 0
BBX 6 7 0 -2
BITMAP
7090
2080
2580
2080
7090
1000
1000
ENDCHAR
STARTCHAR uni1E29
ENCODING 7721
SWIDTH 577 0
DWIDTH 5 0
BBX 4 8 0 -2
BITMAP
50
50
6A
52
52
62
10
10
ENDCHAR
STARTCHAR uni1E2A
ENCODING 7722
SWIDTH 777 0
DWIDTH 6 0
BBX 6 7 0 -2
BITMAP
7090
2080
2580
2080
7090
0400
0500
ENDCHAR
STARTCHAR uni1E2B
ENCODING 7723
SWIDTH 577 0
DWIDTH 5 0
BBX 4 8 0 -2
BITMAP
50
50
6A
52
52
62
11
18
ENDCHAR
STARTCHAR uni1E2C
ENCODING 7724
SWIDTH 357 0
DWIDTH 3 0
BBX 3 7 0 -2
BITMAP
70
20
20
20
70
00
54
ENDCHAR
STARTCHAR uni1E2D
ENCODING 7725
SWIDTH 285 0
DWIDTH 2 0
BBX 2 7 0 -2
BITMAP
10
50
50
50
60
00
50
ENDCHAR
STARTCHAR uni1E2E
ENCODING 7726
SWIDTH 357 0
DWIDTH 3 0
BBX 3 8 0 0
BITMAP
20
88
00
70
20
20
20
70
ENDCHAR
STARTCHAR uni1E2F
ENCODING 7727
SWIDTH 285 0
DWIDTH 2 0
BBX 2 7 0 0
BITMAP
10
50
50
50
50
50
60
ENDCHAR
STARTCHAR uni1E30
ENCODING 7728
SWIDTH 702 0
DWIDTH 6 0
BBX 5 7 0 0
BITMAP
0500
0000
7180
2500
2800
2600
7180
ENDCHAR
STARTCHAR uni1E31
ENCODING 7729
SWIDTH 542 0
DWIDTH 4 0
BBX 4 7 0 0
BITMAP
14
50
50
55
64
68
66
ENDCHAR
STARTCHAR uni1E32
ENCODING 7730
SWIDTH 702 0
DWIDTH 6 0
BBX 5 7 0 -2
BITMAP
7180
2500
2800
2600
7180
0000
0400
ENDCHAR
STARTCHAR uni1E33
ENCODING 7731
SWIDTH 542 0
DWIDTH 4 0
BBX 4 8 0 -2
BITMAP
50
50
55
64
68
66
00
04
ENDCHAR
STARTCHAR uni1E34
ENCODING 7732
SWIDTH 702 0
DWIDTH 6 0
BBX 5 6 0 -1
BITMAP
7180
2500
2800
2600
7180
0500
ENDCHAR
STARTCHAR uni1E35
ENCODING 7733
SWIDTH 542 0
DWIDTH 4 0
BBX 4 7 0 -1
BITMAP
50
50
55
64
68
66
14
ENDCHAR
STARTCHAR uni1E36
ENCODING 7734
SWIDTH 585 0
DWIDTH 5 0
BBX 5 7 0 -2
BITMAP
7000
2000
2000
2000
7540
0000
0800
ENDCHAR
STARTCHAR uni1E37
ENCODING 7735
SWIDTH 283 0
DWIDTH 2 0
BBX 2 8 0 -2
BITMAP
50
50
50
50
50
60
00
50
ENDCHAR
STARTCHAR uni1E38
ENCODING 7736
SWIDTH 585 0
DWIDTH 5 0
BBX 5 9 0 -2
BITMAP
5400
0000
7000
2000
2000
2000
7540
0000
0800
ENDCHAR
STARTCHAR uni1E39
ENCODING 7737
SWIDTH 283 0
DWIDTH 2 0
BBX 2 9 0 -2
BITMAP
50
50
50
50
50
50
60
00
50
ENDCHAR
STARTCHAR uni1E3A
ENCODING 7738
SWIDTH 585 0
DWIDTH 5 0
BBX 5 6 0 -1
BITMAP
7000
2000
2000
2000
7540
1500
ENDCHAR
STARTCHAR uni1E3B
ENCODING 7739
SWIDTH 283 0
DWIDTH 2 0
BBX 2 7 0 -1
BITMAP
50
50
50
50
50
60
50
ENDCHAR
STARTCHAR uni1E3C
ENCODING 7740
SWIDTH 585 0
DWIDTH 5 0
BBX 5 7 0 -2
BITMAP
7000
2000
2000
2000
7540
0400
1400
ENDCHAR
STARTCHAR uni1E3D
ENCODING 7741
SWIDTH 283 0
DWIDTH 2 0
BBX 2 8 0 -2
BITMAP
50
50
50
50
50
60
10
50
ENDCHAR
STARTCHAR uni1E3E
ENCODING 7742
SWIDTH 895 0
DWIDTH 7 0
BBX 7 7 0 0
BITMAP
0200
0000
7034
2860
1860
1620
6224
ENDCHAR
STARTCHAR uni1E3F
ENCODING 7743
SWIDTH 852 0
DWIDTH 7 0
BBX 7 6 0 0
BITMAP
0100
0200
6660
5220
5220
6224
ENDCHAR
STARTCHAR uni1E40
ENCODING 7744
SWIDTH 895 0
DWIDTH 7 0
BBX 7 7 0 0
BITMAP
0200
0000
7034
2860
1860
1620
6224
ENDCHAR
STARTCHAR uni1E41
ENCODING 7745
SWIDTH 852 0
DWIDTH 7 0
BBX 7 6 0 0
BITMAP
0200
0000
6660
5220
5220
6224
ENDCHAR
STARTCHAR uni1E42
ENCODING 7746
SWIDTH 895 0
DWIDTH 7 0
BBX 7 7 0 -2
BITMAP
7034
2860
1860
1620
6224
0000
0200
ENDCHAR
STARTCHAR uni1E43
ENCODING 7747
SWIDTH 852 0
DWIDTH 7 0
BBX 7 6 0 -2
BITMAP
6660
5220
5220
6224
0000
0200
ENDCHAR
STARTCHAR uni1E44
ENCODING 7748
SWIDTH 742 0
DWIDTH 6 0
BBX 6 7 0 0
BITMAP
0500
0000
7090
2840
1640
1280
6080
ENDCHAR
STARTCHAR uni1E45
ENCODING 7749
SWIDTH 576 0
DWIDTH 5 0
BBX 4 6 0 0
BITMAP
08
00
66
52
52
62
ENDCHAR
STARTCHAR uni1E46
ENCODING 7750
SWIDTH 742 0
DWIDTH 6 0
BBX 6 7 0 -2
BITMAP
7090
2840
1640
1280
6080
0000
0500
ENDCHAR
STARTCHAR uni1E47
ENCODING 7751
SWIDTH 576 0
DWIDTH 5 0
BBX 4 6 0 -2
BITMAP
66
52
52
62
00
08
ENDCHAR
STARTCHAR uni1E48
ENCODING 7752
SWIDTH 742 0
DWIDTH 6 0
BBX 6 6 0 -1
BITMAP
7090
2840
1640
1280
6080
0500
ENDCHAR
STARTCHAR uni1E49
ENCODING 7753
SWIDTH 576 0
DWIDTH 5 0
BBX 4 5 0 -1
BITMAP
66
52
52
62
15
ENDCHAR
STARTCHAR uni1E4A
ENCODING 7754
SWIDTH 742 0
DWIDTH 6 0
BBX 6 7 0 -2
BITMAP
7090
2840
1640
1280
6080
0400
0500
ENDCHAR
STARTCHAR uni1E4B
ENCODING 7755
SWIDTH 576 0
DWIDTH 5 0
BBX 4 6 0 -2
BITMAP
66
52
52
62
04
14
ENDCHAR
STARTCHAR uni1E4C
ENCODING 7756
SWIDTH 738 0
DWIDTH 6 0
BBX 6 8 0 0
BITMAP
0500
0500
0000
1580
5090
9050
5090
1540
ENDCHAR
STARTCHAR uni1E4D
ENCODING 7757
SWIDTH 514 0
DWIDTH 4 0
BBX 4 7 0 0
BITMAP
04
04
14
55
82
82
55
ENDCHAR
STARTCHAR uni1E4E
ENCODING 7758
SWIDTH 738 0
DWIDTH 6 0
BBX 6 8 0 0
BITMAP
1500
0500
0000
1580
5090
9050
5090
1540
ENDCHAR
STARTCHAR uni1E4F
ENCODING 7759
SWIDTH 514 0
DWIDTH 4 0
BBX 4 7 0 0
BITMAP
25
00
14
55
82
82
55
ENDCHAR
STARTCHAR uni1E50
ENCODING 7760
SWIDTH 738 0
DWIDTH 6 0
BBX 6 8 0 0
BITMAP
0500
0500
0000
1580
5090
9050
5090
1540
ENDCHAR
STARTCHAR uni1E51
ENCODING 7761
SWIDTH 514 0
DWIDTH 4 0
BBX 4 7 0 0
BITMAP
10
14
14
55
82
82
55
ENDCHAR
STARTCHAR uni1E52
ENCODING 7762
SWIDTH 738 0
DWIDTH 6 0
BBX 6 8 0 0
BITMAP
0500
0500
0000
1580
5090
9050
5090
1540
ENDCHAR
STARTCHAR uni1E53
ENCODING 7763
SWIDTH 514 0
DWIDTH 4 0
BBX 4 7 0 0
BITMAP
04
04
14
55
82
82
55
ENDCHAR
STARTCHAR uni1E54
ENCODING 7764
SWIDTH 569 0
DWIDTH 5 0
BBX 5 7 0 0
BITMAP
0800
0000
7600
2240
2500
2000
7000
ENDCHAR
STARTCHAR uni1E55
ENCODING 7765
SWIDTH 537 0
DWIDTH 4 0
BBX 4 8 0 -2
BITMAP
04
04
6A
52
52
65
50
60
ENDCHAR
STARTCHAR uni1E56
ENCODING 7766
SWIDTH 569 0
DWIDTH 5 0
BBX 5 7 0 0
BITMAP
0800
0000
7600
2240
2500
2000
7000
ENDCHAR
STARTCHAR uni1E57
ENCODING 7767
SWIDTH 537 0
DWIDTH 4 0
BBX 4 8 0 -2
BITMAP
14
00
6A
52
52
65
50
60
ENDCHAR
STARTCHAR uni1E58
ENCODING 7768
SWIDTH 659 0
DWIDTH 5 0
BBX 5 7 0 0
BITMAP
0800
0000
7600
2240
2900
2200
7180
ENDCHAR
STARTCHAR uni1E59
ENCODING 7769
SWIDTH 380 0
DWIDTH 3 0
BBX 3 6 0 0
BITMAP
20
00
68
60
50
60
ENDCHAR
STARTCHAR uni1E5A
ENCODING 7770
SWIDTH 659 0
DWIDTH 5 0
BBX 5 7 0 -2
BITMAP
7600
2240
2900
2200
7180
0000
0800
ENDCHAR
STARTCHAR uni1E5B
ENCODING 7771
SWIDTH 380 0
DWIDTH 3 0
BBX 3 6 0 -2
BITMAP
68
60
50
60
00
20
ENDCHAR
STARTCHAR uni1E5C
ENCODING 7772
SWIDTH 659 0
DWIDTH 5 0
BBX 5 9 0 -2
BITMAP
1500
0000
7600
2240
2900
2200
7180
0000
0800
ENDCHAR
STARTCHAR uni1E5D
ENCODING 7773
SWIDTH 380 0
DWIDTH 3 0
BBX 3 7 0 -2
BITMAP
54
68
60
50
60
00
20
ENDCHAR
STARTCHAR uni1E5E
ENCODING 7774
SWIDTH 659 0
DWIDTH 5 0
BBX 5 6 0 -1
BITMAP
7600
2240
2900
2200
7180
1500
ENDCHAR
STARTCHAR uni1E5F
ENCODING 7775
SWIDTH 380 0
DWIDTH 3 0
BBX 3 5 0 -1
BITMAP
68
60
50
60
54
ENDCHAR
STARTCHAR uni1E60
ENCODING 7776
SWIDTH 504 0
DWIDTH 4 0
BBX 4 7 0 0
BITMAP
14
00
59
51
28
46
95
ENDCHAR
STARTCHAR uni1E61
ENCODING 7777
SWIDTH 394 0
DWIDTH 3 0
BBX 3 6 0 0
BITMAP
20
00
54
60
18
58
ENDCHAR
STARTCHAR uni1E62
ENCODING 7778
SWIDTH 504 0
DWIDTH 4 0
BBX 4 7 0 -2
BITMAP
59
51
28
46
95
00
14
ENDCHAR
STARTCHAR uni1E63
ENCODING 7779
SWIDTH 394 0
DWIDTH 3 0
BBX 3 6 0 -2
BITMAP
54
60
18
58
00
20
ENDCHAR
STARTCHAR uni1E64
ENCODING 7780
SWIDTH 504 0
DWIDTH 4 0
BBX 4 7 0 0
BITMAP
18
00
59
51
28
46
95
ENDCHAR
STARTCHAR uni1E65
ENCODING 7781
SWIDTH 394 0
DWIDTH 3 0
BBX 3 7 0 0
BITMAP
50
14
10
54
60
18
58
ENDCHAR
STARTCHAR uni1E66
ENCODING 7782
SWIDTH 504 0
DWIDTH 4 0
BBX 4 8 0 0
BITMAP
04
28
00
59
51
28
46
95
ENDCHAR
STARTCHAR uni1E67
ENCODING 7783
SWIDTH 394 0
DWIDTH 3 0
BBX 3 7 0 0
BITMAP
10
04
20
54
60
18
58
ENDCHAR
STARTCHAR uni1E68
ENCODING 7784
SWIDTH 504 0
DWIDTH 4 0
BBX 4 9 0 -2
BITMAP
14
00
59
51
28
46
95
00
14
ENDCHAR
STARTCHAR uni1E69
ENCODING 7785
SWIDTH 394 0
DWIDTH 3 0
BBX 3 8 0 -2
BITMAP
20
00
54
60
18
58
00
20
ENDCHAR
STARTCHAR uni1E6A
ENCODING 7786
SWIDTH 603 0
DWIDTH 5 0
BBX 5 7 0 0
BITMAP
0800
0000
9980
0800
0800
0800
1C00
ENDCHAR
STARTCHAR uni1E6B
ENCODING 7787
SWIDTH 315 0
DWIDTH 3 0
BBX 2 7 0 0
BITMAP
20
00
10
60
50
50
20
ENDCHAR
STARTCHAR uni1E6C
ENCODING 7788
SWIDTH 603 0
DWIDTH 5 0
BBX 5 7 0 -2
BITMAP
9980
0800
0800
0800
1C00
0000
0800
ENDCHAR
STARTCHAR uni1E6D
ENCODING 7789
SWIDTH 315 0
DWIDTH 3 0
BBX 2 7 0 -2
BITMAP
10
60
50
50
20
00
20
ENDCHAR
STARTCHAR uni1E6E
ENCODING 7790
SWIDTH 603 0
DWIDTH 5 0
BBX 5 6 0 -1
BITMAP
9980
0800
0800
0800
1C00
1500
ENDCHAR
STARTCHAR uni1E6F
ENCODING 7791
SWIDTH 315 0
DWIDTH 3 0
BBX 3 6 0 -1
BITMAP
10
60
50
50
20
54
ENDCHAR
STARTCHAR uni1E70
ENCODING 7792
SWIDTH 603 0
DWIDTH 5 0
BBX 5 7 0 -2
BITMAP
9980
0800
0800
0800
1C00
0400
1500
ENDCHAR
STARTCHAR uni1E71
ENCODING 7793
SWIDTH 315 0
DWIDTH 3 0
BBX 3 7 0 -2
BITMAP
10
60
50
50
20
10
54
ENDCHAR
STARTCHAR uni1E72
ENCODING 7794
SWIDTH 752 0
DWIDTH 6 0
BBX 6 6 0 -1
BITMAP
6090
2040
2040
2040
1940
1540
ENDCHAR
STARTCHAR uni1E73
ENCODING 7795
SWIDTH 570 0
DWIDTH 5 0
BBX 4 5 0 -1
BITMAP
56
52
52
26
25
ENDCHAR
STARTCHAR uni1E74
ENCODING 7796
SWIDTH 752 0
DWIDTH 6 0
BBX 6 7 0 -2
BITMAP
6090
2040
2040
2040
1940
0000
0500
ENDCHAR
STARTCHAR uni1E75
ENCODING 7797
SWIDTH 570 0
DWIDTH 5 0
BBX 4 6 0 -2
BITMAP
56
52
52
26
00
14
ENDCHAR
STARTCHAR uni1E76
ENCODING 7798
SWIDTH 752 0
DWIDTH 6 0
BBX 6 7 0 -2
BITMAP
6090
2040
2040
2040
1940
0500
0500
ENDCHAR
STARTCHAR uni1E77
ENCODING 7799
SWIDTH 570 0
DWIDTH 5 0
BBX 4 6 0 -2
BITMAP
56
52
52
26
04
14
ENDCHAR
STARTCHAR uni1E78
ENCODING 7800
SWIDTH 752 0
DWIDTH 6 0
BBX 6 8 0 0
BITMAP
0500
0500
0000
6090
2040
2040
2040
1940
ENDCHAR
STARTCHAR uni1E79
ENCODING 7801
SWIDTH 570 0
DWIDTH 5 0
BBX 4 7 0 0
BITMAP
04
04
14
56
52
52
26
ENDCHAR
STARTCHAR uni1E7A
ENCODING 7802
SWIDTH 752 0
DWIDTH 6 0
BBX 6 8 0 0
BITMAP
0940
0500
0000
6090
2040
2040
2040
1940
ENDCHAR
STARTCHAR uni1E7B
ENCODING 7803
SWIDTH 570 0
DWIDTH 5 0
BBX 4 7 0 0
BITMAP
25
00
14
56
52
52
26
ENDCHAR
STARTCHAR uni1E7C
ENCODING 7804
SWIDTH 680 0
DWIDTH 5 0
BBX 5 7 0 0
BITMAP
0500
0000
A080
2040
2500
0900
0800
ENDCHAR
STARTCHAR uni1E7D
ENCODING 7805
SWIDTH 481 0
DWIDTH 4 0
BBX 4 5 0 0
BITMAP
14
92
64
24
14
ENDCHAR
STARTCHAR uni1E7E
ENCODING 7806
SWIDTH 680 0
DWIDTH 5 0
BBX 5 7 0 -2
BITMAP
A080
2040
2500
0900
0800
0000
0800
ENDCHAR
STARTCHAR uni1E7F
ENCODING 7807
SWIDTH 481 0
DWIDTH 4 0
BBX 4 6 0 -2
BITMAP
92
64
24
14
00
14
ENDCHAR
STARTCHAR Wgrave
ENCODING 7808
SWIDTH 944 0
DWIDTH 8 0
BBX 8 7 0 0
BITMAP
0200
0000
A249
2144
2594
19A0
0810
ENDCHAR
STARTCHAR wgrave
ENCODING 7809
SWIDTH 749 0
DWIDTH 6 0
BBX 6 6 0 0
BITMAP
0400
0500
9620
6610
2640
1540
ENDCHAR
STARTCHAR Wacute
ENCODING 7810
SWIDTH 944 0
DWIDTH 8 0
BBX 8 7 0 0
BITMAP
0140
0000
A249
2144
2594
19A0
0810
ENDCHAR
STARTCHAR wacute
ENCODING 7811
SWIDTH 749 0
DWIDTH 6 0
BBX 6 6 0 0
BITMAP
0100
0500
9620
6610
2640
1540
ENDCHAR
STARTCHAR Wdieresis
ENCODING 7812
SWIDTH 944 0
DWIDTH 8 0
BBX 8 7 0 0
BITMAP
0480
0000
A249
2144
2594
19A0
0810
ENDCHAR
STARTCHAR wdieresis
ENCODING 7813
SWIDTH 749 0
DWIDTH 6 0
BBX 6 6 0 0
BITMAP
1540
0000
9620
6610
2640
1540
ENDCHAR
STARTCHAR uni1E86
ENCODING 7814
SWIDTH 944 0
DWIDTH 8 0
BBX 8 7 0 0
BITMAP
0200
0000
A249
2144
2594
19A0
0810
ENDCHAR
STARTCHAR uni1E87
ENCODING 7815
SWIDTH 749 0
DWIDTH 6 0
BBX 6 6 0 0
BITMAP
0500
0000
9620
6610
2640
1540
ENDCHAR
STARTCHAR uni1E88
ENCODING 7816
SWIDTH 944 0
DWIDTH 8 0
BBX 8 7 0 -2
BITMAP
A249
2144
2594
19A0
0810
0000
0140
ENDCHAR
STARTCHAR uni1E89
ENCODING 7817
SWIDTH 749 0
DWIDTH 6 0
BBX 6 6 0 -2
BITMAP
9620
6610
2640
1540
0000
0500
ENDCHAR
STARTCHAR uni1E8A
ENCODING 7818
SWIDTH 664 0
DWIDTH 5 0
BBX 5 7 0 0
BITMAP
0800
0000
7180
1500
0D00
1600
5280
ENDCHAR
STARTCHAR uni1E8B
ENCODING 7819
SWIDTH 479 0
DWIDTH 4 0
BBX 4 6 0 0
BITMAP
14
00
65
24
18
99
ENDCHAR
STARTCHAR uni1E8C
ENCODING 7820
SWIDTH 664 0
DWIDTH 5 0
BBX 5 7 0 0
BITMAP
1600
0000
7180
1500
0D00
1600
5280
ENDCHAR
STARTCHAR uni1E8D
ENCODING 7821
SWIDTH 479 0
DWIDTH 4 0
BBX 4 6 0 0
BITMAP
54
00
65
24
18
99
ENDCHAR
STARTCHAR uni1E8E
ENCODING 7822
SWIDTH 647 0
DWIDTH 5 0
BBX 5 7 0 0
BITMAP
0800
0000
A180
2500
0900
0800
0D00
ENDCHAR
STARTCHAR uni1E8F
ENCODING 7823
SWIDTH 483 0
DWIDTH 4 0
BBX 4 8 0 -2
BITMAP
14
00
92
64
24
14
10
90
ENDCHAR
STARTCHAR uni1E90
ENCODING 7824
SWIDTH 594 0
DWIDTH 5 0
BBX 5 7 0 0
BITMAP
1900
0000
5740
0600
0800
2000
A640
ENDCHAR
STARTCHAR uni1E91
ENCODING 7825
SWIDTH 458 0
DWIDTH 4 0
BBX 4 6 0 0
BITMAP
10
14
59
18
20
A5
ENDCHAR
STARTCHAR uni1E92
ENCODING 7826
SWIDTH 594 0
DWIDTH 5 0
BBX 5 7 0 -2
BITMAP
5740
0600
0800
2000
A640
0000
0800
ENDCHAR
STARTCHAR uni1E93
ENCODING 7827
SWIDTH 458 0
DWIDTH 4 0
BBX 4 6 0 -2
BITMAP
59
18
20
A5
00
14
ENDCHAR
STARTCHAR uni1E94
ENCODING 7828
SWIDTH 594 0
DWIDTH 5 0
BBX 5 6 0 -1
BITMAP
5740
0600
0800
2000
A640
1500
ENDCHAR
STARTCHAR uni1E95
ENCODING 7829
SWIDTH 458 0
DWIDTH 4 0
BBX 4 5 0 -1
BITMAP
59
18
20
A5
14
ENDCHAR
STARTCHAR uni1E96
ENCODING 7830
SWIDTH 577 0
DWIDTH 5 0
BBX 4 7 0 -1
BITMAP
50
50
6A
52
52
62
15
ENDCHAR
STARTCHAR uni1E97
ENCODING 7831
SWIDTH 315 0
DWIDTH 3 0
BBX 3 7 0 0
BITMAP
94
00
10
60
50
50
20
ENDCHAR
STARTCHAR uni1E98
ENCODING 7832
SWIDTH 749 0
DWIDTH 6 0
BBX 6 6 0 0
BITMAP
0500
0500
9620
6610
2640
1540
ENDCHAR
STARTCHAR uni1E99
ENCODING 7833
SWIDTH 483 0
DWIDTH 4 0
BBX 4 8 0 -2
BITMAP
14
14
92
64
24
14
10
90
ENDCHAR
STARTCHAR uni1E9A
ENCODING 7834
SWIDTH 480 0
DWIDTH 4 0
BBX 4 6 0 0
BITMAP
10
10
58
08
58
69
ENDCHAR
STARTCHAR uni1E9B
ENCODING 7835
SWIDTH 285 0
DWIDTH 2 0
BBX 3 7 0 0
BITMAP
10
14
10
50
50
50
60
ENDCHAR
STARTCHAR uni1E9C
ENCODING 7836
SWIDTH 300 0
DWIDTH 2 0
BBX 3 6 0 0
BITMAP
18
20
60
60
20
60
ENDCHAR
STARTCHAR uni1E9D
ENCODING 7837
SWIDTH 285 0
DWIDTH 2 0
BBX 3 6 0 0
BITMAP
14
60
50
50
50
60
ENDCHAR
STARTCHAR uni1E9E
ENCODING 7838
SWIDTH 684 0
DWIDTH 5 0
BBX 5 5 0 0
BITMAP
1580
2200
2240
2080
6980
ENDCHAR
STARTCHAR uni1E9F
ENCODING 7839
SWIDTH 517 0
DWIDTH 4 0
BBX 4 6 0 0
BITMAP
15
20
28
52
82
55
ENDCHAR
STARTCHAR uni1EA0
ENCODING 7840
SWIDTH 718 0
DWIDTH 6 0
BBX 6 7 0 -2
BITMAP
0900
0A00
1200
2680
90D0
0000
0800
ENDCHAR
STARTCHAR uni1EA1
ENCODING 7841
SWIDTH 480 0
DWIDTH 4 0
BBX 4 6 0 -2
BITMAP
58
08
58
69
00
14
ENDCHAR
STARTCHAR uni1EA2
ENCODING 7842
SWIDTH 718 0
DWIDTH 6 0
BBX 6 7 0 0
BITMAP
0100
0400
0900
0A00
1200
2680
90D0
ENDCHAR
STARTCHAR uni1EA3
ENCODING 7843
SWIDTH 480 0
DWIDTH 4 0
BBX 4 6 0 0
BITMAP
14
00
58
08
58
69
ENDCHAR
STARTCHAR uni1EA4
ENCODING 7844
SWIDTH 718 0
DWIDTH 6 0
BBX 6 8 0 0
BITMAP
0040
0500
0000
0900
0A00
1200
2680
90D0
ENDCHAR
STARTCHAR uni1EA5
ENCODING 7845
SWIDTH 480 0
DWIDTH 4 0
BBX 4 6 0 0
BITMAP
02
14
58
08
58
69
ENDCHAR
STARTCHAR uni1EA6
ENCODING 7846
SWIDTH 718 0
DWIDTH 6 0
BBX 6 8 0 0
BITMAP
0100
0540
0000
0900
0A00
1200
2680
90D0
ENDCHAR
STARTCHAR uni1EA7
ENCODING 7847
SWIDTH 480 0
DWIDTH 4 0
BBX 4 6 0 0
BITMAP
08
14
58
08
58
69
ENDCHAR
STARTCHAR uni1EA8
ENCODING 7848
SWIDTH 718 0
DWIDTH 6 0
BBX 6 8 0 0
BITMAP
0140
0500
0000
0900
0A00
1200
2680
90D0
ENDCHAR
STARTCHAR uni1EA9
ENCODING 7849
SWIDTH 480 0
DWIDTH 4 0
BBX 4 7 0 0
BITMAP
05
01
28
58
08
58
69
ENDCHAR
STARTCHAR uni1EAA
ENCODING 7850
SWIDTH 718 0
DWIDTH 6 0
BBX 6 8 0 0
BITMAP
0500
0900
0000
0900
0A00
1200
2680
90D0
ENDCHAR
STARTCHAR uni1EAB
ENCODING 7851
SWIDTH 480 0
DWIDTH 4 0
BBX 4 6 0 0
BITMAP
14
24
58
08
58
69
ENDCHAR
STARTCHAR uni1EAC
ENCODING 7852
SWIDTH 718 0
DWIDTH 6 0
BBX 6 9 0 -2
BITMAP
0500
0000
0900
0A00
1200
2680
90D0
0000
0800
ENDCHAR
STARTCHAR uni1EAD
ENCODING 7853
SWIDTH 480 0
DWIDTH 4 0
BBX 4 8 0 -2
BITMAP
10
14
58
08
58
69
00
14
ENDCHAR
STARTCHAR uni1EAE
ENCODING 7854
SWIDTH 718 0
DWIDTH 6 0
BBX 6 8 0 0
BITMAP
1500
0900
0000
0900
0A00
1200
2680
90D0
ENDCHAR
STARTCHAR uni1EAF
ENCODING 7855
SWIDTH 480 0
DWIDTH 4 0
BBX 4 6 0 0
BITMAP
04
54
7C
08
58
69
ENDCHAR
STARTCHAR uni1EB0
ENCODING 7856
SWIDTH 718 0
DWIDTH 6 0
BBX 6 8 0 0
BITMAP
1500
0900
0000
0900
0A00
1200
2680
90D0
ENDCHAR
STARTCHAR uni1EB1
ENCODING 7857
SWIDTH 480 0
DWIDTH 4 0
BBX 4 6 0 0
BITMAP
10
54
7C
08
58
69
ENDCHAR
STARTCHAR uni1EB2
ENCODING 7858
SWIDTH 718 0
DWIDTH 6 0
BBX 6 9 0 0
BITMAP
0500
1500
0900
0000
0900
0A00
1200
2680
90D0
ENDCHAR
STARTCHAR uni1EB3
ENCODING 7859
SWIDTH 480 0
DWIDTH 4 0
BBX 4 7 0 0
BITMAP
14
04
54
7C
08
58
69
ENDCHAR
STARTCHAR uni1EB4
ENCODING 7860
SWIDTH 718 0
DWIDTH 6 0
BBX 6 9 0 0
BITMAP
0800
1200
0900
0000
0900
0A00
1200
2680
90D0
ENDCHAR
STARTCHAR uni1EB5
ENCODING 7861
SWIDTH 480 0
DWIDTH 4 0
BBX 4 6 0 0
BITMAP
14
44
7C
08
58
69
ENDCHAR
STARTCHAR uni1EB6
ENCODING 7862
SWIDTH 718 0
DWIDTH 6 0
BBX 6 10 0 -2
BITMAP
1100
0900
0000
0900
0A00
1200
2680
90D0
0000
0800
ENDCHAR
STARTCHAR uni1EB7
ENCODING 7863
SWIDTH 480 0
DWIDTH 4 0
BBX 4 8 0 -2
BITMAP
44
24
58
08
58
69
00
14
ENDCHAR
STARTCHAR uni1EB8
ENCODING 7864
SWIDTH 626 0
DWIDTH 5 0
BBX 5 7 0 -2
BITMAP
7540
2100
2600
2000
7580
0000
0800
ENDCHAR
STARTCHAR uni1EB9
ENCODING 7865
SWIDTH 464 0
DWIDTH 4 0
BBX 4 6 0 -2
BITMAP
58
95
80
68
00
14
ENDCHAR
STARTCHAR uni1EBA
ENCODING 7866
SWIDTH 626 0
DWIDTH 5 0
BBX 5 6 0 0
BITMAP
0400
7540
2100
2600
2000
7580
ENDCHAR
STARTCHAR uni1EBB
ENCODING 7867
SWIDTH 464 0
DWIDTH 4 0
BBX 4 6 0 0
BITMAP
14
04
58
95
80
68
ENDCHAR
STARTCHAR uni1EBC
ENCODING 7868
SWIDTH 626 0
DWIDTH 5 0
BBX 5 7 0 0
BITMAP
1500
0000
7540
2100
2600
2000
7580
ENDCHAR
STARTCHAR uni1EBD
ENCODING 7869
SWIDTH 464 0
DWIDTH 4 0
BBX 4 5 0 0
BITMAP
14
58
95
80
68
ENDCHAR
STARTCHAR uni1EBE
ENCODING 7870
SWIDTH 626 0
DWIDTH 5 0
BBX 5 8 0 0
BITMAP
0040
1900
0000
7540
2100
2600
2000
7580
ENDCHAR
STARTCHAR uni1EBF
ENCODING 7871
SWIDTH 464 0
DWIDTH 4 0
BBX 4 6 0 0
BITMAP
02
14
58
95
80
68
ENDCHAR
STARTCHAR uni1EC0
ENCODING 7872
SWIDTH 626 0
DWIDTH 5 0
BBX 5 8 0 0
BITMAP
0100
1900
0000
7540
2100
2600
2000
7580
ENDCHAR
STARTCHAR uni1EC1
ENCODING 7873
SWIDTH 464 0
DWIDTH 4 0
BBX 4 6 0 0
BITMAP
04
14
58
95
80
68
ENDCHAR
STARTCHAR uni1EC2
ENCODING 7874
SWIDTH 626 0
DWIDTH 5 0
BBX 5 8 0 0
BITMAP
0100
0900
0000
7540
2100
2600
2000
7580
ENDCHAR
STARTCHAR uni1EC3
ENCODING 7875
SWIDTH 464 0
DWIDTH 4 0
BBX 4 7 0 0
BITMAP
05
01
18
58
95
80
68
ENDCHAR
STARTCHAR uni1EC4
ENCODING 7876
SWIDTH 626 0
DWIDTH 5 0
BBX 5 8 0 0
BITMAP
1900
1900
0000
7540
2100
2600
2000
7580
ENDCHAR
STARTCHAR uni1EC5
ENCODING 7877
SWIDTH 464 0
DWIDTH 4 0
BBX 4 6 0 0
BITMAP
14
24
58
95
80
68
ENDCHAR
STARTCHAR uni1EC6
ENCODING 7878
SWIDTH 626 0
DWIDTH 5 0
BBX 5 9 0 -2
BITMAP
1900
0000
7540
2100
2600
2000
7580
0000
0800
ENDCHAR
STARTCHAR uni1EC7
ENCODING 7879
SWIDTH 464 0
DWIDTH 4 0
BBX 4 8 0 -2
BITMAP
14
14
58
95
80
68
00
14
ENDCHAR
STARTCHAR uni1EC8
ENCODING 7880
SWIDTH 357 0
DWIDTH 3 0
BBX 2 6 0 0
BITMAP
10
70
20
20
20
70
ENDCHAR
STARTCHAR uni1EC9
ENCODING 7881
SWIDTH 285 0
DWIDTH 2 0
BBX 2 6 0 0
BITMAP
50
10
50
50
50
60
ENDCHAR
STARTCHAR uni1ECA
ENCODING 7882
SWIDTH 357 0
DWIDTH 3 0
BBX 2 7 0 -2
BITMAP
70
20
20
20
70
00
20
ENDCHAR
STARTCHAR uni1ECB
ENCODING 7883
SWIDTH 285 0
DWIDTH 2 0
BBX 2 7 0 -2
BITMAP
10
50
50
50
60
00
50
ENDCHAR
STARTCHAR uni1ECC
ENCODING 7884
SWIDTH 738 0
DWIDTH 6 0
BBX 6 7 0 -2
BITMAP
1580
5090
9050
5090
1540
0000
0500
ENDCHAR
STARTCHAR uni1ECD
ENCODING 7885
SWIDTH 514 0
DWIDTH 4 0
BBX 4 6 0 -2
BITMAP
55
82
82
55
00
14
ENDCHAR
STARTCHAR uni1ECE
ENCODING 7886
SWIDTH 738 0
DWIDTH 6 0
BBX 6 7 0 0
BITMAP
0100
0100
1580
5090
9050
5090
1540
ENDCHAR
STARTCHAR uni1ECF
ENCODING 7887
SWIDTH 514 0
DWIDTH 4 0
BBX 4 6 0 0
BITMAP
14
04
55
82
82
55
ENDCHAR
STARTCHAR uni1ED0
ENCODING 7888
SWIDTH 738 0
DWIDTH 6 0
BBX 6 8 0 0
BITMAP
0040
0640
0000
1580
5090
9050
5090
1540
ENDCHAR
STARTCHAR uni1ED1
ENCODING 7889
SWIDTH 514 0
DWIDTH 4 0
BBX 4 6 0 0
BITMAP
02
14
55
82
82
55
ENDCHAR
STARTCHAR uni1ED2
ENCODING 7890
SWIDTH 738 0
DWIDTH 6 0
BBX 6 8 0 0
BITMAP
0100
0540
0000
1580
5090
9050
5090
1540
ENDCHAR
STARTCHAR uni1ED3
ENCODING 7891
SWIDTH 514 0
DWIDTH 4 0
BBX 4 6 0 0
BITMAP
04
14
55
82
82
55
ENDCHAR
STARTCHAR uni1ED4
ENCODING 7892
SWIDTH 738 0
DWIDTH 6 0
BBX 6 8 0 0
BITMAP
0140
0540
0000
1580
5090
9050
5090
1540
ENDCHAR
STARTCHAR uni1ED5
ENCODING 7893
SWIDTH 514 0
DWIDTH 4 0
BBX 4 7 0 0
BITMAP
05
01
18
55
82
82
55
ENDCHAR
STARTCHAR uni1ED6
ENCODING 7894
SWIDTH 738 0
DWIDTH 6 0
BBX 6 8 0 0
BITMAP
0500
0500
0000
1580
5090
9050
5090
1540
ENDCHAR
STARTCHAR uni1ED7
ENCODING 7895
SWIDTH 514 0
DWIDTH 4 0
BBX 4 6 0 0
BITMAP
14
18
69
82
82
55
ENDCHAR
STARTCHAR uni1ED8
ENCODING 7896
SWIDTH 738 0
DWIDTH 6 0
BBX 6 9 0 -2
BITMAP
0500
0000
1580
5090
9050
5090
1540
0000
0500
ENDCHAR
STARTCHAR uni1ED9
ENCODING 7897
SWIDTH 514 0
DWIDTH 4 0
BBX 4 8 0 -2
BITMAP
04
14
55
82
82
55
00
14
ENDCHAR
STARTCHAR uni1EDA
ENCODING 7898
SWIDTH 737 0
DWIDTH 6 0
BBX 6 7 0 0
BITMAP
0510
0020
1580
5090
9050
5090
1540
ENDCHAR
STARTCHAR uni1EDB
ENCODING 7899
SWIDTH 516 0
DWIDTH 4 0
BBX 4 6 0 0
BITMAP
05
05
59
82
82
55
ENDCHAR
STARTCHAR uni1EDC
ENCODING 7900
SWIDTH 737 0
DWIDTH 6 0
BBX 6 7 0 0
BITMAP
0510
0020
1580
5090
9050
5090
1540
ENDCHAR
STARTCHAR uni1EDD
ENCODING 7901
SWIDTH 516 0
DWIDTH 4 0
BBX 4 6 0 0
BITMAP
11
15
59
82
82
55
ENDCHAR
STARTCHAR uni1EDE
ENCODING 7902
SWIDTH 737 0
DWIDTH 6 0
BBX 6 7 0 0
BITMAP
0110
0120
1580
5090
9050
5090
1540
ENDCHAR
STARTCHAR uni1EDF
ENCODING 7903
SWIDTH 516 0
DWIDTH 4 0
BBX 4 6 0 0
BITMAP
15
05
59
82
82
55
ENDCHAR
STARTCHAR uni1EE0
ENCODING 7904
SWIDTH 737 0
DWIDTH 6 0
BBX 6 7 0 0
BITMAP
0510
0020
1580
5090
9050
5090
1540
ENDCHAR
STARTCHAR uni1EE1
ENCODING 7905
SWIDTH 516 0
DWIDTH 4 0
BBX 4 5 0 0
BITMAP
2A
59
82
82
55
ENDCHAR
STARTCHAR uni1EE2
ENCODING 7906
SWIDTH 737 0
DWIDTH 6 0
BBX 6 9 0 -2
BITMAP
0010
0020
1580
5090
9050
5090
1540
0000
0500
ENDCHAR
STARTCHAR uni1EE3
ENCODING 7907
SWIDTH 516 0
DWIDTH 4 0
BBX 4 8 0 -2
BITMAP
01
01
59
82
82
55
00
14
ENDCHAR
STARTCHAR uni1EE4
ENCODING 7908
SWIDTH 752 0
DWIDTH 6 0
BBX 6 7 0 -2
BITMAP
6090
2040
2040
2040
1940
0000
0500
ENDCHAR
STARTCHAR uni1EE5
ENCODING 7909
SWIDTH 570 0
DWIDTH 5 0
BBX 4 6 0 -2
BITMAP
56
52
52
26
00
08
ENDCHAR
STARTCHAR uni1EE6
ENCODING 7910
SWIDTH 752 0
DWIDTH 6 0
BBX 6 7 0 0
BITMAP
0100
0100
6090
2040
2040
2040
1940
ENDCHAR
STARTCHAR uni1EE7
ENCODING 7911
SWIDTH 570 0
DWIDTH 5 0
BBX 4 6 0 0
BITMAP
04
04
56
52
52
26
ENDCHAR
STARTCHAR uni1EE8
ENCODING 7912
SWIDTH 762 0
DWIDTH 6 0
BBX 7 7 0 0
BITMAP
0514
0004
6080
2040
2040
2040
1940
ENDCHAR
STARTCHAR uni1EE9
ENCODING 7913
SWIDTH 574 0
DWIDTH 5 0
BBX 5 6 0 0
BITMAP
0400
0440
5600
5200
5200
2600
ENDCHAR
STARTCHAR uni1EEA
ENCODING 7914
SWIDTH 762 0
DWIDTH 6 0
BBX 7 7 0 0
BITMAP
0514
0004
6080
2040
2040
2040
1940
ENDCHAR
STARTCHAR uni1EEB
ENCODING 7915
SWIDTH 574 0
DWIDTH 5 0
BBX 5 6 0 0
BITMAP
1000
0440
5600
5200
5200
2600
ENDCHAR
STARTCHAR uni1EEC
ENCODING 7916
SWIDTH 762 0
DWIDTH 6 0
BBX 7 7 0 0
BITMAP
0114
0104
6080
2040
2040
2040
1940
ENDCHAR
STARTCHAR uni1EED
ENCODING 7917
SWIDTH 574 0
DWIDTH 5 0
BBX 5 6 0 0
BITMAP
0400
0440
5600
5200
5200
2600
ENDCHAR
STARTCHAR uni1EEE
ENCODING 7918
SWIDTH 762 0
DWIDTH 6 0
BBX 7 7 0 0
BITMAP
0514
0004
6080
2040
2040
2040
1940
ENDCHAR
STARTCHAR uni1EEF
ENCODING 7919
SWIDTH 574 0
DWIDTH 5 0
BBX 5 5 0 0
BITMAP
1440
5600
5200
5200
2600
ENDCHAR
STARTCHAR uni1EF0
ENCODING 7920
SWIDTH 762 0
DWIDTH 6 0
BBX 7 9 0 -2
BITMAP
0014
0004
6080
2040
2040
2040
1940
0000
0500
ENDCHAR
STARTCHAR uni1EF1
ENCODING 7921
SWIDTH 574 0
DWIDTH 5 0
BBX 5 7 0 -2
BITMAP
0040
5600
5200
5200
2600
0000
1400
ENDCHAR
STARTCHAR Ygrave
ENCODING 7922
SWIDTH 647 0
DWIDTH 5 0
BBX 5 7 0 0
BITMAP
0800
0000
A180
2500
0900
0800
0D00
ENDCHAR
STARTCHAR ygrave
ENCODING 7923
SWIDTH 483 0
DWIDTH 4 0
BBX 4 8 0 -2
BITMAP
10
14
92
64
24
14
10
90
ENDCHAR
STARTCHAR uni1EF4
ENCODING 7924
SWIDTH 647 0
DWIDTH 5 0
BBX 5 7 0 -2
BITMAP
A180
2500
0900
0800
0D00
0000
0800
ENDCHAR
STARTCHAR uni1EF5
ENCODING 7925
SWIDTH 483 0
DWIDTH 4 0
BBX 4 6 0 -2
BITMAP
92
64
24
14
10
98
ENDCHAR
STARTCHAR uni1EF6
ENCODING 7926
SWIDTH 647 0
DWIDTH 5 0
BBX 5 7 0 0
BITMAP
0100
0400
A180
2500
0900
0800
0D00
ENDCHAR
STARTCHAR uni1EF7
ENCODING 7927
SWIDTH 483 0
DWIDTH 4 0
BBX 4 8 0 -2
BITMAP
14
04
92
64
24
14
10
90
ENDCHAR
STARTCHAR uni1EF8
ENCODING 7928
SWIDTH 647 0
DWIDTH 5 0
BBX 5 7 0 0
BITMAP
0500
0000
A180
2500
0900
0800
0D00
ENDCHAR
STARTCHAR uni1EF9
ENCODING 7929
SWIDTH 483 0
DWIDTH 4 0
BBX 4 7 0 -2
BITMAP
14
92
64
24
14
10
90
ENDCHAR
STARTCHAR uni2000
ENCODING 8192
SWIDTH 500 0
DWIDTH 4 0
BBX 1 1 0 0
BITMAP
00
ENDCHAR
STARTCHAR uni2001
ENCODING 8193
SWIDTH 1000 0
DWIDTH 8 0
BBX 1 1 0 0
BITMAP
00
ENDCHAR
STARTCHAR uni2002
ENCODING 8194
SWIDTH 500 0
DWIDTH 4 0
BBX 1 1 0 0
BITMAP
00
ENDCHAR
STARTCHAR uni2003
ENCODING 8195
SWIDTH 1000 0
DWIDTH 8 0
BBX 1 1 0 0
BITMAP
00
ENDCHAR
STARTCHAR uni2004
ENCODING 8196
SWIDTH 334 0
DWIDTH 3 0
BBX 1 1 0 0
BITMAP
00
ENDCHAR
STARTCHAR uni2005
ENCODING 8197
SWIDTH 250 0
DWIDTH 2 0
BBX 1 1 0 0
BITMAP
00
ENDCHAR
STARTCHAR uni2006
ENCODING 8198
SWIDTH 167 0
DWIDTH 1 0
BBX 1 1 0 0
BITMAP
00
ENDCHAR
STARTCHAR uni2007
ENCODING 8199
SWIDTH 560 0
DWIDTH 4 0
BBX 1 1 0 0
BITMAP
00
ENDCHAR
STARTCHAR uni2008
ENCODING 8200
SWIDTH 297 0
DWIDTH 2 0
BBX 1 1 0 0
BITMAP
00
ENDCHAR
STARTCHAR uni2009
ENCODING 8201
SWIDTH 125 0
DWIDTH 1 0
BBX 1 1 0 0
BITMAP
00
ENDCHAR
STARTCHAR uni200A
ENCODING 8202
SWIDTH 63 0
DWIDTH 1 0
BBX 1 1 0 0
BITMAP
00
ENDCHAR
STARTCHAR uni200B
ENCODING 8203
SWIDTH 0 0
DWIDTH 0 0
BBX 1 1 0 0
BITMAP
00
ENDCHAR
STARTCHAR uni200C
ENCODING 8204
SWIDTH 0 0
DWIDTH 0 0
BBX 1 1 0 -2
BITMAP
00
ENDCHAR
STARTCHAR uni200D
ENCODING 8205
SWIDTH 0 0
DWIDTH 0 0
BBX 2 2 -1 5
BITMAP
50
50
ENDCHAR
STARTCHAR uni2010
ENCODING 8208
SWIDTH 315 0
DWIDTH 3 0
BBX 2 1 0 2
BITMAP
60
ENDCHAR
STARTCHAR uni2011
ENCODING 8209
SWIDTH 315 0
DWIDTH 3 0
BBX 2 1 0 2
BITMAP
60
ENDCHAR
STARTCHAR figuredash
ENCODING 8210
SWIDTH 495 0
DWIDTH 4 0
BBX 4 1 0 2
BITMAP
55
ENDCHAR
STARTCHAR endash
ENCODING 8211
SWIDTH 500 0
DWIDTH 4 0
BBX 4 1 0 2
BITMAP
55
ENDCHAR
STARTCHAR emdash
ENCODING 8212
SWIDTH 1000 0
DWIDTH 8 0
BBX 8 1 0 2
BITMAP
5555
ENDCHAR
STARTCHAR uni2015
ENCODING 8213
SWIDTH 940 0
DWIDTH 8 0
BBX 8 1 0 2
BITMAP
5555
ENDCHAR
STARTCHAR uni2016
ENCODING 8214
SWIDTH 427 0
DWIDTH 3 0
BBX 2 8 1 -2
BITMAP
50
50
50
50
50
50
50
50
ENDCHAR
STARTCHAR underscoredbl
ENCODING 8215
SWIDTH 512 0
DWIDTH 4 0
BBX 4 2 0 -2
BITMAP
55
55
ENDCHAR
STARTCHAR quoteleft
ENCODING 8216
SWIDTH 245 0
DWIDTH 2 0
BBX 2 2 0 4
BITMAP
40
50
ENDCHAR
STARTCHAR quoteright
ENCODING 8217
SWIDTH 245 0
DWIDTH 2 0
BBX 2 2 0 4
BITMAP
50
10
ENDCHAR
STARTCHAR quotesinglbase
ENCODING 8218
SWIDTH 243 0
DWIDTH 2 0
BBX 2 2 0 -1
BITMAP
50
10
ENDCHAR
STARTCHAR quotereversed
ENCODING 8219
SWIDTH 243 0
DWIDTH 2 0
BBX 2 2 0 4
BITMAP
50
40
ENDCHAR
STARTCHAR quotedblleft
ENCODING 8220
SWIDTH 435 0
DWIDTH 3 0
BBX 3 2 0 4
BITMAP
44
58
ENDCHAR
STARTCHAR quotedblright
ENCODING 8221
SWIDTH 434 0
DWIDTH 3 0
BBX 3 2 0 4
BITMAP
58
14
ENDCHAR
STARTCHAR quotedblbase
ENCODING 8222
SWIDTH 433 0
DWIDTH 3 0
BBX 3 2 0 -1
BITMAP
58
14
ENDCHAR
STARTCHAR uni201F
ENCODING 8223
SWIDTH 434 0
DWIDTH 3 0
BBX 3 2 0 4
BITMAP
58
44
ENDCHAR
STARTCHAR dagger
ENCODING 8224
SWIDTH 512 0
DWIDTH 4 0
BBX 4 6 0 0
BITMAP
14
04
59
14
14
04
ENDCHAR
STARTCHAR daggerdbl
ENCODING 8225
SWIDTH 512 0
DWIDTH 4 0
BBX 4 7 0 -1
BITMAP
14
04
69
14
04
55
14
ENDCHAR
STARTCHAR bullet
ENCODING 8226
SWIDTH 457 0
DWIDTH 4 0
BBX 2 2 1 1
BITMAP
E0
E0
ENDCHAR
STARTCHAR twodotenleader
ENCODING 8229
SWIDTH 500 0
DWIDTH 4 0
BBX 4 1 0 0
BITMAP
41
ENDCHAR
STARTCHAR ellipsis
ENCODING 8230
SWIDTH 887 0
DWIDTH 7 0
BBX 5 1 1 0
BITMAP
8880
ENDCHAR
STARTCHAR uni202F
ENCODING 8239
SWIDTH 125 0
DWIDTH 1 0
BBX 1 1 0 0
BITMAP
00
ENDCHAR
STARTCHAR perthousand
ENCODING 8240
SWIDTH 1017 0
DWIDTH 8 0
BBX 8 5 0 0
BITMAP
5540
8500
5545
0615
1255
ENDCHAR
STARTCHAR uni2031
ENCODING 8241
SWIDTH 1342 0
DWIDTH 11 0
BBX 11 5 0 0
BITMAP
554000
850000
554510
061584
125550
ENDCHAR
STARTCHAR minute
ENCODING 8242
SWIDTH 296 0
DWIDTH 2 0
BBX 2 2 0 4
BITMAP
20
50
ENDCHAR
STARTCHAR second
ENCODING 8243
SWIDTH 436 0
DWIDTH 3 0
BBX 3 2 0 4
BITMAP
28
54
ENDCHAR
STARTCHAR uni2034
ENCODING 8244
SWIDTH 576 0
DWIDTH 5 0
BBX 4 2 0 4
BITMAP
2A
56
ENDCHAR
STARTCHAR uni2035
ENCODING 8245
SWIDTH 296 0
DWIDTH 2 0
BBX 2 3 0 3
BITMAP
50
10
10
ENDCHAR
STARTCHAR uni2036
ENCODING 8246
SWIDTH 436 0
DWIDTH 3 0
BBX 3 3 0 3
BITMAP
64
28
10
ENDCHAR
STARTCHAR uni2037
ENCODING 8247
SWIDTH 576 0
DWIDTH 5 0
BBX 4 3 0 3
BITMAP
6A
2A
10
ENDCHAR
STARTCHAR uni2038
ENCODING 8248
SWIDTH 523 0
DWIDTH 4 0
BBX 4 2 0 -1
BITMAP
14
51
ENDCHAR
STARTCHAR guilsinglleft
ENCODING 8249
SWIDTH 307 0
DWIDTH 2 0
BBX 2 4 0 0
BITMAP
10
50
50
10
ENDCHAR
STARTCHAR guilsinglright
ENCODING 8250
SWIDTH 307 0
DWIDTH 2 0
BBX 2 3 0 0
BITMAP
10
20
40
ENDCHAR
STARTCHAR uni203B
ENCODING 8251
SWIDTH 701 0
DWIDTH 6 0
BBX 5 5 0 0
BITMAP
5980
1500
5980
1500
5980
ENDCHAR
STARTCHAR exclamdbl
ENCODING 8252
SWIDTH 565 0
DWIDTH 5 0
BBX 4 5 0 0
BITMAP
52
52
12
11
52
ENDCHAR
STARTCHAR uni203E
ENCODING 8254
SWIDTH 512 0
DWIDTH 4 0
BBX 4 1 0 6
BITMAP
55
ENDCHAR
STARTCHAR uni2040
ENCODING 8256
SWIDTH 810 0
DWIDTH 6 0
BBX 5 2 1 4
BITMAP
6900
4040
ENDCHAR
STARTCHAR uni2043
ENCODING 8259
SWIDTH 352 0
DWIDTH 3 0
BBX 3 2 0 1
BITMAP
B4
10
ENDCHAR
STARTCHAR fraction
ENCODING 8260
SWIDTH 205 0
DWIDTH 2 0
BBX 4 6 -1 0
BITMAP
01
04
04
10
50
40
ENDCHAR
STARTCHAR uni2047
ENCODING 8263
SWIDTH 822 0
DWIDTH 7 0
BBX 7 5 0 0
BITMAP
5960
4914
1420
1000
2050
ENDCHAR
STARTCHAR uni204B
ENCODING 8267
SWIDTH 605 0
DWIDTH 5 0
BBX 4 7 1 -2
BITMAP
A8
A5
A5
A4
A0
A0
A0
ENDCHAR
STARTCHAR uni204C
ENCODING 8268
SWIDTH 479 0
DWIDTH 4 0
BBX 3 3 0 1
BITMAP
24
74
24
ENDCHAR
STARTCHAR uni204D
ENCODING 8269
SWIDTH 479 0
DWIDTH 4 0
BBX 2 3 1 1
BITMAP
50
70
50
ENDCHAR
STARTCHAR uni204E
ENCODING 8270
SWIDTH 410 0
DWIDTH 3 0
BBX 3 3 0 -1
BITMAP
64
64
10
ENDCHAR
STARTCHAR uni204F
ENCODING 8271
SWIDTH 245 0
DWIDTH 2 0
BBX 2 5 0 -1
BITMAP
50
00
00
50
40
ENDCHAR
STARTCHAR uni2050
ENCODING 8272
SWIDTH 809 0
DWIDTH 6 0
BBX 6 6 0 0
BITMAP
1580
5010
0000
0000
5020
1540
ENDCHAR
STARTCHAR uni2051
ENCODING 8273
SWIDTH 410 0
DWIDTH 3 0
BBX 3 7 0 -1
BITMAP
10
64
64
00
64
64
10
ENDCHAR
STARTCHAR uni2052
ENCODING 8274
SWIDTH 482 0
DWIDTH 4 0
BBX 4 8 0 -2
BITMAP
55
08
08
14
10
20
10
45
ENDCHAR
STARTCHAR uni2057
ENCODING 8279
SWIDTH 727 0
DWIDTH 6 0
BBX 6 2 0 4
BITMAP
2A50
5680
ENDCHAR
STARTCHAR uni205F
ENCODING 8287
SWIDTH 222 0
DWIDTH 2 0
BBX 1 1 0 0
BITMAP
00
ENDCHAR
STARTCHAR uni2061
ENCODING 8289
SWIDTH 0 0
DWIDTH 0 0
BBX 1 1 0 0
BITMAP
00
ENDCHAR
STARTCHAR uni2062
ENCODING 8290
SWIDTH 0 0
DWIDTH 0 0
BBX 1 1 0 0
BITMAP
00
ENDCHAR
STARTCHAR uni2063
ENCODING 8291
SWIDTH 0 0
DWIDTH 0 0
BBX 1 1 0 0
BITMAP
00
ENDCHAR
STARTCHAR uni2064
ENCODING 8292
SWIDTH 0 0
DWIDTH 0 0
BBX 1 1 0 0
BITMAP
00
ENDCHAR
STARTCHAR zerosuperior
ENCODING 8304
SWIDTH 412 0
DWIDTH 3 0
BBX 3 4 0 2
BITMAP
54
88
88
54
ENDCHAR
STARTCHAR uni2071
ENCODING 8305
SWIDTH 245 0
DWIDTH 2 0
BBX 2 4 0 2
BITMAP
50
50
50
50
ENDCHAR
STARTCHAR foursuperior
ENCODING 8308
SWIDTH 403 0
DWIDTH 3 0
BBX 3 4 0 2
BITMAP
14
54
A8
04
ENDCHAR
STARTCHAR fivesuperior
ENCODING 8309
SWIDTH 358 0
DWIDTH 3 0
BBX 3 4 0 2
BITMAP
64
60
04
54
ENDCHAR
STARTCHAR sixsuperior
ENCODING 8310
SWIDTH 390 0
DWIDTH 3 0
BBX 3 4 0 2
BITMAP
10
94
88
54
ENDCHAR
STARTCHAR sevensuperior
ENCODING 8311
SWIDTH 364 0
DWIDTH 3 0
BBX 3 4 0 2
BITMAP
68
04
10
10
ENDCHAR
STARTCHAR eightsuperior
ENCODING 8312
SWIDTH 374 0
DWIDTH 3 0
BBX 3 4 0 2
BITMAP
54
54
58
54
ENDCHAR
STARTCHAR ninesuperior
ENCODING 8313
SWIDTH 390 0
DWIDTH 3 0
BBX 3 4 0 2
BITMAP
54
88
58
14
ENDCHAR
STARTCHAR uni207A
ENCODING 8314
SWIDTH 536 0
DWIDTH 4 0
BBX 4 4 0 2
BITMAP
04
04
59
04
ENDCHAR
STARTCHAR uni207B
ENCODING 8315
SWIDTH 536 0
DWIDTH 4 0
BBX 4 1 0 3
BITMAP
55
ENDCHAR
STARTCHAR uni207C
ENCODING 8316
SWIDTH 534 0
DWIDTH 4 0
BBX 4 2 0 2
BITMAP
55
55
ENDCHAR
STARTCHAR parenleftsuperior
ENCODING 8317
SWIDTH 268 0
DWIDTH 2 0
BBX 2 6 0 1
BITMAP
10
40
80
80
40
10
ENDCHAR
STARTCHAR parenrightsuperior
ENCODING 8318
SWIDTH 268 0
DWIDTH 2 0
BBX 2 6 0 1
BITMAP
40
10
20
20
10
40
ENDCHAR
STARTCHAR nsuperior
ENCODING 8319
SWIDTH 491 0
DWIDTH 4 0
BBX 4 3 0 2
BITMAP
58
55
55
ENDCHAR
STARTCHAR zeroinferior
ENCODING 8320
SWIDTH 412 0
DWIDTH 3 0
BBX 3 4 0 -2
BITMAP
54
88
88
54
ENDCHAR
STARTCHAR oneinferior
ENCODING 8321
SWIDTH 333 0
DWIDTH 3 0
BBX 2 4 0 -2
BITMAP
60
20
20
20
ENDCHAR
STARTCHAR twoinferior
ENCODING 8322
SWIDTH 373 0
DWIDTH 3 0
BBX 3 4 0 -2
BITMAP
64
08
10
A8
ENDCHAR
STARTCHAR threeinferior
ENCODING 8323
SWIDTH 374 0
DWIDTH 3 0
BBX 3 4 0 -2
BITMAP
64
24
08
54
ENDCHAR
STARTCHAR fourinferior
ENCODING 8324
SWIDTH 403 0
DWIDTH 3 0
BBX 3 4 0 -2
BITMAP
14
54
A8
04
ENDCHAR
STARTCHAR fiveinferior
ENCODING 8325
SWIDTH 358 0
DWIDTH 3 0
BBX 3 4 0 -2
BITMAP
64
60
04
54
ENDCHAR
STARTCHAR sixinferior
ENCODING 8326
SWIDTH 390 0
DWIDTH 3 0
BBX 3 4 0 -2
BITMAP
10
94
88
54
ENDCHAR
STARTCHAR seveninferior
ENCODING 8327
SWIDTH 364 0
DWIDTH 3 0
BBX 3 4 0 -2
BITMAP
68
04
10
10
ENDCHAR
STARTCHAR eightinferior
ENCODING 8328
SWIDTH 374 0
DWIDTH 3 0
BBX 3 4 0 -2
BITMAP
54
54
58
54
ENDCHAR
STARTCHAR nineinferior
ENCODING 8329
SWIDTH 390 0
DWIDTH 3 0
BBX 3 4 0 -2
BITMAP
54
88
58
14
ENDCHAR
STARTCHAR uni208A
ENCODING 8330
SWIDTH 536 0
DWIDTH 4 0
BBX 4 4 0 -2
BITMAP
04
04
59
04
ENDCHAR
STARTCHAR uni208B
ENCODING 8331
SWIDTH 536 0
DWIDTH 4 0
BBX 4 1 0 -1
BITMAP
55
ENDCHAR
STARTCHAR uni208C
ENCODING 8332
SWIDTH 534 0
DWIDTH 4 0
BBX 4 2 0 -2
BITMAP
55
55
ENDCHAR
STARTCHAR parenleftinferior
ENCODING 8333
SWIDTH 268 0
DWIDTH 2 0
BBX 2 6 0 -3
BITMAP
10
40
80
80
40
10
ENDCHAR
STARTCHAR parenrightinferior
ENCODING 8334
SWIDTH 268 0
DWIDTH 2 0
BBX 2 6 0 -3
BITMAP
40
10
20
20
10
40
ENDCHAR
STARTCHAR uni20A3
ENCODING 8355
SWIDTH 495 0
DWIDTH 4 0
BBX 4 6 0 0
BITMAP
65
21
20
64
20
60
ENDCHAR
STARTCHAR uni20A4
ENCODING 8356
SWIDTH 495 0
DWIDTH 4 0
BBX 4 5 0 0
BITMAP
15
64
64
20
69
ENDCHAR
STARTCHAR uni20A7
ENCODING 8359
SWIDTH 1193 0
DWIDTH 10 0
BBX 10 6 0 0
BITMAP
650000
225000
226280
255240
205090
702540
ENDCHAR
STARTCHAR uni20AB
ENCODING 8363
SWIDTH 495 0
DWIDTH 4 0
BBX 4 5 0 0
BITMAP
19
58
88
88
69
ENDCHAR
STARTCHAR Euro
ENCODING 8364
SWIDTH 495 0
DWIDTH 4 0
BBX 4 5 0 0
BITMAP
26
A5
94
50
29
ENDCHAR
STARTCHAR uni20B9
ENCODING 8377
SWIDTH 495 0
DWIDTH 4 0
BBX 4 6 0 0
BITMAP
59
5D
08
60
18
05
ENDCHAR
STARTCHAR uni20BA
ENCODING 8378
SWIDTH 495 0
DWIDTH 4 0
BBX 4 6 0 0
BITMAP
60
20
64
64
62
65
ENDCHAR
STARTCHAR uni20BD
ENCODING 8381
SWIDTH 495 0
DWIDTH 4 0
BBX 4 6 0 0
BITMAP
64
22
22
64
64
60
ENDCHAR
STARTCHAR uni20D0
ENCODING 8400
SWIDTH 0 0
DWIDTH 0 0
BBX 4 1 -4 5
BITMAP
55
ENDCHAR
STARTCHAR uni20D1
ENCODING 8401
SWIDTH 0 0
DWIDTH 0 0
BBX 4 1 -4 5
BITMAP
55
ENDCHAR
STARTCHAR uni20D2
ENCODING 8402
SWIDTH 0 0
DWIDTH 0 0
BBX 1 7 -2 -1
BITMAP
40
40
40
40
40
40
40
ENDCHAR
STARTCHAR uni20D3
ENCODING 8403
SWIDTH 0 0
DWIDTH 0 0
BBX 1 6 -2 -1
BITMAP
40
40
40
40
40
40
ENDCHAR
STARTCHAR uni20D4
ENCODING 8404
SWIDTH 0 0
DWIDTH 0 0
BBX 4 3 -4 4
BITMAP
14
41
40
ENDCHAR
STARTCHAR uni20D5
ENCODING 8405
SWIDTH 0 0
DWIDTH 0 0
BBX 5 3 -4 4
BITMAP
1400
4140
0100
ENDCHAR
STARTCHAR uni20D6
ENCODING 8406
SWIDTH 0 0
DWIDTH 0 0
BBX 4 1 -4 5
BITMAP
55
ENDCHAR
STARTCHAR uni20D7
ENCODING 8407
SWIDTH 0 0
DWIDTH 0 0
BBX 4 1 -4 5
BITMAP
56
ENDCHAR
STARTCHAR uni20D8
ENCODING 8408
SWIDTH 0 0
DWIDTH 0 0
BBX 3 3 -3 1
BITMAP
50
44
50
ENDCHAR
STARTCHAR uni20D9
ENCODING 8409
SWIDTH 0 0
DWIDTH 0 0
BBX 3 3 -3 1
BITMAP
50
54
50
ENDCHAR
STARTCHAR uni20DA
ENCODING 8410
SWIDTH 0 0
DWIDTH 0 0
BBX 3 3 -3 1
BITMAP
50
54
50
ENDCHAR
STARTCHAR uni20DB
ENCODING 8411
SWIDTH 0 0
DWIDTH 0 0
BBX 4 1 -4 4
BITMAP
45
ENDCHAR
STARTCHAR uni20DC
ENCODING 8412
SWIDTH 0 0
DWIDTH 0 0
BBX 6 1 -5 4
BITMAP
4550
ENDCHAR
STARTCHAR uni20DD
ENCODING 8413
SWIDTH 0 0
DWIDTH 0 0
BBX 8 8 -6 -2
BITMAP
0690
2408
5002
8002
8002
5002
2408
0690
ENDCHAR
STARTCHAR uni20DE
ENCODING 8414
SWIDTH 0 0
DWIDTH 0 0
BBX 8 8 -6 -2
BITMAP
AAAA
8001
8001
8001
8001
8001
8001
AAAA
ENDCHAR
STARTCHAR uni20DF
ENCODING 8415
SWIDTH 0 0
DWIDTH 0 0
BBX 10 10 -7 -3
BITMAP
006000
015800
050600
140180
500060
600050
180140
060500
019400
005000
ENDCHAR
STARTCHAR uni20E1
ENCODING 8417
SWIDTH 0 0
DWIDTH 0 0
BBX 4 1 -4 5
BITMAP
96
ENDCHAR
STARTCHAR uni20E4
ENCODING 8420
SWIDTH 0 0
DWIDTH 0 0
BBX 12 10 -8 -1
BITMAP
000400
002800
005600
008240
024080
060050
080020
140008
200005
6AAAAA
ENDCHAR
STARTCHAR uni20E5
ENCODING 8421
SWIDTH 0 0
DWIDTH 0 0
BBX 3 6 -3 -1
BITMAP
40
40
50
10
10
04
ENDCHAR
STARTCHAR uni20E6
ENCODING 8422
SWIDTH 0 0
DWIDTH 0 0
BBX 2 7 -3 -1
BITMAP
40
50
50
50
50
50
50
ENDCHAR
STARTCHAR uni20E7
ENCODING 8423
SWIDTH 0 0
DWIDTH 0 0
BBX 7 8 -5 -2
BITMAP
AAA4
0008
0008
0008
0008
0008
0008
0004
ENDCHAR
STARTCHAR uni20E8
ENCODING 8424
SWIDTH 0 0
DWIDTH 0 0
BBX 4 1 -4 -2
BITMAP
45
ENDCHAR
STARTCHAR uni20E9
ENCODING 8425
SWIDTH 0 0
DWIDTH 0 0
BBX 5 2 -4 4
BITMAP
9540
4000
ENDCHAR
STARTCHAR uni20EA
ENCODING 8426
SWIDTH 0 0
DWIDTH 0 0
BBX 6 3 -5 1
BITMAP
1000
AAA0
1000
ENDCHAR
STARTCHAR uni20EB
ENCODING 8427
SWIDTH 0 0
DWIDTH 0 0
BBX 6 8 -5 -2
BITMAP
0110
0140
0540
0440
0500
1100
1400
5400
ENDCHAR
STARTCHAR uni20EC
ENCODING 8428
SWIDTH 0 0
DWIDTH 0 0
BBX 4 1 -4 -2
BITMAP
56
ENDCHAR
STARTCHAR uni20ED
ENCODING 8429
SWIDTH 0 0
DWIDTH 0 0
BBX 4 1 -4 -2
BITMAP
55
ENDCHAR
STARTCHAR uni20EE
ENCODING 8430
SWIDTH 0 0
DWIDTH 0 0
BBX 4 1 -4 -2
BITMAP
55
ENDCHAR
STARTCHAR uni20EF
ENCODING 8431
SWIDTH 0 0
DWIDTH 0 0
BBX 4 1 -4 -2
BITMAP
56
ENDCHAR
STARTCHAR uni20F0
ENCODING 8432
SWIDTH 0 0
DWIDTH 0 0
BBX 2 3 -3 4
BITMAP
10
60
50
ENDCHAR
STARTCHAR uni2100
ENCODING 8448
SWIDTH 939 0
DWIDTH 8 0
BBX 7 6 0 0
BITMAP
5410
1810
4854
5554
0150
0424
ENDCHAR
STARTCHAR uni2101
ENCODING 8449
SWIDTH 936 0
DWIDTH 7 0
BBX 7 6 0 0
BITMAP
5410
1850
8854
5524
0108
0414
ENDCHAR
STARTCHAR uni2102
ENCODING 8450
SWIDTH 695 0
DWIDTH 6 0
BBX 5 6 0 0
BITMAP
1540
6040
5000
5000
6040
1540
ENDCHAR
STARTCHAR uni2103
ENCODING 8451
SWIDTH 1028 0
DWIDTH 8 0
BBX 8 6 0 0
BITMAP
1400
4496
1641
0200
0240
00A5
ENDCHAR
STARTCHAR uni2104
ENCODING 8452
SWIDTH 646 0
DWIDTH 5 0
BBX 5 6 0 0
BITMAP
1400
6900
9400
A400
2840
1540
ENDCHAR
STARTCHAR uni2105
ENCODING 8453
SWIDTH 953 0
DWIDTH 8 0
BBX 8 6 0 0
BITMAP
1410
4040
8154
6585
0485
0414
ENDCHAR
STARTCHAR uni2106
ENCODING 8454
SWIDTH 1072 0
DWIDTH 9 0
BBX 8 6 0 0
BITMAP
1410
4440
8051
2522
0522
0416
ENDCHAR
STARTCHAR uni2107
ENCODING 8455
SWIDTH 612 0
DWIDTH 5 0
BBX 5 6 0 0
BITMAP
2540
5040
2400
9000
9140
1500
ENDCHAR
STARTCHAR uni2108
ENCODING 8456
SWIDTH 669 0
DWIDTH 5 0
BBX 5 6 0 0
BITMAP
5500
4080
09C0
04C0
4180
1900
ENDCHAR
STARTCHAR uni2109
ENCODING 8457
SWIDTH 949 0
DWIDTH 8 0
BBX 8 6 0 0
BITMAP
1400
4595
1484
0098
0080
0180
ENDCHAR
STARTCHAR uni210A
ENCODING 8458
SWIDTH 657 0
DWIDTH 5 0
BBX 5 6 0 -2
BITMAP
0640
1140
6240
2600
4200
5400
ENDCHAR
STARTCHAR uni210B
ENCODING 8459
SWIDTH 951 0
DWIDTH 8 0
BBX 8 6 0 0
BITMAP
0605
2210
0660
0420
0450
5014
ENDCHAR
STARTCHAR uni210C
ENCODING 8460
SWIDTH 728 0
DWIDTH 6 0
BBX 6 6 0 -1
BITMAP
1A00
2240
2890
1850
6080
1940
ENDCHAR
STARTCHAR uni210D
ENCODING 8461
SWIDTH 715 0
DWIDTH 6 0
BBX 5 6 0 0
BITMAP
5040
5040
5040
5540
5040
5040
ENDCHAR
STARTCHAR uni210E
ENCODING 8462
SWIDTH 569 0
DWIDTH 5 0
BBX 4 6 0 0
BITMAP
10
20
26
22
52
42
ENDCHAR
STARTCHAR uni210F
ENCODING 8463
SWIDTH 569 0
DWIDTH 5 0
BBX 4 6 0 0
BITMAP
10
24
66
22
52
42
ENDCHAR
STARTCHAR uni2110
ENCODING 8464
SWIDTH 496 0
DWIDTH 4 0
BBX 4 6 0 0
BITMAP
06
12
05
04
08
50
ENDCHAR
STARTCHAR uni2111
ENCODING 8465
SWIDTH 673 0
DWIDTH 5 0
BBX 5 6 0 -1
BITMAP
2900
5240
1200
6180
2580
0500
ENDCHAR
STARTCHAR uni2112
ENCODING 8466
SWIDTH 699 0
DWIDTH 6 0
BBX 5 6 0 0
BITMAP
0540
0840
1400
2000
6040
4A40
ENDCHAR
STARTCHAR uni2113
ENCODING 8467
SWIDTH 529 0
DWIDTH 4 0
BBX 4 6 0 0
BITMAP
05
05
25
60
54
10
ENDCHAR
STARTCHAR uni2114
ENCODING 8468
SWIDTH 787 0
DWIDTH 6 0
BBX 6 6 0 0
BITMAP
5500
1250
5520
5520
5520
5140
ENDCHAR
STARTCHAR uni2115
ENCODING 8469
SWIDTH 692 0
DWIDTH 6 0
BBX 5 6 0 0
BITMAP
5040
5440
5540
4540
4180
4140
ENDCHAR
STARTCHAR uni2116
ENCODING 8470
SWIDTH 1070 0
DWIDTH 9 0
BBX 9 6 0 0
BITMAP
141400
181500
165540
125540
508500
904500
ENDCHAR
STARTCHAR uni2117
ENCODING 8471
SWIDTH 781 0
DWIDTH 6 0
BBX 6 6 0 0
BITMAP
0540
1550
4910
4810
1810
0540
ENDCHAR
STARTCHAR uni2118
ENCODING 8472
SWIDTH 846 0
DWIDTH 7 0
BBX 7 7 0 -2
BITMAP
1400
6150
9514
2920
2950
5800
1400
ENDCHAR
STARTCHAR uni2119
ENCODING 8473
SWIDTH 665 0
DWIDTH 5 0
BBX 5 6 0 0
BITMAP
5540
5140
5140
5540
5000
5000
ENDCHAR
STARTCHAR uni211A
ENCODING 8474
SWIDTH 751 0
DWIDTH 6 0
BBX 6 7 0 -1
BITMAP
1540
2080
5050
5050
5050
1580
0150
ENDCHAR
STARTCHAR uni211B
ENCODING 8475
SWIDTH 789 0
DWIDTH 6 0
BBX 6 6 0 0
BITMAP
0640
2220
0550
0A40
0480
5090
ENDCHAR
STARTCHAR uni211C
ENCODING 8476
SWIDTH 778 0
DWIDTH 6 0
BBX 6 6 0 0
BITMAP
1580
9C80
2980
1980
14C0
6090
ENDCHAR
STARTCHAR uni211D
ENCODING 8477
SWIDTH 729 0
DWIDTH 6 0
BBX 6 6 0 0
BITMAP
5540
5140
5140
5640
5140
5050
ENDCHAR
STARTCHAR uni211E
ENCODING 8478
SWIDTH 725 0
DWIDTH 6 0
BBX 5 6 0 0
BITMAP
6500
2140
2240
2900
2240
6580
ENDCHAR
STARTCHAR uni211F
ENCODING 8479
SWIDTH 659 0
DWIDTH 5 0
BBX 5 9 0 -2
BITMAP
0500
6600
2740
2640
2900
3200
6040
1000
1400
ENDCHAR
STARTCHAR uni2120
ENCODING 8480
SWIDTH 937 0
DWIDTH 8 0
BBX 7 4 0 2
BITMAP
6508
5158
1558
5504
ENDCHAR
STARTCHAR uni2121
ENCODING 8481
SWIDTH 1200 0
DWIDTH 10 0
BBX 9 4 0 2
BITMAP
555500
209200
204200
115540
ENDCHAR
STARTCHAR trademark
ENCODING 8482
SWIDTH 881 0
DWIDTH 7 0
BBX 7 3 0 2
BITMAP
5514
2194
1154
ENDCHAR
STARTCHAR uni2123
ENCODING 8483
SWIDTH 680 0
DWIDTH 5 0
BBX 5 9 0 -2
BITMAP
0500
5180
6140
2540
1900
1900
1800
1000
1400
ENDCHAR
STARTCHAR uni2124
ENCODING 8484
SWIDTH 648 0
DWIDTH 5 0
BBX 5 6 0 0
BITMAP
5540
0540
0500
1400
5400
5540
ENDCHAR
STARTCHAR uni2125
ENCODING 8485
SWIDTH 434 0
DWIDTH 3 0
BBX 4 8 0 -2
BITMAP
58
24
68
24
08
09
08
50
ENDCHAR
STARTCHAR uni2126
ENCODING 8486
SWIDTH 763 0
DWIDTH 6 0
BBX 6 6 0 0
BITMAP
1540
6090
9060
6050
2580
A5A0
ENDCHAR
STARTCHAR uni2127
ENCODING 8487
SWIDTH 763 0
DWIDTH 6 0
BBX 6 6 0 0
BITMAP
A5A0
1580
6050
9060
6090
1540
ENDCHAR
STARTCHAR uni2128
ENCODING 8488
SWIDTH 641 0
DWIDTH 5 0
BBX 5 8 0 -2
BITMAP
1500
1140
0140
0A00
0180
6080
2540
0500
ENDCHAR
STARTCHAR uni2129
ENCODING 8489
SWIDTH 368 0
DWIDTH 3 0
BBX 3 4 0 0
BITMAP
60
24
24
24
ENDCHAR
STARTCHAR uni212A
ENCODING 8490
SWIDTH 702 0
DWIDTH 6 0
BBX 5 5 0 0
BITMAP
7180
2500
2800
2600
7180
ENDCHAR
STARTCHAR uni212B
ENCODING 8491
SWIDTH 722 0
DWIDTH 6 0
BBX 6 7 0 0
BITMAP
0500
0500
0900
1200
1640
1080
5090
ENDCHAR
STARTCHAR uni212C
ENCODING 8492
SWIDTH 754 0
DWIDTH 6 0
BBX 6 6 0 0
BITMAP
1650
2550
0580
0450
0450
6940
ENDCHAR
STARTCHAR uni212D
ENCODING 8493
SWIDTH 639 0
DWIDTH 5 0
BBX 5 6 0 0
BITMAP
1640
5500
9900
9200
6540
1A00
ENDCHAR
STARTCHAR estimated
ENCODING 8494
SWIDTH 863 0
DWIDTH 7 0
BBX 7 6 0 0
BITMAP
0540
1020
A554
9000
2010
0540
ENDCHAR
STARTCHAR uni212F
ENCODING 8495
SWIDTH 527 0
DWIDTH 4 0
BBX 4 5 0 0
BITMAP
05
15
68
91
24
ENDCHAR
STARTCHAR uni2130
ENCODING 8496
SWIDTH 572 0
DWIDTH 5 0
BBX 5 6 0 0
BITMAP
0500
2040
1400
9000
8100
1400
ENDCHAR
STARTCHAR uni2131
ENCODING 8497
SWIDTH 713 0
DWIDTH 6 0
BBX 6 6 0 0
BITMAP
0690
2200
0640
0500
0400
5000
ENDCHAR
STARTCHAR uni2132
ENCODING 8498
SWIDTH 588 0
DWIDTH 5 0
BBX 4 6 0 0
BITMAP
06
02
02
26
42
56
ENDCHAR
STARTCHAR uni2133
ENCODING 8499
SWIDTH 1038 0
DWIDTH 8 0
BBX 9 6 0 0
BITMAP
180540
061800
061800
064800
124800
510900
ENDCHAR
STARTCHAR uni2134
ENCODING 8500
SWIDTH 691 0
DWIDTH 6 0
BBX 6 5 0 0
BITMAP
0500
1550
3180
A140
1500
ENDCHAR
STARTCHAR uni2135
ENCODING 8501
SWIDTH 698 0
DWIDTH 6 0
BBX 5 6 0 0
BITMAP
4140
60C0
2840
5740
2180
1040
ENDCHAR
STARTCHAR uni2136
ENCODING 8502
SWIDTH 654 0
DWIDTH 5 0
BBX 5 5 0 0
BITMAP
6E00
0140
0040
0100
6B40
ENDCHAR
STARTCHAR uni2137
ENCODING 8503
SWIDTH 517 0
DWIDTH 4 0
BBX 4 6 0 0
BITMAP
10
2C
04
04
09
62
ENDCHAR
STARTCHAR uni2138
ENCODING 8504
SWIDTH 613 0
DWIDTH 5 0
BBX 4 6 0 0
BITMAP
40
6E
01
02
02
02
ENDCHAR
STARTCHAR uni2139
ENCODING 8505
SWIDTH 361 0
DWIDTH 3 0
BBX 3 6 0 0
BITMAP
70
20
70
70
70
64
ENDCHAR
STARTCHAR uni213A
ENCODING 8506
SWIDTH 907 0
DWIDTH 7 0
BBX 7 5 0 0
BITMAP
1A44
5018
4024
5050
1A80
ENDCHAR
STARTCHAR uni213B
ENCODING 8507
SWIDTH 1216 0
DWIDTH 10 0
BBX 10 4 0 2
BITMAP
548540
559240
516180
511450
ENDCHAR
STARTCHAR uni213C
ENCODING 8508
SWIDTH 689 0
DWIDTH 6 0
BBX 5 4 0 0
BITMAP
6540
2500
2500
1140
ENDCHAR
STARTCHAR uni213D
ENCODING 8509
SWIDTH 552 0
DWIDTH 4 0
BBX 4 6 0 -2
BITMAP
51
55
18
09
15
04
ENDCHAR
STARTCHAR uni213E
ENCODING 8510
SWIDTH 550 0
DWIDTH 4 0
BBX 4 6 0 0
BITMAP
55
50
50
50
50
50
ENDCHAR
STARTCHAR uni213F
ENCODING 8511
SWIDTH 714 0
DWIDTH 6 0
BBX 5 6 0 0
BITMAP
5540
5140
5140
5140
5140
5040
ENDCHAR
STARTCHAR uni2140
ENCODING 8512
SWIDTH 945 0
DWIDTH 8 0
BBX 7 9 0 -2
BITMAP
6950
1500
1200
0840
0580
0840
1600
1500
6954
ENDCHAR
STARTCHAR uni2141
ENCODING 8513
SWIDTH 711 0
DWIDTH 6 0
BBX 6 6 0 0
BITMAP
2A40
5080
6050
0050
5080
2A00
ENDCHAR
STARTCHAR uni2142
ENCODING 8514
SWIDTH 572 0
DWIDTH 5 0
BBX 4 6 0 0
BITMAP
6A
02
02
02
02
02
ENDCHAR
STARTCHAR uni2143
ENCODING 8515
SWIDTH 572 0
DWIDTH 5 0
BBX 4 6 0 0
BITMAP
02
02
02
02
02
6A
ENDCHAR
STARTCHAR uni2144
ENCODING 8516
SWIDTH 645 0
DWIDTH 5 0
BBX 5 6 0 0
BITMAP
0400
0800
0800
1D00
2200
5080
ENDCHAR
STARTCHAR uni2145
ENCODING 8517
SWIDTH 717 0
DWIDTH 6 0
BBX 6 6 0 0
BITMAP
1540
1450
5050
5050
5180
5500
ENDCHAR
STARTCHAR uni2146
ENCODING 8518
SWIDTH 607 0
DWIDTH 5 0
BBX 5 6 0 0
BITMAP
0140
0140
1540
5140
5500
5500
ENDCHAR
STARTCHAR uni2147
ENCODING 8519
SWIDTH 520 0
DWIDTH 4 0
BBX 4 4 0 0
BITMAP
14
55
91
14
ENDCHAR
STARTCHAR uni2148
ENCODING 8520
SWIDTH 285 0
DWIDTH 2 0
BBX 3 6 0 0
BITMAP
14
14
50
50
50
50
ENDCHAR
STARTCHAR uni2149
ENCODING 8521
SWIDTH 284 0
DWIDTH 2 0
BBX 4 8 -1 -2
BITMAP
05
05
04
14
14
14
20
50
ENDCHAR
STARTCHAR uni214A
ENCODING 8522
SWIDTH 680 0
DWIDTH 5 0
BBX 5 6 0 0
BITMAP
0400
6A40
8480
0A40
0400
0A40
ENDCHAR
STARTCHAR uni214B
ENCODING 8523
SWIDTH 736 0
DWIDTH 6 0
BBX 6 6 0 0
BITMAP
6590
0D20
1250
2240
0480
0540
ENDCHAR
STARTCHAR uni214C
ENCODING 8524
SWIDTH 794 0
DWIDTH 6 0
BBX 6 6 0 0
BITMAP
5150
2920
55A0
2A50
1500
0400
ENDCHAR
STARTCHAR uni214D
ENCODING 8525
SWIDTH 1010 0
DWIDTH 8 0
BBX 8 6 0 0
BITMAP
1404
1410
5855
4558
0102
0115
ENDCHAR
STARTCHAR uni214E
ENCODING 8526
SWIDTH 473 0
DWIDTH 4 0
BBX 3 5 0 0
BITMAP
04
08
6C
08
68
ENDCHAR
STARTCHAR uni214F
ENCODING 8527
SWIDTH 1161 0
DWIDTH 9 0
BBX 9 4 0 0
BITMAP
189600
151500
149500
AAAA80
ENDCHAR
STARTCHAR onethird
ENCODING 8531
SWIDTH 899 0
DWIDTH 7 0
BBX 6 6 1 0
BITMAP
0100
8100
8450
4420
1050
5150
ENDCHAR
STARTCHAR twothirds
ENCODING 8532
SWIDTH 948 0
DWIDTH 8 0
BBX 7 6 0 0
BITMAP
0010
5440
1458
6508
0518
0414
ENDCHAR
STARTCHAR uni2155
ENCODING 8533
SWIDTH 867 0
DWIDTH 7 0
BBX 6 6 1 0
BITMAP
0100
8100
8590
4580
1010
5150
ENDCHAR
STARTCHAR uni2156
ENCODING 8534
SWIDTH 916 0
DWIDTH 7 0
BBX 7 6 0 0
BITMAP
0010
5440
1464
A524
0504
0414
ENDCHAR
STARTCHAR uni2157
ENCODING 8535
SWIDTH 896 0
DWIDTH 7 0
BBX 7 6 0 0
BITMAP
0050
6440
1524
5524
0404
0454
ENDCHAR
STARTCHAR uni2158
ENCODING 8536
SWIDTH 929 0
DWIDTH 7 0
BBX 7 6 0 0
BITMAP
0010
1440
6858
0124
0504
0414
ENDCHAR
STARTCHAR uni2159
ENCODING 8537
SWIDTH 871 0
DWIDTH 7 0
BBX 6 6 1 0
BITMAP
0100
8100
8440
4650
1220
5150
ENDCHAR
STARTCHAR uni215A
ENCODING 8538
SWIDTH 871 0
DWIDTH 7 0
BBX 7 6 0 0
BITMAP
0040
7440
0510
5194
0488
1454
ENDCHAR
STARTCHAR oneeighth
ENCODING 8539
SWIDTH 887 0
DWIDTH 7 0
BBX 6 6 1 0
BITMAP
0100
8100
8550
4550
11A0
5150
ENDCHAR
STARTCHAR threeeighths
ENCODING 8540
SWIDTH 911 0
DWIDTH 7 0
BBX 7 6 0 0
BITMAP
0050
6440
1554
5564
0468
0454
ENDCHAR
STARTCHAR fiveeighths
ENCODING 8541
SWIDTH 891 0
DWIDTH 7 0
BBX 7 6 0 0
BITMAP
0040
7440
0554
5554
0468
1454
ENDCHAR
STARTCHAR seveneighths
ENCODING 8542
SWIDTH 847 0
DWIDTH 7 0
BBX 7 6 0 0
BITMAP
0040
A500
1150
1490
0460
1054
ENDCHAR
STARTCHAR uni2190
ENCODING 8592
SWIDTH 948 0
DWIDTH 8 0
BBX 6 3 1 1
BITMAP
5000
EAA0
1000
ENDCHAR
STARTCHAR uni2191
ENCODING 8593
SWIDTH 523 0
DWIDTH 4 0
BBX 2 6 1 -1
BITMAP
60
50
50
50
50
50
ENDCHAR
STARTCHAR uni2192
ENCODING 8594
SWIDTH 948 0
DWIDTH 8 0
BBX 7 3 0 1
BITMAP
0010
6AA8
0010
ENDCHAR
STARTCHAR uni2193
ENCODING 8595
SWIDTH 523 0
DWIDTH 4 0
BBX 3 7 1 -1
BITMAP
10
50
50
50
50
A4
50
ENDCHAR
STARTCHAR uni2194
ENCODING 8596
SWIDTH 948 0
DWIDTH 8 0
BBX 7 3 0 1
BITMAP
1010
7AAC
1010
ENDCHAR
STARTCHAR uni2195
ENCODING 8597
SWIDTH 523 0
DWIDTH 4 0
BBX 3 8 1 -2
BITMAP
50
A4
50
50
50
50
A4
50
ENDCHAR
STARTCHAR uni2196
ENCODING 8598
SWIDTH 948 0
DWIDTH 8 0
BBX 7 7 0 -2
BITMAP
6400
2400
0500
0140
0090
0024
0004
ENDCHAR
STARTCHAR uni2197
ENCODING 8599
SWIDTH 948 0
DWIDTH 8 0
BBX 7 7 0 -2
BITMAP
0018
0024
0080
0200
0900
2400
5000
ENDCHAR
STARTCHAR uni2198
ENCODING 8600
SWIDTH 948 0
DWIDTH 8 0
BBX 6 6 1 -1
BITMAP
8000
2000
0800
0200
0090
0060
ENDCHAR
STARTCHAR uni2199
ENCODING 8601
SWIDTH 948 0
DWIDTH 8 0
BBX 7 7 0 -1
BITMAP
0004
0014
0050
0140
0500
2400
6400
ENDCHAR
STARTCHAR uni219A
ENCODING 8602
SWIDTH 948 0
DWIDTH 8 0
BBX 7 3 0 1
BITMAP
1450
7AA8
1540
ENDCHAR
STARTCHAR uni219B
ENCODING 8603
SWIDTH 948 0
DWIDTH 8 0
BBX 7 3 0 1
BITMAP
0110
6AA8
0410
ENDCHAR
STARTCHAR uni219C
ENCODING 8604
SWIDTH 948 0
DWIDTH 8 0
BBX 7 2 0 1
BITMAP
7464
1644
ENDCHAR
STARTCHAR uni219D
ENCODING 8605
SWIDTH 948 0
DWIDTH 8 0
BBX 7 2 0 1
BITMAP
1928
4194
ENDCHAR
STARTCHAR uni219E
ENCODING 8606
SWIDTH 948 0
DWIDTH 8 0
BBX 6 3 1 1
BITMAP
5400
EEA0
1400
ENDCHAR
STARTCHAR uni219F
ENCODING 8607
SWIDTH 523 0
DWIDTH 4 0
BBX 3 6 1 -1
BITMAP
60
50
A4
50
50
50
ENDCHAR
STARTCHAR uni21A0
ENCODING 8608
SWIDTH 948 0
DWIDTH 8 0
BBX 7 3 0 1
BITMAP
0110
6AE8
0110
ENDCHAR
STARTCHAR uni21A1
ENCODING 8609
SWIDTH 523 0
DWIDTH 4 0
BBX 3 7 1 -1
BITMAP
10
50
50
54
60
A4
50
ENDCHAR
STARTCHAR uni21A2
ENCODING 8610
SWIDTH 948 0
DWIDTH 8 0
BBX 6 3 1 1
BITMAP
5010
EA80
1010
ENDCHAR
STARTCHAR uni21A3
ENCODING 8611
SWIDTH 948 0
DWIDTH 8 0
BBX 6 3 1 1
BITMAP
4040
AAA0
4040
ENDCHAR
STARTCHAR uni21A4
ENCODING 8612
SWIDTH 948 0
DWIDTH 8 0
BBX 6 3 1 1
BITMAP
5010
EAA0
5010
ENDCHAR
STARTCHAR uni21A5
ENCODING 8613
SWIDTH 523 0
DWIDTH 4 0
BBX 4 7 0 -2
BITMAP
14
19
14
14
14
14
59
ENDCHAR
STARTCHAR uni21A6
ENCODING 8614
SWIDTH 948 0
DWIDTH 8 0
BBX 7 3 0 1
BITMAP
4010
6AA8
4010
ENDCHAR
STARTCHAR uni21A7
ENCODING 8615
SWIDTH 523 0
DWIDTH 4 0
BBX 4 7 0 -1
BITMAP
59
14
14
14
14
19
18
ENDCHAR
STARTCHAR uni21A8
ENCODING 8616
SWIDTH 523 0
DWIDTH 4 0
BBX 4 7 0 -2
BITMAP
14
19
14
14
15
18
55
ENDCHAR
STARTCHAR uni21A9
ENCODING 8617
SWIDTH 948 0
DWIDTH 8 0
BBX 6 4 1 1
BITMAP
0090
1020
EA90
1000
ENDCHAR
STARTCHAR uni21AA
ENCODING 8618
SWIDTH 948 0
DWIDTH 8 0
BBX 7 4 0 1
BITMAP
2400
5010
2AA8
0010
ENDCHAR
STARTCHAR uni21AB
ENCODING 8619
SWIDTH 948 0
DWIDTH 8 0
BBX 6 5 1 0
BITMAP
0190
1220
EA90
5200
0100
ENDCHAR
STARTCHAR uni21AC
ENCODING 8620
SWIDTH 948 0
DWIDTH 8 0
BBX 7 5 0 0
BITMAP
2800
5510
2AA8
0510
0500
ENDCHAR
STARTCHAR uni21AD
ENCODING 8621
SWIDTH 1229 0
DWIDTH 10 0
BBX 9 3 0 1
BITMAP
105140
7852C0
120540
ENDCHAR
STARTCHAR uni21AE
ENCODING 8622
SWIDTH 948 0
DWIDTH 8 0
BBX 7 3 0 1
BITMAP
1050
7AAC
1110
ENDCHAR
STARTCHAR uni21AF
ENCODING 8623
SWIDTH 523 0
DWIDTH 4 0
BBX 4 7 0 -1
BITMAP
01
08
14
29
08
60
64
ENDCHAR
STARTCHAR uni21B0
ENCODING 8624
SWIDTH 474 0
DWIDTH 4 0
BBX 4 7 0 -2
BITMAP
10
79
15
01
01
01
01
ENDCHAR
STARTCHAR uni21B1
ENCODING 8625
SWIDTH 474 0
DWIDTH 4 0
BBX 4 7 0 -2
BITMAP
14
AD
94
80
80
80
40
ENDCHAR
STARTCHAR uni21B2
ENCODING 8626
SWIDTH 474 0
DWIDTH 4 0
BBX 4 7 0 -1
BITMAP
01
01
01
01
15
79
10
ENDCHAR
STARTCHAR uni21B3
ENCODING 8627
SWIDTH 474 0
DWIDTH 4 0
BBX 4 7 0 -1
BITMAP
40
80
80
80
94
6D
14
ENDCHAR
STARTCHAR uni21B4
ENCODING 8628
SWIDTH 948 0
DWIDTH 8 0
BBX 7 7 0 -1
BITMAP
6A90
0020
0020
0020
0020
0064
0010
ENDCHAR
STARTCHAR uni21B5
ENCODING 8629
SWIDTH 948 0
DWIDTH 8 0
BBX 6 7 1 -1
BITMAP
0010
0020
0020
0020
1020
EAA0
1000
ENDCHAR
STARTCHAR uni21B6
ENCODING 8630
SWIDTH 948 0
DWIDTH 8 0
BBX 6 5 1 0
BITMAP
0A40
2020
5010
A000
4000
ENDCHAR
STARTCHAR uni21B7
ENCODING 8631
SWIDTH 948 0
DWIDTH 8 0
BBX 7 5 0 0
BITMAP
1A40
2050
4020
0064
0010
ENDCHAR
STARTCHAR uni21B8
ENCODING 8632
SWIDTH 948 0
DWIDTH 8 0
BBX 7 8 0 -2
BITMAP
6AA8
6400
6400
0500
0140
0050
0014
0004
ENDCHAR
STARTCHAR uni21B9
ENCODING 8633
SWIDTH 948 0
DWIDTH 8 0
BBX 7 6 0 -1
BITMAP
4400
6AA8
4400
0014
6AB8
0014
ENDCHAR
STARTCHAR uni21BA
ENCODING 8634
SWIDTH 997 0
DWIDTH 8 0
BBX 6 7 1 -1
BITMAP
0150
2190
8060
8020
8020
5050
1A40
ENDCHAR
STARTCHAR uni21BB
ENCODING 8635
SWIDTH 997 0
DWIDTH 8 0
BBX 6 7 1 -1
BITMAP
5400
7480
9020
8020
8020
5050
1A40
ENDCHAR
STARTCHAR uni21BC
ENCODING 8636
SWIDTH 978 0
DWIDTH 8 0
BBX 7 2 1 2
BITMAP
5000
AAA4
ENDCHAR
STARTCHAR uni21BD
ENCODING 8637
SWIDTH 978 0
DWIDTH 8 0
BBX 7 2 1 1
BITMAP
AAA4
5000
ENDCHAR
STARTCHAR uni21BE
ENCODING 8638
SWIDTH 523 0
DWIDTH 4 0
BBX 2 6 1 -1
BITMAP
60
50
50
50
50
50
ENDCHAR
STARTCHAR uni21BF
ENCODING 8639
SWIDTH 523 0
DWIDTH 4 0
BBX 2 7 1 -1
BITMAP
10
90
50
50
50
50
50
ENDCHAR
STARTCHAR uni21C0
ENCODING 8640
SWIDTH 978 0
DWIDTH 8 0
BBX 7 2 0 2
BITMAP
0010
6AA8
ENDCHAR
STARTCHAR uni21C1
ENCODING 8641
SWIDTH 978 0
DWIDTH 8 0
BBX 7 2 0 1
BITMAP
6AA8
0010
ENDCHAR
STARTCHAR uni21C2
ENCODING 8642
SWIDTH 523 0
DWIDTH 4 0
BBX 3 7 1 -1
BITMAP
10
50
50
50
50
54
50
ENDCHAR
STARTCHAR uni21C3
ENCODING 8643
SWIDTH 523 0
DWIDTH 4 0
BBX 2 7 1 -1
BITMAP
10
50
50
50
50
50
50
ENDCHAR
STARTCHAR uni21C4
ENCODING 8644
SWIDTH 948 0
DWIDTH 8 0
BBX 7 6 0 -1
BITMAP
0010
6AA8
0010
1400
3AA8
0400
ENDCHAR
STARTCHAR uni21C5
ENCODING 8645
SWIDTH 791 0
DWIDTH 6 0
BBX 5 7 1 -1
BITMAP
4100
9200
4200
4200
4200
4640
4200
ENDCHAR
STARTCHAR uni21C6
ENCODING 8646
SWIDTH 948 0
DWIDTH 8 0
BBX 7 6 0 -1
BITMAP
0400
3AA8
1400
0010
6AA8
0010
ENDCHAR
STARTCHAR uni21C7
ENCODING 8647
SWIDTH 948 0
DWIDTH 8 0
BBX 6 6 1 -1
BITMAP
1000
EAA0
5000
5000
EAA0
1000
ENDCHAR
STARTCHAR uni21C8
ENCODING 8648
SWIDTH 791 0
DWIDTH 6 0
BBX 5 7 1 -1
BITMAP
4100
9640
4200
4200
4200
4200
4200
ENDCHAR
STARTCHAR uni21C9
ENCODING 8649
SWIDTH 948 0
DWIDTH 8 0
BBX 7 6 0 -1
BITMAP
0010
6AA8
0010
0010
6AA8
0010
ENDCHAR
STARTCHAR uni21CA
ENCODING 8650
SWIDTH 791 0
DWIDTH 6 0
BBX 6 7 0 -1
BITMAP
1040
1080
1080
1080
1080
6990
1480
ENDCHAR
STARTCHAR uni21CB
ENCODING 8651
SWIDTH 948 0
DWIDTH 8 0
BBX 7 5 0 0
BITMAP
0400
2AA8
0000
6AA4
0010
ENDCHAR
STARTCHAR uni21CC
ENCODING 8652
SWIDTH 948 0
DWIDTH 8 0
BBX 7 5 0 0
BITMAP
0010
6AA4
0000
2AA8
0400
ENDCHAR
STARTCHAR uni21CD
ENCODING 8653
SWIDTH 948 0
DWIDTH 8 0
BBX 7 5 0 0
BITMAP
0004
1AA8
6010
1AA8
0540
ENDCHAR
STARTCHAR uni21CE
ENCODING 8654
SWIDTH 948 0
DWIDTH 8 0
BBX 8 5 0 0
BITMAP
0450
2AA4
9109
2AA4
0510
ENDCHAR
STARTCHAR uni21CF
ENCODING 8655
SWIDTH 948 0
DWIDTH 8 0
BBX 7 5 0 0
BITMAP
0140
6A90
0408
6AA0
1040
ENDCHAR
STARTCHAR uni21D0
ENCODING 8656
SWIDTH 887 0
DWIDTH 7 0
BBX 7 5 0 0
BITMAP
0500
1AA8
6000
1AA8
0500
ENDCHAR
STARTCHAR uni21D1
ENCODING 8657
SWIDTH 720 0
DWIDTH 6 0
BBX 4 7 1 -2
BITMAP
14
58
99
58
58
58
54
ENDCHAR
STARTCHAR uni21D2
ENCODING 8658
SWIDTH 887 0
DWIDTH 7 0
BBX 7 5 0 0
BITMAP
0140
AA90
0014
AA90
0140
ENDCHAR
STARTCHAR uni21D3
ENCODING 8659
SWIDTH 720 0
DWIDTH 6 0
BBX 4 7 1 -1
BITMAP
14
58
58
58
9A
58
14
ENDCHAR
STARTCHAR uni21D4
ENCODING 8660
SWIDTH 948 0
DWIDTH 8 0
BBX 8 5 0 0
BITMAP
0410
2AA4
9009
2AA4
0410
ENDCHAR
STARTCHAR uni21D5
ENCODING 8661
SWIDTH 720 0
DWIDTH 6 0
BBX 4 8 1 -2
BITMAP
14
58
99
58
58
99
58
14
ENDCHAR
STARTCHAR uni21D6
ENCODING 8662
SWIDTH 948 0
DWIDTH 8 0
BBX 7 7 0 -2
BITMAP
6E00
5600
6580
0520
0148
0050
0010
ENDCHAR
STARTCHAR uni21D7
ENCODING 8663
SWIDTH 948 0
DWIDTH 8 0
BBX 7 7 0 -1
BITMAP
0004
01A8
0088
0228
1884
6200
0800
ENDCHAR
STARTCHAR uni21D8
ENCODING 8664
SWIDTH 948 0
DWIDTH 8 0
BBX 7 7 0 -1
BITMAP
0400
4900
2240
0884
0218
0088
01A8
ENDCHAR
STARTCHAR uni21D9
ENCODING 8665
SWIDTH 948 0
DWIDTH 8 0
BBX 7 7 0 -1
BITMAP
0010
0054
0154
0550
6540
5600
6900
ENDCHAR
STARTCHAR uni21DA
ENCODING 8666
SWIDTH 872 0
DWIDTH 7 0
BBX 7 6 0 -1
BITMAP
0500
1AA8
7AA8
1000
0AA8
0100
ENDCHAR
STARTCHAR uni21DB
ENCODING 8667
SWIDTH 872 0
DWIDTH 7 0
BBX 7 6 0 -1
BITMAP
0140
AA90
AAB4
0010
AA80
0100
ENDCHAR
STARTCHAR uni21DC
ENCODING 8668
SWIDTH 948 0
DWIDTH 8 0
BBX 7 3 0 1
BITMAP
1440
7AA8
1510
ENDCHAR
STARTCHAR uni21DD
ENCODING 8669
SWIDTH 948 0
DWIDTH 8 0
BBX 7 3 0 1
BITMAP
0110
6AA8
0450
ENDCHAR
STARTCHAR uni21DE
ENCODING 8670
SWIDTH 523 0
DWIDTH 4 0
BBX 4 7 0 -2
BITMAP
18
19
14
69
69
14
04
ENDCHAR
STARTCHAR uni21DF
ENCODING 8671
SWIDTH 523 0
DWIDTH 4 0
BBX 4 7 0 -1
BITMAP
04
14
69
69
14
19
18
ENDCHAR
STARTCHAR uni21E0
ENCODING 8672
SWIDTH 948 0
DWIDTH 8 0
BBX 7 3 0 1
BITMAP
1400
7954
1400
ENDCHAR
STARTCHAR uni21E1
ENCODING 8673
SWIDTH 523 0
DWIDTH 4 0
BBX 2 7 1 -1
BITMAP
10
60
50
10
00
10
10
ENDCHAR
STARTCHAR uni21E2
ENCODING 8674
SWIDTH 948 0
DWIDTH 8 0
BBX 7 3 0 1
BITMAP
0010
5568
0010
ENDCHAR
STARTCHAR uni21E3
ENCODING 8675
SWIDTH 523 0
DWIDTH 4 0
BBX 3 7 1 -1
BITMAP
10
00
10
10
10
A4
50
ENDCHAR
STARTCHAR uni21E4
ENCODING 8676
SWIDTH 948 0
DWIDTH 8 0
BBX 7 3 0 1
BITMAP
4400
6AA8
4400
ENDCHAR
STARTCHAR uni21E5
ENCODING 8677
SWIDTH 948 0
DWIDTH 8 0
BBX 7 3 0 1
BITMAP
0014
6AB8
0014
ENDCHAR
STARTCHAR uni21E6
ENCODING 8678
SWIDTH 948 0
DWIDTH 8 0
BBX 7 5 0 0
BITMAP
0600
1554
6004
1554
0600
ENDCHAR
STARTCHAR uni21E7
ENCODING 8679
SWIDTH 720 0
DWIDTH 6 0
BBX 5 7 0 -2
BITMAP
0900
1540
6180
1500
1500
1500
0600
ENDCHAR
STARTCHAR uni21E8
ENCODING 8680
SWIDTH 948 0
DWIDTH 8 0
BBX 7 5 0 0
BITMAP
0080
5550
4008
5550
0080
ENDCHAR
STARTCHAR uni21E9
ENCODING 8681
SWIDTH 720 0
DWIDTH 6 0
BBX 5 7 0 -1
BITMAP
0600
1500
1500
1500
6180
1540
0900
ENDCHAR
STARTCHAR uni21EA
ENCODING 8682
SWIDTH 720 0
DWIDTH 6 0
BBX 5 7 0 -2
BITMAP
0900
1540
6180
1500
0600
0600
0600
ENDCHAR
STARTCHAR uni21F4
ENCODING 8692
SWIDTH 948 0
DWIDTH 8 0
BBX 7 3 0 1
BITMAP
0510
6AA8
0510
ENDCHAR
STARTCHAR uni21F5
ENCODING 8693
SWIDTH 791 0
DWIDTH 6 0
BBX 6 7 0 -1
BITMAP
1040
1190
1080
1080
1080
6880
1480
ENDCHAR
STARTCHAR uni21F6
ENCODING 8694
SWIDTH 948 0
DWIDTH 8 0
BBX 7 8 0 -2
BITMAP
0010
6AA8
0010
0010
6AA8
0010
6AA8
0010
ENDCHAR
STARTCHAR uni21F7
ENCODING 8695
SWIDTH 948 0
DWIDTH 8 0
BBX 7 3 0 1
BITMAP
1440
7AA8
1440
ENDCHAR
STARTCHAR uni21F8
ENCODING 8696
SWIDTH 948 0
DWIDTH 8 0
BBX 7 3 0 1
BITMAP
0110
6AA8
0110
ENDCHAR
STARTCHAR uni21F9
ENCODING 8697
SWIDTH 948 0
DWIDTH 8 0
BBX 7 3 0 1
BITMAP
1110
7AAC
1110
ENDCHAR
STARTCHAR uni21FA
ENCODING 8698
SWIDTH 948 0
DWIDTH 8 0
BBX 7 3 0 1
BITMAP
1550
7AA8
1550
ENDCHAR
STARTCHAR uni21FB
ENCODING 8699
SWIDTH 948 0
DWIDTH 8 0
BBX 7 3 0 1
BITMAP
0510
6AA8
0510
ENDCHAR
STARTCHAR uni21FC
ENCODING 8700
SWIDTH 948 0
DWIDTH 8 0
BBX 7 3 0 1
BITMAP
1150
7AAC
1150
ENDCHAR
STARTCHAR uni21FD
ENCODING 8701
SWIDTH 948 0
DWIDTH 8 0
BBX 7 3 0 1
BITMAP
1800
6AA8
1800
ENDCHAR
STARTCHAR uni21FE
ENCODING 8702
SWIDTH 948 0
DWIDTH 8 0
BBX 7 3 0 1
BITMAP
0020
6A98
0020
ENDCHAR
STARTCHAR uni21FF
ENCODING 8703
SWIDTH 948 0
DWIDTH 8 0
BBX 7 3 0 1
BITMAP
1420
5AA8
1420
ENDCHAR
STARTCHAR uni2200
ENCODING 8704
SWIDTH 573 0
DWIDTH 5 0
BBX 5 5 0 0
BITMAP
8140
6A00
2200
2500
1800
ENDCHAR
STARTCHAR uni2201
ENCODING 8705
SWIDTH 474 0
DWIDTH 4 0
BBX 4 7 0 0
BITMAP
28
45
80
80
80
45
28
ENDCHAR
STARTCHAR partialdiff
ENCODING 8706
SWIDTH 478 0
DWIDTH 4 0
BBX 4 6 0 0
BITMAP
14
05
29
45
45
28
ENDCHAR
STARTCHAR uni2203
ENCODING 8707
SWIDTH 573 0
DWIDTH 5 0
BBX 4 6 0 0
BITMAP
6A
02
02
2A
02
6A
ENDCHAR
STARTCHAR uni2204
ENCODING 8708
SWIDTH 573 0
DWIDTH 5 0
BBX 4 8 0 -1
BITMAP
01
6A
06
06
2A
12
6A
40
ENDCHAR
STARTCHAR uni2205
ENCODING 8709
SWIDTH 780 0
DWIDTH 6 0
BBX 6 6 0 -1
BITMAP
1A50
2090
4220
4820
2450
1A40
ENDCHAR
STARTCHAR uni2206
ENCODING 8710
SWIDTH 748 0
DWIDTH 6 0
BBX 6 6 0 0
BITMAP
0500
0A00
0600
1140
1080
5590
ENDCHAR
STARTCHAR uni2207
ENCODING 8711
SWIDTH 748 0
DWIDTH 6 0
BBX 6 5 0 1
BITMAP
6550
2040
1440
0900
0900
ENDCHAR
STARTCHAR uni2208
ENCODING 8712
SWIDTH 720 0
DWIDTH 6 0
BBX 5 5 0 0
BITMAP
1A80
6000
6A80
2000
1A80
ENDCHAR
STARTCHAR uni2209
ENCODING 8713
SWIDTH 720 0
DWIDTH 6 0
BBX 5 7 0 -1
BITMAP
0040
1A80
6100
6A80
6400
2A80
1000
ENDCHAR
STARTCHAR uni220A
ENCODING 8714
SWIDTH 497 0
DWIDTH 4 0
BBX 4 4 0 0
BITMAP
19
50
69
19
ENDCHAR
STARTCHAR uni220B
ENCODING 8715
SWIDTH 720 0
DWIDTH 6 0
BBX 5 5 0 0
BITMAP
6A00
0080
6A80
0080
6A00
ENDCHAR
STARTCHAR uni220C
ENCODING 8716
SWIDTH 720 0
DWIDTH 6 0
BBX 5 7 0 -1
BITMAP
0040
6A40
0280
6A80
0880
6A00
1000
ENDCHAR
STARTCHAR uni220D
ENCODING 8717
SWIDTH 497 0
DWIDTH 4 0
BBX 4 4 0 0
BITMAP
64
05
69
64
ENDCHAR
STARTCHAR uni220E
ENCODING 8718
SWIDTH 558 0
DWIDTH 4 0
BBX 4 5 0 0
BITMAP
BF
BF
BF
BF
BF
ENDCHAR
STARTCHAR uni220F
ENCODING 8719
SWIDTH 1135 0
DWIDTH 9 0
BBX 8 9 1 -2
BITMAP
A569
6024
6024
6024
6024
6024
6024
6024
6469
ENDCHAR
STARTCHAR uni2210
ENCODING 8720
SWIDTH 1135 0
DWIDTH 9 0
BBX 8 9 1 -2
BITMAP
A469
6024
6024
6024
6024
6024
6024
6024
A569
ENDCHAR
STARTCHAR uni2211
ENCODING 8721
SWIDTH 936 0
DWIDTH 7 0
BBX 7 9 0 -2
BITMAP
6564
2404
0D00
0700
0200
0500
0804
2008
7AB4
ENDCHAR
STARTCHAR uni2212
ENCODING 8722
SWIDTH 720 0
DWIDTH 6 0
BBX 5 1 0 2
BITMAP
6A80
ENDCHAR
STARTCHAR uni2213
ENCODING 8723
SWIDTH 720 0
DWIDTH 6 0
BBX 5 5 0 0
BITMAP
6A80
0400
0400
6A80
0400
ENDCHAR
STARTCHAR uni2214
ENCODING 8724
SWIDTH 720 0
DWIDTH 6 0
BBX 5 7 0 0
BITMAP
0500
0000
0400
0400
6A80
0400
0400
ENDCHAR
STARTCHAR uni2215
ENCODING 8725
SWIDTH 535 0
DWIDTH 4 0
BBX 4 8 0 -2
BITMAP
01
01
04
08
14
20
20
40
ENDCHAR
STARTCHAR uni2216
ENCODING 8726
SWIDTH 535 0
DWIDTH 4 0
BBX 4 8 0 -2
BITMAP
40
50
20
10
08
08
05
02
ENDCHAR
STARTCHAR uni2217
ENCODING 8727
SWIDTH 536 0
DWIDTH 4 0
BBX 4 4 0 0
BITMAP
04
55
55
04
ENDCHAR
STARTCHAR uni2218
ENCODING 8728
SWIDTH 436 0
DWIDTH 3 0
BBX 3 3 0 0
BITMAP
14
88
24
ENDCHAR
STARTCHAR uni2219
ENCODING 8729
SWIDTH 457 0
DWIDTH 4 0
BBX 2 2 1 1
BITMAP
E0
E0
ENDCHAR
STARTCHAR uni221A
ENCODING 8730
SWIDTH 794 0
DWIDTH 6 0
BBX 7 10 0 -2
BITMAP
0024
0010
0050
0040
1040
6040
1500
0900
0A00
0100
ENDCHAR
STARTCHAR uni221B
ENCODING 8731
SWIDTH 794 0
DWIDTH 6 0
BBX 7 10 0 -2
BITMAP
1024
2010
0450
5440
1040
6040
1500
0900
0A00
0100
ENDCHAR
STARTCHAR uni221C
ENCODING 8732
SWIDTH 794 0
DWIDTH 6 0
BBX 7 10 0 -2
BITMAP
0424
2410
5850
5840
1040
6040
1500
0900
0A00
0100
ENDCHAR
STARTCHAR uni221D
ENCODING 8733
SWIDTH 720 0
DWIDTH 6 0
BBX 6 4 0 0
BITMAP
1850
4340
4240
2890
ENDCHAR
STARTCHAR uni221E
ENCODING 8734
SWIDTH 953 0
DWIDTH 8 0
BBX 7 4 0 0
BITMAP
1964
4248
5284
2864
ENDCHAR
STARTCHAR uni221F
ENCODING 8735
SWIDTH 720 0
DWIDTH 6 0
BBX 5 5 0 0
BITMAP
8000
8000
8000
8000
6A80
ENDCHAR
STARTCHAR uni2220
ENCODING 8736
SWIDTH 720 0
DWIDTH 6 0
BBX 6 5 0 0
BITMAP
0040
0140
0500
1400
6A90
ENDCHAR
STARTCHAR uni2221
ENCODING 8737
SWIDTH 720 0
DWIDTH 6 0
BBX 6 6 0 -1
BITMAP
0040
0240
0600
1540
6A90
0040
ENDCHAR
STARTCHAR uni2222
ENCODING 8738
SWIDTH 720 0
DWIDTH 6 0
BBX 4 4 1 0
BITMAP
06
A6
66
06
ENDCHAR
STARTCHAR uni2223
ENCODING 8739
SWIDTH 272 0
DWIDTH 2 0
BBX 2 7 0 -2
BITMAP
50
50
50
50
50
50
50
ENDCHAR
STARTCHAR uni2224
ENCODING 8740
SWIDTH 413 0
DWIDTH 3 0
BBX 3 7 0 -2
BITMAP
20
20
20
24
60
20
20
ENDCHAR
STARTCHAR uni2225
ENCODING 8741
SWIDTH 535 0
DWIDTH 4 0
BBX 3 7 1 -2
BITMAP
94
94
94
94
94
94
94
ENDCHAR
STARTCHAR uni2226
ENCODING 8742
SWIDTH 623 0
DWIDTH 5 0
BBX 5 7 0 -2
BITMAP
2200
2200
2240
2A00
6200
2200
2200
ENDCHAR
STARTCHAR uni2227
ENCODING 8743
SWIDTH 636 0
DWIDTH 5 0
BBX 5 4 0 0
BITMAP
0800
1600
2100
4080
ENDCHAR
STARTCHAR uni2228
ENCODING 8744
SWIDTH 636 0
DWIDTH 5 0
BBX 5 5 0 0
BITMAP
4040
5140
2200
1900
0800
ENDCHAR
STARTCHAR uni2229
ENCODING 8745
SWIDTH 636 0
DWIDTH 5 0
BBX 5 5 0 0
BITMAP
1900
5040
8080
8080
4040
ENDCHAR
STARTCHAR uni222A
ENCODING 8746
SWIDTH 636 0
DWIDTH 5 0
BBX 5 5 0 0
BITMAP
4040
8080
8080
5040
1500
ENDCHAR
STARTCHAR uni222B
ENCODING 8747
SWIDTH 684 0
DWIDTH 5 0
BBX 5 8 0 -2
BITMAP
0140
0240
0500
0900
0800
0800
5400
5000
ENDCHAR
STARTCHAR uni222C
ENCODING 8748
SWIDTH 1016 0
DWIDTH 8 0
BBX 8 8 0 -2
BITMAP
0145
0255
0520
0920
0860
0850
5580
5140
ENDCHAR
STARTCHAR uni222D
ENCODING 8749
SWIDTH 1348 0
DWIDTH 11 0
BBX 11 8 0 -2
BITMAP
014514
025584
052080
092140
086240
085200
559600
514400
ENDCHAR
STARTCHAR uni222E
ENCODING 8750
SWIDTH 684 0
DWIDTH 5 0
BBX 5 8 0 -2
BITMAP
0140
0240
1A00
1940
1840
1900
5400
5000
ENDCHAR
STARTCHAR uni222F
ENCODING 8751
SWIDTH 1016 0
DWIDTH 8 0
BBX 8 8 0 -2
BITMAP
0145
0255
0A60
1924
1864
09A0
5580
5140
ENDCHAR
STARTCHAR uni2230
ENCODING 8752
SWIDTH 1348 0
DWIDTH 11 0
BBX 11 8 0 -2
BITMAP
014514
025594
0A6580
192190
186250
09A640
559600
514400
ENDCHAR
STARTCHAR uni2231
ENCODING 8753
SWIDTH 684 0
DWIDTH 5 0
BBX 5 8 0 -2
BITMAP
0140
0240
0500
1940
1840
0800
5400
5000
ENDCHAR
STARTCHAR uni2232
ENCODING 8754
SWIDTH 684 0
DWIDTH 5 0
BBX 5 8 0 -2
BITMAP
0140
1640
1980
4840
1840
1900
5400
5000
ENDCHAR
STARTCHAR uni2233
ENCODING 8755
SWIDTH 684 0
DWIDTH 5 0
BBX 5 8 0 -2
BITMAP
0140
0240
1A00
1940
1840
1900
5400
5000
ENDCHAR
STARTCHAR uni2234
ENCODING 8756
SWIDTH 635 0
DWIDTH 5 0
BBX 5 4 0 0
BITMAP
0800
0000
0000
9080
ENDCHAR
STARTCHAR uni2235
ENCODING 8757
SWIDTH 635 0
DWIDTH 5 0
BBX 5 4 0 0
BITMAP
9080
0000
0000
0800
ENDCHAR
STARTCHAR uni2236
ENCODING 8758
SWIDTH 523 0
DWIDTH 4 0
BBX 2 4 1 0
BITMAP
50
00
00
50
ENDCHAR
STARTCHAR uni2237
ENCODING 8759
SWIDTH 720 0
DWIDTH 6 0
BBX 4 4 1 0
BITMAP
82
00
00
82
ENDCHAR
STARTCHAR uni2238
ENCODING 8760
SWIDTH 720 0
DWIDTH 6 0
BBX 5 3 0 2
BITMAP
0900
0000
6A80
ENDCHAR
STARTCHAR uni2239
ENCODING 8761
SWIDTH 720 0
DWIDTH 6 0
BBX 5 4 0 0
BITMAP
0080
0000
6900
0080
ENDCHAR
STARTCHAR uni223A
ENCODING 8762
SWIDTH 720 0
DWIDTH 6 0
BBX 5 4 0 0
BITMAP
5080
0000
6A80
5080
ENDCHAR
STARTCHAR uni223B
ENCODING 8763
SWIDTH 720 0
DWIDTH 6 0
BBX 5 4 0 0
BITMAP
0500
2800
4240
0500
ENDCHAR
STARTCHAR uni223C
ENCODING 8764
SWIDTH 720 0
DWIDTH 6 0
BBX 5 2 0 1
BITMAP
2400
4240
ENDCHAR
STARTCHAR uni223D
ENCODING 8765
SWIDTH 720 0
DWIDTH 6 0
BBX 5 2 0 1
BITMAP
4240
2400
ENDCHAR
STARTCHAR uni223E
ENCODING 8766
SWIDTH 720 0
DWIDTH 6 0
BBX 6 3 0 1
BITMAP
2440
4410
1180
ENDCHAR
STARTCHAR uni223F
ENCODING 8767
SWIDTH 720 0
DWIDTH 6 0
BBX 6 4 0 0
BITMAP
2400
4800
0550
0240
ENDCHAR
STARTCHAR uni2240
ENCODING 8768
SWIDTH 293 0
DWIDTH 2 0
BBX 2 5 0 0
BITMAP
50
20
10
80
50
ENDCHAR
STARTCHAR uni2241
ENCODING 8769
SWIDTH 720 0
DWIDTH 6 0
BBX 5 2 0 1
BITMAP
2900
4A40
ENDCHAR
STARTCHAR uni2242
ENCODING 8770
SWIDTH 720 0
DWIDTH 6 0
BBX 5 4 0 0
BITMAP
6A80
0000
2800
4240
ENDCHAR
STARTCHAR uni2243
ENCODING 8771
SWIDTH 720 0
DWIDTH 6 0
BBX 5 4 0 0
BITMAP
2400
4240
0000
6A80
ENDCHAR
STARTCHAR uni2244
ENCODING 8772
SWIDTH 720 0
DWIDTH 6 0
BBX 5 4 0 0
BITMAP
1600
4A40
0640
6A80
ENDCHAR
STARTCHAR uni2245
ENCODING 8773
SWIDTH 720 0
DWIDTH 6 0
BBX 5 5 0 0
BITMAP
1800
4240
6A80
0000
6A80
ENDCHAR
STARTCHAR uni2246
ENCODING 8774
SWIDTH 720 0
DWIDTH 6 0
BBX 5 7 0 -1
BITMAP
1400
4540
0240
6A80
0400
6A80
1000
ENDCHAR
STARTCHAR uni2247
ENCODING 8775
SWIDTH 720 0
DWIDTH 6 0
BBX 5 7 0 -1
BITMAP
0040
2540
4240
6A80
0400
6A80
1000
ENDCHAR
STARTCHAR uni2248
ENCODING 8776
SWIDTH 720 0
DWIDTH 6 0
BBX 5 4 0 0
BITMAP
2800
4240
2800
4240
ENDCHAR
STARTCHAR uni2249
ENCODING 8777
SWIDTH 720 0
DWIDTH 6 0
BBX 5 5 0 0
BITMAP
0100
2500
4640
2800
4640
ENDCHAR
STARTCHAR uni224A
ENCODING 8778
SWIDTH 720 0
DWIDTH 6 0
BBX 5 5 0 -1
BITMAP
2400
0000
2400
0000
6A80
ENDCHAR
STARTCHAR uni224B
ENCODING 8779
SWIDTH 720 0
DWIDTH 6 0
BBX 5 5 0 0
BITMAP
2800
4240
0540
2800
4240
ENDCHAR
STARTCHAR uni224C
ENCODING 8780
SWIDTH 720 0
DWIDTH 6 0
BBX 5 5 0 0
BITMAP
4240
1800
6A80
0000
6A80
ENDCHAR
STARTCHAR uni224D
ENCODING 8781
SWIDTH 720 0
DWIDTH 6 0
BBX 5 4 0 0
BITMAP
4040
1A40
1A40
4040
ENDCHAR
STARTCHAR uni224E
ENCODING 8782
SWIDTH 720 0
DWIDTH 6 0
BBX 5 4 0 0
BITMAP
0900
6580
6580
0900
ENDCHAR
STARTCHAR uni224F
ENCODING 8783
SWIDTH 720 0
DWIDTH 6 0
BBX 5 3 0 1
BITMAP
6580
0000
6A80
ENDCHAR
STARTCHAR uni2250
ENCODING 8784
SWIDTH 720 0
DWIDTH 6 0
BBX 5 4 0 1
BITMAP
0500
6A80
0000
6A80
ENDCHAR
STARTCHAR uni2251
ENCODING 8785
SWIDTH 720 0
DWIDTH 6 0
BBX 5 6 0 -1
BITMAP
0500
0000
6A80
6A80
0000
0500
ENDCHAR
STARTCHAR uni2252
ENCODING 8786
SWIDTH 720 0
DWIDTH 6 0
BBX 5 6 0 -1
BITMAP
5000
0000
6A80
6A80
0000
0080
ENDCHAR
STARTCHAR uni2253
ENCODING 8787
SWIDTH 720 0
DWIDTH 6 0
BBX 6 6 0 -1
BITMAP
0090
0000
6A80
6A80
0000
5000
ENDCHAR
STARTCHAR uni2254
ENCODING 8788
SWIDTH 844 0
DWIDTH 7 0
BBX 7 3 0 1
BITMAP
56A4
0000
56A4
ENDCHAR
STARTCHAR uni2255
ENCODING 8789
SWIDTH 844 0
DWIDTH 7 0
BBX 7 3 0 1
BITMAP
6A64
0000
6A64
ENDCHAR
STARTCHAR uni2256
ENCODING 8790
SWIDTH 720 0
DWIDTH 6 0
BBX 5 3 0 1
BITMAP
6A80
0500
6A80
ENDCHAR
STARTCHAR uni2257
ENCODING 8791
SWIDTH 720 0
DWIDTH 6 0
BBX 5 6 0 1
BITMAP
0500
0500
0500
6A80
0000
6A80
ENDCHAR
STARTCHAR uni2258
ENCODING 8792
SWIDTH 720 0
DWIDTH 6 0
BBX 5 5 0 1
BITMAP
1A40
0000
6A80
0000
6A80
ENDCHAR
STARTCHAR uni2259
ENCODING 8793
SWIDTH 720 0
DWIDTH 6 0
BBX 5 6 0 1
BITMAP
0900
0600
1040
6A80
0000
6A80
ENDCHAR
STARTCHAR uni225A
ENCODING 8794
SWIDTH 720 0
DWIDTH 6 0
BBX 5 6 0 1
BITMAP
1140
0900
0000
6A80
0000
6A80
ENDCHAR
STARTCHAR uni225B
ENCODING 8795
SWIDTH 720 0
DWIDTH 6 0
BBX 5 5 0 1
BITMAP
0900
0A00
6A80
0000
6A80
ENDCHAR
STARTCHAR uni225C
ENCODING 8796
SWIDTH 720 0
DWIDTH 6 0
BBX 5 6 0 1
BITMAP
0900
0600
2A40
6A80
0000
6A80
ENDCHAR
STARTCHAR uni225D
ENCODING 8797
SWIDTH 720 0
DWIDTH 6 0
BBX 6 6 0 1
BITMAP
1010
1040
5540
6A80
0000
6A80
ENDCHAR
STARTCHAR uni225E
ENCODING 8798
SWIDTH 720 0
DWIDTH 6 0
BBX 5 5 0 1
BITMAP
1500
1540
6A80
0000
6A80
ENDCHAR
STARTCHAR uni225F
ENCODING 8799
SWIDTH 720 0
DWIDTH 6 0
BBX 5 7 0 1
BITMAP
0500
0600
0400
0400
6A80
0000
6A80
ENDCHAR
STARTCHAR uni2260
ENCODING 8800
SWIDTH 720 0
DWIDTH 6 0
BBX 5 7 0 -1
BITMAP
0040
0100
6A80
0400
6A80
1400
1000
ENDCHAR
STARTCHAR uni2261
ENCODING 8801
SWIDTH 720 0
DWIDTH 6 0
BBX 5 4 0 0
BITMAP
6A80
6A80
0000
6A80
ENDCHAR
STARTCHAR uni2262
ENCODING 8802
SWIDTH 720 0
DWIDTH 6 0
BBX 5 6 0 -1
BITMAP
0140
6A80
6A80
0400
6A80
1000
ENDCHAR
STARTCHAR uni2263
ENCODING 8803
SWIDTH 720 0
DWIDTH 6 0
BBX 5 5 0 -1
BITMAP
6A80
6A80
0000
6A80
6A80
ENDCHAR
STARTCHAR uni2264
ENCODING 8804
SWIDTH 720 0
DWIDTH 6 0
BBX 5 6 0 -1
BITMAP
0180
1900
2400
0640
0040
6A80
ENDCHAR
STARTCHAR uni2265
ENCODING 8805
SWIDTH 720 0
DWIDTH 6 0
BBX 5 6 0 -1
BITMAP
5000
0600
0180
1400
4000
6A80
ENDCHAR
STARTCHAR uni2266
ENCODING 8806
SWIDTH 720 0
DWIDTH 6 0
BBX 5 8 0 -2
BITMAP
0180
1900
2400
0140
0000
6A80
0000
6A80
ENDCHAR
STARTCHAR uni2267
ENCODING 8807
SWIDTH 720 0
DWIDTH 6 0
BBX 5 8 0 -2
BITMAP
6400
0640
0240
2400
0000
6A80
0000
6A80
ENDCHAR
STARTCHAR uni2268
ENCODING 8808
SWIDTH 720 0
DWIDTH 6 0
BBX 5 8 0 -2
BITMAP
0180
1900
2400
0140
0100
6A80
0400
6A80
ENDCHAR
STARTCHAR uni2269
ENCODING 8809
SWIDTH 720 0
DWIDTH 6 0
BBX 5 8 0 -2
BITMAP
6400
0640
0240
2400
0000
6A80
0400
6A80
ENDCHAR
STARTCHAR uni226A
ENCODING 8810
SWIDTH 955 0
DWIDTH 8 0
BBX 8 4 0 0
BITMAP
0658
6580
2590
0159
ENDCHAR
STARTCHAR uni226B
ENCODING 8811
SWIDTH 955 0
DWIDTH 8 0
BBX 7 4 0 0
BITMAP
6540
0658
0664
5640
ENDCHAR
STARTCHAR uni226C
ENCODING 8812
SWIDTH 477 0
DWIDTH 4 0
BBX 2 7 1 -1
BITMAP
50
50
50
60
60
50
50
ENDCHAR
STARTCHAR uni226D
ENCODING 8813
SWIDTH 720 0
DWIDTH 6 0
BBX 5 5 0 0
BITMAP
0100
4140
1900
1A40
5400
ENDCHAR
STARTCHAR uni226E
ENCODING 8814
SWIDTH 720 0
DWIDTH 6 0
BBX 4 7 1 -1
BITMAP
01
05
19
A4
64
16
40
ENDCHAR
STARTCHAR uni226F
ENCODING 8815
SWIDTH 720 0
DWIDTH 6 0
BBX 5 7 0 -1
BITMAP
0040
0100
1500
0680
0A00
6400
1000
ENDCHAR
STARTCHAR uni2270
ENCODING 8816
SWIDTH 720 0
DWIDTH 6 0
BBX 5 8 0 -2
BITMAP
0040
0280
1A00
2900
0A40
0440
6A80
1000
ENDCHAR
STARTCHAR uni2271
ENCODING 8817
SWIDTH 720 0
DWIDTH 6 0
BBX 5 8 0 -2
BITMAP
0140
6500
0640
0680
1800
5400
6A80
1000
ENDCHAR
STARTCHAR uni2272
ENCODING 8818
SWIDTH 720 0
DWIDTH 6 0
BBX 5 7 0 -1
BITMAP
0040
0500
2400
0600
0040
2800
4240
ENDCHAR
STARTCHAR uni2273
ENCODING 8819
SWIDTH 720 0
DWIDTH 6 0
BBX 5 7 0 -1
BITMAP
5000
1900
0180
1900
5000
2800
4240
ENDCHAR
STARTCHAR uni2274
ENCODING 8820
SWIDTH 720 0
DWIDTH 6 0
BBX 5 7 0 -1
BITMAP
0140
0640
2500
0A00
0440
2800
5640
ENDCHAR
STARTCHAR uni2275
ENCODING 8821
SWIDTH 720 0
DWIDTH 6 0
BBX 5 7 0 -1
BITMAP
5100
1A00
0580
1900
5400
2800
5240
ENDCHAR
STARTCHAR uni2276
ENCODING 8822
SWIDTH 720 0
DWIDTH 6 0
BBX 5 8 0 -2
BITMAP
0040
1900
2400
0140
1400
0180
1900
5000
ENDCHAR
STARTCHAR uni2277
ENCODING 8823
SWIDTH 720 0
DWIDTH 6 0
BBX 5 8 0 -2
BITMAP
5000
0500
0180
2400
0640
2400
0500
0040
ENDCHAR
STARTCHAR uni2278
ENCODING 8824
SWIDTH 720 0
DWIDTH 6 0
BBX 5 8 0 -2
BITMAP
0140
0640
2500
0640
6800
0680
1900
5400
ENDCHAR
STARTCHAR uni2279
ENCODING 8825
SWIDTH 720 0
DWIDTH 6 0
BBX 5 8 0 -2
BITMAP
4100
1A00
0280
1900
0640
2800
0900
0440
ENDCHAR
STARTCHAR uni227A
ENCODING 8826
SWIDTH 720 0
DWIDTH 6 0
BBX 4 4 1 0
BITMAP
02
64
68
02
ENDCHAR
STARTCHAR uni227B
ENCODING 8827
SWIDTH 720 0
DWIDTH 6 0
BBX 5 4 0 0
BITMAP
6000
0A40
1A40
5000
ENDCHAR
STARTCHAR uni227C
ENCODING 8828
SWIDTH 720 0
DWIDTH 6 0
BBX 5 6 0 -1
BITMAP
0080
6900
1A00
6440
0140
0040
ENDCHAR
STARTCHAR uni227D
ENCODING 8829
SWIDTH 720 0
DWIDTH 6 0
BBX 5 6 0 -1
BITMAP
6000
0A40
1940
5680
2400
4000
ENDCHAR
STARTCHAR uni227E
ENCODING 8830
SWIDTH 720 0
DWIDTH 6 0
BBX 5 7 0 -1
BITMAP
0040
0240
6D00
0140
0040
2800
4240
ENDCHAR
STARTCHAR uni227F
ENCODING 8831
SWIDTH 720 0
DWIDTH 6 0
BBX 5 7 0 -1
BITMAP
4000
2400
0780
2400
4000
2800
4240
ENDCHAR
STARTCHAR uni2280
ENCODING 8832
SWIDTH 720 0
DWIDTH 6 0
BBX 5 7 0 -1
BITMAP
0040
0040
0180
6A00
0A40
0440
0400
ENDCHAR
STARTCHAR uni2281
ENCODING 8833
SWIDTH 720 0
DWIDTH 6 0
BBX 5 7 0 -1
BITMAP
0100
0100
2500
0A80
1900
6000
1000
ENDCHAR
STARTCHAR uni2282
ENCODING 8834
SWIDTH 720 0
DWIDTH 6 0
BBX 5 5 0 0
BITMAP
1A80
6000
5000
2000
1A80
ENDCHAR
STARTCHAR uni2283
ENCODING 8835
SWIDTH 720 0
DWIDTH 6 0
BBX 5 5 0 0
BITMAP
6A00
0080
0080
0080
6A00
ENDCHAR
STARTCHAR uni2284
ENCODING 8836
SWIDTH 720 0
DWIDTH 6 0
BBX 5 7 0 -1
BITMAP
0040
1A80
6100
5400
6400
1A80
1000
ENDCHAR
STARTCHAR uni2285
ENCODING 8837
SWIDTH 720 0
DWIDTH 6 0
BBX 5 7 0 -1
BITMAP
0040
6A40
0180
0480
0480
6A40
1000
ENDCHAR
STARTCHAR uni2286
ENCODING 8838
SWIDTH 720 0
DWIDTH 6 0
BBX 5 6 0 -1
BITMAP
1A80
6000
5000
2000
1A80
6A80
ENDCHAR
STARTCHAR uni2287
ENCODING 8839
SWIDTH 720 0
DWIDTH 6 0
BBX 5 6 0 -1
BITMAP
6A00
0080
0080
0080
6A00
6A80
ENDCHAR
STARTCHAR uni2288
ENCODING 8840
SWIDTH 720 0
DWIDTH 6 0
BBX 5 8 0 -2
BITMAP
0040
1A80
6100
5100
2400
1A80
6A80
1000
ENDCHAR
STARTCHAR uni2289
ENCODING 8841
SWIDTH 720 0
DWIDTH 6 0
BBX 5 8 0 -2
BITMAP
0040
6A40
0180
0180
0480
6A00
6A80
1000
ENDCHAR
STARTCHAR uni228A
ENCODING 8842
SWIDTH 720 0
DWIDTH 6 0
BBX 5 8 0 -2
BITMAP
1A80
6000
5000
2000
1A80
0100
2A80
0400
ENDCHAR
STARTCHAR uni228B
ENCODING 8843
SWIDTH 720 0
DWIDTH 6 0
BBX 5 8 0 -2
BITMAP
6A00
0080
0080
0080
6A00
0100
6A80
0400
ENDCHAR
STARTCHAR uni228C
ENCODING 8844
SWIDTH 636 0
DWIDTH 5 0
BBX 5 5 0 0
BITMAP
4040
8480
9980
5440
1500
ENDCHAR
STARTCHAR uni228D
ENCODING 8845
SWIDTH 636 0
DWIDTH 5 0
BBX 5 5 0 0
BITMAP
4040
8080
8880
5040
1500
ENDCHAR
STARTCHAR uni228E
ENCODING 8846
SWIDTH 636 0
DWIDTH 5 0
BBX 5 5 0 0
BITMAP
4040
8880
9980
5440
1500
ENDCHAR
STARTCHAR uni228F
ENCODING 8847
SWIDTH 720 0
DWIDTH 6 0
BBX 5 5 0 0
BITMAP
6A80
4000
4000
4000
6A80
ENDCHAR
STARTCHAR uni2290
ENCODING 8848
SWIDTH 720 0
DWIDTH 6 0
BBX 6 5 0 0
BITMAP
6A80
0050
0050
0050
6A80
ENDCHAR
STARTCHAR uni2291
ENCODING 8849
SWIDTH 720 0
DWIDTH 6 0
BBX 5 6 0 -1
BITMAP
6A80
4000
4000
4000
6A80
6A80
ENDCHAR
STARTCHAR uni2292
ENCODING 8850
SWIDTH 720 0
DWIDTH 6 0
BBX 6 6 0 -1
BITMAP
6A80
0050
0050
0050
6A80
6A80
ENDCHAR
STARTCHAR uni2293
ENCODING 8851
SWIDTH 635 0
DWIDTH 5 0
BBX 5 5 0 0
BITMAP
6A80
8080
8080
8080
4040
ENDCHAR
STARTCHAR uni2294
ENCODING 8852
SWIDTH 635 0
DWIDTH 5 0
BBX 5 5 0 0
BITMAP
4040
8080
8080
8080
6A40
ENDCHAR
STARTCHAR uni2295
ENCODING 8853
SWIDTH 862 0
DWIDTH 7 0
BBX 7 7 0 -1
BITMAP
0A40
2220
5214
AAA4
5214
1650
0100
ENDCHAR
STARTCHAR uni2296
ENCODING 8854
SWIDTH 862 0
DWIDTH 7 0
BBX 7 7 0 -1
BITMAP
0640
2020
4014
AAA4
4014
2020
0640
ENDCHAR
STARTCHAR uni2297
ENCODING 8855
SWIDTH 862 0
DWIDTH 7 0
BBX 7 7 0 -1
BITMAP
0A40
2460
5994
8704
5994
2460
0640
ENDCHAR
STARTCHAR uni2298
ENCODING 8856
SWIDTH 862 0
DWIDTH 7 0
BBX 7 7 0 -1
BITMAP
0A40
2060
41A4
8604
5814
3420
0640
ENDCHAR
STARTCHAR uni2299
ENCODING 8857
SWIDTH 862 0
DWIDTH 7 0
BBX 7 7 0 -1
BITMAP
0A40
2020
5014
8304
5014
2020
0A40
ENDCHAR
STARTCHAR uni229A
ENCODING 8858
SWIDTH 862 0
DWIDTH 7 0
BBX 7 7 0 -1
BITMAP
0A40
2020
5614
8844
5614
2020
0A40
ENDCHAR
STARTCHAR uni229B
ENCODING 8859
SWIDTH 862 0
DWIDTH 7 0
BBX 7 7 0 -1
BITMAP
0A40
2120
5554
8644
5554
2120
0A40
ENDCHAR
STARTCHAR uni229C
ENCODING 8860
SWIDTH 862 0
DWIDTH 7 0
BBX 7 7 0 -1
BITMAP
0A40
2020
5014
8A94
5A94
2020
0A40
ENDCHAR
STARTCHAR uni229D
ENCODING 8861
SWIDTH 862 0
DWIDTH 7 0
BBX 7 7 0 -1
BITMAP
0A40
2020
5014
8A94
5014
2020
0A40
ENDCHAR
STARTCHAR uni229E
ENCODING 8862
SWIDTH 932 0
DWIDTH 7 0
BBX 7 7 0 -2
BITMAP
6AA8
8104
8104
9658
8104
8104
6AA8
ENDCHAR
STARTCHAR uni229F
ENCODING 8863
SWIDTH 932 0
DWIDTH 7 0
BBX 7 7 0 -2
BITMAP
6AA8
8004
8004
9558
8004
8004
6AA8
ENDCHAR
STARTCHAR uni22A0
ENCODING 8864
SWIDTH 932 0
DWIDTH 7 0
BBX 7 7 0 -2
BITMAP
6AA8
9018
8454
8244
8444
9018
6AA8
ENDCHAR
STARTCHAR uni22A1
ENCODING 8865
SWIDTH 932 0
DWIDTH 7 0
BBX 7 7 0 -1
BITMAP
6AA8
8004
8004
8204
8004
8004
6AA8
ENDCHAR
STARTCHAR uni22A2
ENCODING 8866
SWIDTH 720 0
DWIDTH 6 0
BBX 5 5 0 0
BITMAP
4000
4000
6A80
4000
4000
ENDCHAR
STARTCHAR uni22A3
ENCODING 8867
SWIDTH 720 0
DWIDTH 6 0
BBX 6 5 0 0
BITMAP
0050
0050
6A90
0050
0050
ENDCHAR
STARTCHAR uni22A4
ENCODING 8868
SWIDTH 720 0
DWIDTH 6 0
BBX 5 6 0 0
BITMAP
6A80
0400
0400
0400
0400
0400
ENDCHAR
STARTCHAR uni22A5
ENCODING 8869
SWIDTH 720 0
DWIDTH 6 0
BBX 5 6 0 0
BITMAP
0400
0400
0400
0400
0400
6A80
ENDCHAR
STARTCHAR uni22A6
ENCODING 8870
SWIDTH 509 0
DWIDTH 4 0
BBX 4 5 0 0
BITMAP
40
40
69
40
40
ENDCHAR
STARTCHAR uni22A7
ENCODING 8871
SWIDTH 510 0
DWIDTH 4 0
BBX 4 5 0 0
BITMAP
40
69
40
69
40
ENDCHAR
STARTCHAR uni22A8
ENCODING 8872
SWIDTH 720 0
DWIDTH 6 0
BBX 5 5 0 0
BITMAP
4000
6A80
4000
6A80
4000
ENDCHAR
STARTCHAR uni22A9
ENCODING 8873
SWIDTH 880 0
DWIDTH 7 0
BBX 7 5 0 0
BITMAP
8800
8800
8AA4
8800
8800
ENDCHAR
STARTCHAR uni22AA
ENCODING 8874
SWIDTH 880 0
DWIDTH 7 0
BBX 7 5 0 0
BITMAP
8940
8940
89A4
8940
8940
ENDCHAR
STARTCHAR uni22AB
ENCODING 8875
SWIDTH 880 0
DWIDTH 7 0
BBX 7 5 0 0
BITMAP
8800
8AA4
8800
8AA4
8800
ENDCHAR
STARTCHAR uni22AC
ENCODING 8876
SWIDTH 805 0
DWIDTH 6 0
BBX 6 5 0 0
BITMAP
2050
2140
2A90
2400
6000
ENDCHAR
STARTCHAR uni22AD
ENCODING 8877
SWIDTH 805 0
DWIDTH 6 0
BBX 6 5 0 0
BITMAP
2050
2A90
2500
2A90
6000
ENDCHAR
STARTCHAR uni22AE
ENCODING 8878
SWIDTH 991 0
DWIDTH 8 0
BBX 7 5 1 0
BITMAP
8810
8940
8AA4
9800
8800
ENDCHAR
STARTCHAR uni22AF
ENCODING 8879
SWIDTH 991 0
DWIDTH 8 0
BBX 8 6 0 -1
BITMAP
2214
22A9
2340
26A9
2200
4000
ENDCHAR
STARTCHAR uni22B0
ENCODING 8880
SWIDTH 720 0
DWIDTH 6 0
BBX 4 6 1 -1
BITMAP
01
01
59
69
01
05
ENDCHAR
STARTCHAR uni22B1
ENCODING 8881
SWIDTH 720 0
DWIDTH 6 0
BBX 5 6 0 -1
BITMAP
1000
5000
2940
1A40
5000
1000
ENDCHAR
STARTCHAR uni22B2
ENCODING 8882
SWIDTH 720 0
DWIDTH 6 0
BBX 5 4 1 0
BITMAP
0640
A140
6540
0640
ENDCHAR
STARTCHAR uni22B3
ENCODING 8883
SWIDTH 720 0
DWIDTH 6 0
BBX 5 4 0 0
BITMAP
A400
8640
8640
A400
ENDCHAR
STARTCHAR uni22B4
ENCODING 8884
SWIDTH 720 0
DWIDTH 6 0
BBX 6 6 0 -1
BITMAP
0190
1950
6450
0690
0000
6A90
ENDCHAR
STARTCHAR uni22B5
ENCODING 8885
SWIDTH 720 0
DWIDTH 6 0
BBX 5 6 0 -1
BITMAP
9000
8600
8280
A800
4000
6A80
ENDCHAR
STARTCHAR uni22B6
ENCODING 8886
SWIDTH 1172 0
DWIDTH 9 0
BBX 9 3 0 1
BITMAP
140240
4AABC0
140240
ENDCHAR
STARTCHAR uni22B7
ENCODING 8887
SWIDTH 1172 0
DWIDTH 9 0
BBX 9 3 0 1
BITMAP
240140
BEA840
240140
ENDCHAR
STARTCHAR uni22B8
ENCODING 8888
SWIDTH 869 0
DWIDTH 7 0
BBX 7 3 0 1
BITMAP
0050
6A84
0050
ENDCHAR
STARTCHAR uni22B9
ENCODING 8889
SWIDTH 720 0
DWIDTH 6 0
BBX 5 5 0 0
BITMAP
0400
0400
6180
0400
0400
ENDCHAR
STARTCHAR uni22BA
ENCODING 8890
SWIDTH 491 0
DWIDTH 4 0
BBX 4 6 0 -2
BITMAP
69
14
14
14
14
14
ENDCHAR
STARTCHAR uni22BB
ENCODING 8891
SWIDTH 635 0
DWIDTH 5 0
BBX 5 6 0 -1
BITMAP
4040
1140
2200
0900
0400
6A40
ENDCHAR
STARTCHAR uni22BC
ENCODING 8892
SWIDTH 635 0
DWIDTH 5 0
BBX 5 6 0 0
BITMAP
6A40
0400
0900
2200
1140
4040
ENDCHAR
STARTCHAR uni22BD
ENCODING 8893
SWIDTH 635 0
DWIDTH 5 0
BBX 5 6 0 0
BITMAP
6A40
4040
1140
1200
0900
0400
ENDCHAR
STARTCHAR uni22BE
ENCODING 8894
SWIDTH 720 0
DWIDTH 6 0
BBX 5 5 0 0
BITMAP
8000
A000
8800
8200
6A80
ENDCHAR
STARTCHAR uni22BF
ENCODING 8895
SWIDTH 933 0
DWIDTH 7 0
BBX 7 7 0 -2
BITMAP
0004
0018
0054
0144
0504
1404
6AA8
ENDCHAR
STARTCHAR uni22C0
ENCODING 8896
SWIDTH 946 0
DWIDTH 8 0
BBX 7 9 0 -2
BITMAP
0100
0240
0680
0880
0850
1420
2014
2008
5008
ENDCHAR
STARTCHAR uni22C1
ENCODING 8897
SWIDTH 946 0
DWIDTH 8 0
BBX 7 9 0 -2
BITMAP
4004
5008
2014
1420
0820
0850
0580
0280
0240
ENDCHAR
STARTCHAR uni22C2
ENCODING 8898
SWIDTH 946 0
DWIDTH 8 0
BBX 7 9 0 -2
BITMAP
0690
2414
1008
5008
5008
5008
5008
5008
5004
ENDCHAR
STARTCHAR uni22C3
ENCODING 8899
SWIDTH 946 0
DWIDTH 8 0
BBX 7 9 0 -2
BITMAP
1004
5008
5008
5008
5008
5008
1008
2414
0690
ENDCHAR
STARTCHAR uni22C4
ENCODING 8900
SWIDTH 535 0
DWIDTH 4 0
BBX 4 4 0 0
BITMAP
18
56
55
14
ENDCHAR
STARTCHAR uni22C5
ENCODING 8901
SWIDTH 293 0
DWIDTH 2 0
BBX 2 1 0 2
BITMAP
50
ENDCHAR
STARTCHAR uni22C6
ENCODING 8902
SWIDTH 716 0
DWIDTH 6 0
BBX 5 5 0 0
BITMAP
0400
0900
7F80
1F00
1540
ENDCHAR
STARTCHAR uni22C7
ENCODING 8903
SWIDTH 720 0
DWIDTH 6 0
BBX 5 4 0 0
BITMAP
6980
6F80
1640
6580
ENDCHAR
STARTCHAR uni22C8
ENCODING 8904
SWIDTH 829 0
DWIDTH 7 0
BBX 7 6 0 -1
BITMAP
4010
A064
8A54
8A54
A064
4000
ENDCHAR
STARTCHAR uni22C9
ENCODING 8905
SWIDTH 829 0
DWIDTH 7 0
BBX 6 6 0 -1
BITMAP
0010
6450
5A40
5A40
6050
0010
ENDCHAR
STARTCHAR uni22CA
ENCODING 8906
SWIDTH 829 0
DWIDTH 7 0
BBX 5 6 1 -1
BITMAP
0040
9180
2980
2980
8180
0040
ENDCHAR
STARTCHAR uni22CB
ENCODING 8907
SWIDTH 829 0
DWIDTH 7 0
BBX 5 6 1 -1
BITMAP
4000
5000
1400
2900
9140
4040
ENDCHAR
STARTCHAR uni22CC
ENCODING 8908
SWIDTH 829 0
DWIDTH 7 0
BBX 5 6 1 -1
BITMAP
0040
0240
0900
2900
9140
4040
ENDCHAR
STARTCHAR uni22CD
ENCODING 8909
SWIDTH 720 0
DWIDTH 6 0
BBX 5 4 0 0
BITMAP
4240
2400
0000
6A80
ENDCHAR
STARTCHAR uni22CE
ENCODING 8910
SWIDTH 594 0
DWIDTH 5 0
BBX 4 5 0 0
BITMAP
40
12
15
0C
08
ENDCHAR
STARTCHAR uni22CF
ENCODING 8911
SWIDTH 594 0
DWIDTH 5 0
BBX 4 5 0 0
BITMAP
04
08
18
21
51
ENDCHAR
STARTCHAR uni22D0
ENCODING 8912
SWIDTH 720 0
DWIDTH 6 0
BBX 5 5 0 0
BITMAP
1A80
6A80
5400
2A80
1A80
ENDCHAR
STARTCHAR uni22D1
ENCODING 8913
SWIDTH 720 0
DWIDTH 6 0
BBX 5 5 0 0
BITMAP
6A00
6980
0280
6980
6A00
ENDCHAR
STARTCHAR uni22D2
ENCODING 8914
SWIDTH 635 0
DWIDTH 5 0
BBX 5 5 0 -1
BITMAP
1900
5940
9280
9280
5140
ENDCHAR
STARTCHAR uni22D3
ENCODING 8915
SWIDTH 635 0
DWIDTH 5 0
BBX 5 5 0 0
BITMAP
5140
9280
9280
5940
1900
ENDCHAR
STARTCHAR uni22D4
ENCODING 8916
SWIDTH 635 0
DWIDTH 5 0
BBX 5 6 0 0
BITMAP
0400
1900
5940
8880
8880
8880
ENDCHAR
STARTCHAR uni22D5
ENCODING 8917
SWIDTH 720 0
DWIDTH 6 0
BBX 5 7 0 -1
BITMAP
0500
1600
6A80
1600
6A80
1600
1600
ENDCHAR
STARTCHAR uni22D6
ENCODING 8918
SWIDTH 720 0
DWIDTH 6 0
BBX 4 5 1 0
BITMAP
01
19
95
18
01
ENDCHAR
STARTCHAR uni22D7
ENCODING 8919
SWIDTH 720 0
DWIDTH 6 0
BBX 5 5 0 0
BITMAP
5000
1900
2580
1900
5000
ENDCHAR
STARTCHAR uni22D8
ENCODING 8920
SWIDTH 1304 0
DWIDTH 10 0
BBX 10 4 0 0
BITMAP
065990
659900
159600
015960
ENDCHAR
STARTCHAR uni22D9
ENCODING 8921
SWIDTH 1304 0
DWIDTH 10 0
BBX 10 4 0 0
BITMAP
659900
065990
066590
665900
ENDCHAR
STARTCHAR uni22DA
ENCODING 8922
SWIDTH 720 0
DWIDTH 6 0
BBX 5 9 0 -2
BITMAP
0680
2800
0640
0000
6A80
0000
1900
0280
6400
ENDCHAR
STARTCHAR uni22DB
ENCODING 8923
SWIDTH 720 0
DWIDTH 6 0
BBX 5 9 0 -2
BITMAP
6400
0280
1900
0000
6A80
0000
0640
2800
0680
ENDCHAR
STARTCHAR uni22DC
ENCODING 8924
SWIDTH 720 0
DWIDTH 6 0
BBX 5 6 0 -1
BITMAP
6A80
0040
0640
2400
1900
0180
ENDCHAR
STARTCHAR uni22DD
ENCODING 8925
SWIDTH 720 0
DWIDTH 6 0
BBX 5 6 0 -1
BITMAP
6A80
4000
1800
0280
0600
6000
ENDCHAR
STARTCHAR uni22DE
ENCODING 8926
SWIDTH 720 0
DWIDTH 6 0
BBX 5 6 0 -1
BITMAP
0040
0140
6440
1A00
2900
0080
ENDCHAR
STARTCHAR uni22DF
ENCODING 8927
SWIDTH 720 0
DWIDTH 6 0
BBX 5 6 0 -1
BITMAP
4000
2400
5680
1940
0A40
6000
ENDCHAR
STARTCHAR uni22E0
ENCODING 8928
SWIDTH 720 0
DWIDTH 6 0
BBX 5 8 0 -2
BITMAP
0040
0180
1600
6A00
5540
1A40
0440
0400
ENDCHAR
STARTCHAR uni22E1
ENCODING 8929
SWIDTH 720 0
DWIDTH 6 0
BBX 5 8 0 -2
BITMAP
0100
5100
1900
0A80
2440
1940
6000
1000
ENDCHAR
STARTCHAR uni22E2
ENCODING 8930
SWIDTH 720 0
DWIDTH 6 0
BBX 5 8 0 -2
BITMAP
0040
6A80
4100
4100
4400
6A80
6A80
1000
ENDCHAR
STARTCHAR uni22E3
ENCODING 8931
SWIDTH 720 0
DWIDTH 6 0
BBX 6 8 0 -2
BITMAP
0040
6A80
0150
0150
0450
6A80
6A80
1000
ENDCHAR
STARTCHAR uni22E4
ENCODING 8932
SWIDTH 720 0
DWIDTH 6 0
BBX 5 8 0 -2
BITMAP
6A80
4000
4000
4000
6A80
0100
6A80
0400
ENDCHAR
STARTCHAR uni22E5
ENCODING 8933
SWIDTH 720 0
DWIDTH 6 0
BBX 6 8 0 -2
BITMAP
6A80
0050
0050
0050
6A80
0100
6A80
0400
ENDCHAR
STARTCHAR uni22E6
ENCODING 8934
SWIDTH 720 0
DWIDTH 6 0
BBX 5 8 0 -3
BITMAP
0140
2400
1800
0180
0100
2900
4640
0400
ENDCHAR
STARTCHAR uni22E7
ENCODING 8935
SWIDTH 720 0
DWIDTH 6 0
BBX 5 8 0 -3
BITMAP
2400
0640
0640
6400
0100
2900
4640
0400
ENDCHAR
STARTCHAR uni22E8
ENCODING 8936
SWIDTH 720 0
DWIDTH 6 0
BBX 5 8 0 -3
BITMAP
0080
1900
1A00
0080
0100
2900
4640
0400
ENDCHAR
STARTCHAR uni22E9
ENCODING 8937
SWIDTH 720 0
DWIDTH 6 0
BBX 5 8 0 -3
BITMAP
5000
0A40
1A40
5000
0100
2900
4640
0400
ENDCHAR
STARTCHAR uni22EA
ENCODING 8938
SWIDTH 650 0
DWIDTH 5 0
BBX 5 6 0 -1
BITMAP
0140
0680
6880
1980
1580
1000
ENDCHAR
STARTCHAR uni22EB
ENCODING 8939
SWIDTH 650 0
DWIDTH 5 0
BBX 5 7 0 -1
BITMAP
0100
4100
A900
8640
8900
6000
1000
ENDCHAR
STARTCHAR uni22EC
ENCODING 8940
SWIDTH 650 0
DWIDTH 5 0
BBX 5 8 0 -2
BITMAP
0100
0280
2980
6880
0A80
1440
6A40
1000
ENDCHAR
STARTCHAR uni22ED
ENCODING 8941
SWIDTH 650 0
DWIDTH 5 0
BBX 5 8 0 -2
BITMAP
0100
A500
8A00
8A40
A800
5400
6A80
1000
ENDCHAR
STARTCHAR uni22EE
ENCODING 8942
SWIDTH 519 0
DWIDTH 4 0
BBX 2 6 1 -1
BITMAP
50
00
00
50
00
50
ENDCHAR
STARTCHAR uni22EF
ENCODING 8943
SWIDTH 953 0
DWIDTH 8 0
BBX 6 1 1 2
BITMAP
8420
ENDCHAR
STARTCHAR uni22F0
ENCODING 8944
SWIDTH 962 0
DWIDTH 8 0
BBX 5 4 1 0
BITMAP
0080
0500
0000
5000
ENDCHAR
STARTCHAR uni22F1
ENCODING 8945
SWIDTH 962 0
DWIDTH 8 0
BBX 5 4 1 0
BITMAP
5000
0500
0000
0080
ENDCHAR
STARTCHAR uni22F2
ENCODING 8946
SWIDTH 838 0
DWIDTH 7 0
BBX 6 5 0 0
BITMAP
06A0
0800
6AA0
0800
06A0
ENDCHAR
STARTCHAR uni22F3
ENCODING 8947
SWIDTH 720 0
DWIDTH 6 0
BBX 6 5 0 0
BITMAP
1A80
6040
6A90
2040
1A80
ENDCHAR
STARTCHAR uni22F4
ENCODING 8948
SWIDTH 497 0
DWIDTH 4 0
BBX 4 4 0 0
BITMAP
19
51
69
19
ENDCHAR
STARTCHAR uni22F5
ENCODING 8949
SWIDTH 720 0
DWIDTH 6 0
BBX 5 6 0 0
BITMAP
0500
1A80
6000
6A80
2000
1A80
ENDCHAR
STARTCHAR uni22F6
ENCODING 8950
SWIDTH 720 0
DWIDTH 6 0
BBX 5 6 0 0
BITMAP
2A80
1A80
6000
6A80
2000
1A80
ENDCHAR
STARTCHAR uni22F7
ENCODING 8951
SWIDTH 497 0
DWIDTH 4 0
BBX 4 5 0 0
BITMAP
69
19
50
69
19
ENDCHAR
STARTCHAR uni22F8
ENCODING 8952
SWIDTH 720 0
DWIDTH 6 0
BBX 5 6 0 -2
BITMAP
1A80
6000
6A80
2000
1A80
2A80
ENDCHAR
STARTCHAR uni22F9
ENCODING 8953
SWIDTH 720 0
DWIDTH 6 0
BBX 5 5 0 0
BITMAP
1A80
6A80
5000
2A80
1A80
ENDCHAR
STARTCHAR uni22FA
ENCODING 8954
SWIDTH 838 0
DWIDTH 7 0
BBX 6 5 0 0
BITMAP
6A00
0080
6AA0
0080
6A00
ENDCHAR
STARTCHAR uni22FB
ENCODING 8955
SWIDTH 720 0
DWIDTH 6 0
BBX 5 5 0 0
BITMAP
6A00
4080
6A80
4080
6A00
ENDCHAR
STARTCHAR uni22FC
ENCODING 8956
SWIDTH 497 0
DWIDTH 4 0
BBX 4 4 0 0
BITMAP
64
45
A9
64
ENDCHAR
STARTCHAR uni22FD
ENCODING 8957
SWIDTH 720 0
DWIDTH 6 0
BBX 5 6 0 0
BITMAP
6A80
6A00
0080
6A80
0080
6A40
ENDCHAR
STARTCHAR uni22FE
ENCODING 8958
SWIDTH 497 0
DWIDTH 4 0
BBX 4 5 0 0
BITMAP
69
64
05
69
64
ENDCHAR
STARTCHAR uni22FF
ENCODING 8959
SWIDTH 932 0
DWIDTH 7 0
BBX 7 7 0 -2
BITMAP
5554
8000
8000
9554
8000
8000
5554
ENDCHAR
STARTCHAR uni2300
ENCODING 8960
SWIDTH 620 0
DWIDTH 5 0
BBX 5 4 0 0
BITMAP
1A40
5540
5140
6900
ENDCHAR
STARTCHAR uni2301
ENCODING 8961
SWIDTH 598 0
DWIDTH 5 0
BBX 5 2 0 1
BITMAP
5900
1940
ENDCHAR
STARTCHAR uni2302
ENCODING 8962
SWIDTH 948 0
DWIDTH 8 0
BBX 7 7 0 0
BITMAP
0100
0580
1424
5008
8004
8004
6AA8
ENDCHAR
STARTCHAR uni2303
ENCODING 8963
SWIDTH 630 0
DWIDTH 5 0
BBX 5 3 0 3
BITMAP
0400
1900
5140
ENDCHAR
STARTCHAR uni2304
ENCODING 8964
SWIDTH 630 0
DWIDTH 5 0
BBX 5 3 0 -1
BITMAP
5140
1500
0400
ENDCHAR
STARTCHAR uni2305
ENCODING 8965
SWIDTH 635 0
DWIDTH 5 0
BBX 5 5 0 0
BITMAP
6A40
0800
1500
2200
4040
ENDCHAR
STARTCHAR uni2306
ENCODING 8966
SWIDTH 635 0
DWIDTH 5 0
BBX 5 6 0 0
BITMAP
6A40
6A40
0800
1500
2200
4040
ENDCHAR
STARTCHAR uni2307
ENCODING 8967
SWIDTH 470 0
DWIDTH 4 0
BBX 2 8 1 -2
BITMAP
40
50
60
80
60
50
80
60
ENDCHAR
STARTCHAR uni2308
ENCODING 8968
SWIDTH 349 0
DWIDTH 3 0
BBX 2 8 0 -2
BITMAP
50
50
50
50
50
50
50
50
ENDCHAR
STARTCHAR uni2309
ENCODING 8969
SWIDTH 349 0
DWIDTH 3 0
BBX 2 8 0 -2
BITMAP
50
20
20
20
20
20
20
10
ENDCHAR
STARTCHAR uni230A
ENCODING 8970
SWIDTH 349 0
DWIDTH 3 0
BBX 2 8 0 -2
BITMAP
50
50
50
50
50
50
50
50
ENDCHAR
STARTCHAR uni230B
ENCODING 8971
SWIDTH 349 0
DWIDTH 3 0
BBX 2 8 0 -2
BITMAP
10
20
20
20
20
20
20
50
ENDCHAR
STARTCHAR uni230C
ENCODING 8972
SWIDTH 474 0
DWIDTH 4 0
BBX 4 3 0 -1
BITMAP
29
80
80
ENDCHAR
STARTCHAR uni230D
ENCODING 8973
SWIDTH 474 0
DWIDTH 4 0
BBX 4 3 0 -1
BITMAP
64
05
05
ENDCHAR
STARTCHAR uni230E
ENCODING 8974
SWIDTH 474 0
DWIDTH 4 0
BBX 4 3 0 4
BITMAP
80
80
29
ENDCHAR
STARTCHAR uni230F
ENCODING 8975
SWIDTH 474 0
DWIDTH 4 0
BBX 4 3 0 4
BITMAP
05
05
64
ENDCHAR
STARTCHAR uni2310
ENCODING 8976
SWIDTH 614 0
DWIDTH 5 0
BBX 5 2 0 1
BITMAP
6A40
8000
ENDCHAR
STARTCHAR uni2311
ENCODING 8977
SWIDTH 535 0
DWIDTH 4 0
BBX 4 3 0 0
BITMAP
55
11
55
ENDCHAR
STARTCHAR uni2312
ENCODING 8978
SWIDTH 780 0
DWIDTH 6 0
BBX 6 3 0 0
BITMAP
1A40
5050
4010
ENDCHAR
STARTCHAR uni2313
ENCODING 8979
SWIDTH 780 0
DWIDTH 6 0
BBX 6 3 0 0
BITMAP
1A40
5050
6AA0
ENDCHAR
STARTCHAR uni2314
ENCODING 8980
SWIDTH 604 0
DWIDTH 5 0
BBX 5 4 0 1
BITMAP
5500
5140
2500
0800
ENDCHAR
STARTCHAR uni2315
ENCODING 8981
SWIDTH 867 0
DWIDTH 7 0
BBX 7 7 0 -2
BITMAP
0680
1420
2004
2004
1420
2680
4000
ENDCHAR
STARTCHAR uni2316
ENCODING 8982
SWIDTH 1126 0
DWIDTH 9 0
BBX 9 9 0 -2
BITMAP
004000
008000
06A400
088800
6AAA40
088800
06A400
008000
004000
ENDCHAR
STARTCHAR uni2317
ENCODING 8983
SWIDTH 1126 0
DWIDTH 9 0
BBX 9 8 0 -2
BITMAP
080800
6AAA40
080800
080800
080800
6AAA40
080800
040400
ENDCHAR
STARTCHAR uni2318
ENCODING 8984
SWIDTH 948 0
DWIDTH 8 0
BBX 7 7 0 -1
BITMAP
2864
4588
2AA4
0580
2AA4
4588
2864
ENDCHAR
STARTCHAR uni2319
ENCODING 8985
SWIDTH 614 0
DWIDTH 5 0
BBX 5 3 0 1
BITMAP
4000
8000
6A40
ENDCHAR
STARTCHAR uni231A
ENCODING 8986
SWIDTH 720 0
DWIDTH 6 0
BBX 5 7 0 -1
BITMAP
0500
1A40
5180
5580
5080
1A40
0500
ENDCHAR
STARTCHAR uni231B
ENCODING 8987
SWIDTH 633 0
DWIDTH 5 0
BBX 5 6 0 0
BITMAP
6A40
1500
1900
1500
2E00
6A40
ENDCHAR
STARTCHAR uni231C
ENCODING 8988
SWIDTH 474 0
DWIDTH 4 0
BBX 4 3 0 3
BITMAP
69
80
80
ENDCHAR
STARTCHAR uni231D
ENCODING 8989
SWIDTH 474 0
DWIDTH 4 0
BBX 4 3 0 3
BITMAP
69
05
05
ENDCHAR
STARTCHAR uni231E
ENCODING 8990
SWIDTH 474 0
DWIDTH 4 0
BBX 4 3 0 -2
BITMAP
80
80
69
ENDCHAR
STARTCHAR uni231F
ENCODING 8991
SWIDTH 474 0
DWIDTH 4 0
BBX 4 3 0 -2
BITMAP
05
05
69
ENDCHAR
STARTCHAR uni2320
ENCODING 8992
SWIDTH 767 0
DWIDTH 6 0
BBX 4 13 2 0
BITMAP
18
29
50
90
90
90
90
90
90
90
90
90
90
ENDCHAR
STARTCHAR uni2321
ENCODING 8993
SWIDTH 767 0
DWIDTH 6 0
BBX 4 16 0 0
BITMAP
04
09
09
09
09
09
09
09
09
09
08
08
08
08
D4
50
ENDCHAR
STARTCHAR uni2322
ENCODING 8994
SWIDTH 1043 0
DWIDTH 8 0
BBX 7 2 1 1
BITMAP
2A90
4014
ENDCHAR
STARTCHAR uni2323
ENCODING 8995
SWIDTH 1043 0
DWIDTH 8 0
BBX 7 2 1 1
BITMAP
4014
2A80
ENDCHAR
STARTCHAR uni2324
ENCODING 8996
SWIDTH 630 0
DWIDTH 5 0
BBX 5 3 0 3
BITMAP
5940
2600
5040
ENDCHAR
STARTCHAR uni2325
ENCODING 8997
SWIDTH 695 0
DWIDTH 6 0
BBX 5 6 0 0
BITMAP
6140
0400
0800
0500
0200
0140
ENDCHAR
STARTCHAR uni2326
ENCODING 8998
SWIDTH 987 0
DWIDTH 8 0
BBX 7 6 1 0
BITMAP
5540
4010
5514
4514
4010
5540
ENDCHAR
STARTCHAR uni2327
ENCODING 8999
SWIDTH 934 0
DWIDTH 7 0
BBX 6 8 1 -1
BITMAP
4040
6590
5110
4910
4910
5110
6590
4040
ENDCHAR
STARTCHAR uni2328
ENCODING 9000
SWIDTH 1235 0
DWIDTH 10 0
BBX 10 5 0 0
BITMAP
5A6690
5AAA90
499690
5AA690
555540
ENDCHAR
STARTCHAR uni2329
ENCODING 9001
SWIDTH 409 0
DWIDTH 3 0
BBX 3 8 0 -2
BITMAP
04
04
10
10
50
20
10
04
ENDCHAR
STARTCHAR uni232A
ENCODING 9002
SWIDTH 409 0
DWIDTH 3 0
BBX 3 8 0 -2
BITMAP
40
10
10
14
08
10
10
50
ENDCHAR
STARTCHAR uni232B
ENCODING 9003
SWIDTH 987 0
DWIDTH 8 0
BBX 7 6 0 0
BITMAP
0554
1004
4144
4144
1004
0554
ENDCHAR
STARTCHAR uni232C
ENCODING 9004
SWIDTH 948 0
DWIDTH 8 0
BBX 7 7 0 -1
BITMAP
0680
2564
5468
5408
5468
2554
0680
ENDCHAR
STARTCHAR uni232D
ENCODING 9005
SWIDTH 1009 0
DWIDTH 8 0
BBX 8 6 0 -1
BITMAP
0101
0688
0824
1820
2290
4040
ENDCHAR
STARTCHAR uni232E
ENCODING 9006
SWIDTH 639 0
DWIDTH 5 0
BBX 5 5 0 -1
BITMAP
1900
2680
2580
AA00
9000
ENDCHAR
STARTCHAR uni232F
ENCODING 9007
SWIDTH 592 0
DWIDTH 5 0
BBX 5 3 0 1
BITMAP
1400
5540
1400
ENDCHAR
STARTCHAR uni2330
ENCODING 9008
SWIDTH 685 0
DWIDTH 5 0
BBX 6 6 0 0
BITMAP
0040
2490
1040
1100
4100
5500
ENDCHAR
STARTCHAR uni2331
ENCODING 9009
SWIDTH 734 0
DWIDTH 6 0
BBX 6 5 0 0
BITMAP
2400
5500
5660
6500
1400
ENDCHAR
STARTCHAR uni2332
ENCODING 9010
SWIDTH 910 0
DWIDTH 7 0
BBX 7 5 0 0
BITMAP
6400
5640
6AF4
5640
6400
ENDCHAR
STARTCHAR uni2333
ENCODING 9011
SWIDTH 810 0
DWIDTH 6 0
BBX 6 3 0 1
BITMAP
1000
5500
1590
ENDCHAR
STARTCHAR uni2334
ENCODING 9012
SWIDTH 657 0
DWIDTH 5 0
BBX 5 3 0 0
BITMAP
5040
5040
1540
ENDCHAR
STARTCHAR uni2335
ENCODING 9013
SWIDTH 577 0
DWIDTH 5 0
BBX 4 3 0 0
BITMAP
52
15
04
ENDCHAR
STARTCHAR uni2336
ENCODING 9014
SWIDTH 678 0
DWIDTH 5 0
BBX 5 8 0 -2
BITMAP
5940
0400
0400
0400
0400
0400
0400
5940
ENDCHAR
STARTCHAR uni2337
ENCODING 9015
SWIDTH 488 0
DWIDTH 4 0
BBX 4 8 0 -2
BITMAP
55
45
45
45
45
45
45
55
ENDCHAR
STARTCHAR uni2338
ENCODING 9016
SWIDTH 678 0
DWIDTH 5 0
BBX 5 8 0 -2
BITMAP
5540
4040
4040
4040
6580
6580
4040
5540
ENDCHAR
STARTCHAR uni2339
ENCODING 9017
SWIDTH 678 0
DWIDTH 5 0
BBX 5 8 0 -2
BITMAP
5540
4040
4840
4040
6580
4840
4040
5540
ENDCHAR
STARTCHAR uni233A
ENCODING 9018
SWIDTH 678 0
DWIDTH 5 0
BBX 5 8 0 -2
BITMAP
5540
4040
4440
6280
6180
4840
4040
5540
ENDCHAR
STARTCHAR uni233B
ENCODING 9019
SWIDTH 678 0
DWIDTH 5 0
BBX 5 8 0 -2
BITMAP
5540
4040
4040
5540
5540
4040
4040
5540
ENDCHAR
STARTCHAR uni233C
ENCODING 9020
SWIDTH 678 0
DWIDTH 5 0
BBX 5 8 0 -2
BITMAP
5540
4040
5580
5080
5080
5580
4040
5540
ENDCHAR
STARTCHAR uni233D
ENCODING 9021
SWIDTH 832 0
DWIDTH 7 0
BBX 7 8 0 -2
BITMAP
0100
0640
2120
4110
4114
5110
1650
0200
ENDCHAR
STARTCHAR uni233E
ENCODING 9022
SWIDTH 832 0
DWIDTH 7 0
BBX 6 6 0 -1
BITMAP
0540
1560
4450
4450
1560
0540
ENDCHAR
STARTCHAR uni233F
ENCODING 9023
SWIDTH 638 0
DWIDTH 5 0
BBX 5 7 0 -1
BITMAP
0140
0200
0500
5940
1400
2000
5000
ENDCHAR
STARTCHAR uni2340
ENCODING 9024
SWIDTH 638 0
DWIDTH 5 0
BBX 5 7 0 -1
BITMAP
1000
1000
1400
5940
0500
0200
0140
ENDCHAR
STARTCHAR uni2341
ENCODING 9025
SWIDTH 678 0
DWIDTH 5 0
BBX 5 8 0 -2
BITMAP
5580
4180
4240
4540
4840
5440
6040
6540
ENDCHAR
STARTCHAR uni2342
ENCODING 9026
SWIDTH 678 0
DWIDTH 5 0
BBX 5 8 0 -2
BITMAP
6540
6040
5440
4840
4540
4240
4180
5580
ENDCHAR
STARTCHAR uni2343
ENCODING 9027
SWIDTH 678 0
DWIDTH 5 0
BBX 5 8 0 -2
BITMAP
5540
4040
4180
5440
5440
4180
4040
5540
ENDCHAR
STARTCHAR uni2344
ENCODING 9028
SWIDTH 678 0
DWIDTH 5 0
BBX 5 8 0 -2
BITMAP
5540
4040
6040
4580
4580
6440
4040
5540
ENDCHAR
STARTCHAR uni2345
ENCODING 9029
SWIDTH 783 0
DWIDTH 6 0
BBX 6 7 0 -1
BITMAP
0100
0100
0100
6650
0100
0100
0100
ENDCHAR
STARTCHAR uni2346
ENCODING 9030
SWIDTH 783 0
DWIDTH 6 0
BBX 6 7 0 -1
BITMAP
0400
0400
0400
5AA0
0400
0400
0400
ENDCHAR
STARTCHAR uni2347
ENCODING 9031
SWIDTH 678 0
DWIDTH 5 0
BBX 5 8 0 -2
BITMAP
5540
4040
4040
4040
6980
4040
4040
5540
ENDCHAR
STARTCHAR uni2348
ENCODING 9032
SWIDTH 678 0
DWIDTH 5 0
BBX 5 8 0 -2
BITMAP
5540
4040
4040
4040
6780
4040
4040
5540
ENDCHAR
STARTCHAR uni2349
ENCODING 9033
SWIDTH 832 0
DWIDTH 7 0
BBX 7 8 0 -2
BITMAP
1000
1940
2820
4510
4214
1060
0580
0050
ENDCHAR
STARTCHAR uni234A
ENCODING 9034
SWIDTH 678 0
DWIDTH 5 0
BBX 5 8 0 -2
BITMAP
0400
0400
0400
0400
0400
0400
5940
5540
ENDCHAR
STARTCHAR uni234B
ENCODING 9035
SWIDTH 746 0
DWIDTH 6 0
BBX 6 8 0 -2
BITMAP
0500
0500
0A00
1540
1540
5550
5A50
0400
ENDCHAR
STARTCHAR uni234C
ENCODING 9036
SWIDTH 678 0
DWIDTH 5 0
BBX 5 8 0 -2
BITMAP
5540
4040
5180
5240
4940
4440
4040
5540
ENDCHAR
STARTCHAR uni234D
ENCODING 9037
SWIDTH 678 0
DWIDTH 5 0
BBX 5 8 0 -2
BITMAP
5540
4040
4440
4940
5640
6680
4040
5540
ENDCHAR
STARTCHAR uni234E
ENCODING 9038
SWIDTH 678 0
DWIDTH 5 0
BBX 5 8 0 -2
BITMAP
0400
0400
1900
2540
2A00
0800
0400
5940
ENDCHAR
STARTCHAR uni234F
ENCODING 9039
SWIDTH 712 0
DWIDTH 6 0
BBX 6 7 0 -1
BITMAP
0900
0900
0400
5A50
0400
0400
0400
ENDCHAR
STARTCHAR uni2350
ENCODING 9040
SWIDTH 678 0
DWIDTH 5 0
BBX 5 8 0 -2
BITMAP
5540
4940
4840
4440
4440
4440
4440
5940
ENDCHAR
STARTCHAR uni2351
ENCODING 9041
SWIDTH 678 0
DWIDTH 5 0
BBX 5 8 0 -2
BITMAP
5540
5940
0400
0400
0400
0400
0400
0400
ENDCHAR
STARTCHAR uni2352
ENCODING 9042
SWIDTH 746 0
DWIDTH 6 0
BBX 6 8 0 -2
BITMAP
0500
5A50
5550
1540
1540
0A00
0500
0400
ENDCHAR
STARTCHAR uni2353
ENCODING 9043
SWIDTH 678 0
DWIDTH 5 0
BBX 5 8 0 -2
BITMAP
5540
4440
4940
5540
6180
5080
4080
5540
ENDCHAR
STARTCHAR uni2354
ENCODING 9044
SWIDTH 678 0
DWIDTH 5 0
BBX 5 8 0 -2
BITMAP
5540
4040
6680
5640
4940
4440
4040
5540
ENDCHAR
STARTCHAR uni2355
ENCODING 9045
SWIDTH 678 0
DWIDTH 5 0
BBX 5 8 0 -2
BITMAP
5940
0400
0800
1A00
2540
1900
0400
0400
ENDCHAR
STARTCHAR uni2356
ENCODING 9046
SWIDTH 712 0
DWIDTH 6 0
BBX 6 7 0 -1
BITMAP
0400
0400
0400
5A50
0400
0900
0900
ENDCHAR
STARTCHAR uni2357
ENCODING 9047
SWIDTH 678 0
DWIDTH 5 0
BBX 5 8 0 -2
BITMAP
5940
4440
4440
4440
4440
4440
4940
5540
ENDCHAR
STARTCHAR uni2358
ENCODING 9048
SWIDTH 678 0
DWIDTH 5 0
BBX 4 5 1 -1
BITMAP
20
10
00
00
55
ENDCHAR
STARTCHAR uni2359
ENCODING 9049
SWIDTH 688 0
DWIDTH 6 0
BBX 5 6 0 -1
BITMAP
0500
1100
1140
5080
5580
5540
ENDCHAR
STARTCHAR uni235A
ENCODING 9050
SWIDTH 678 0
DWIDTH 5 0
BBX 4 5 1 -1
BITMAP
24
85
58
10
55
ENDCHAR
STARTCHAR uni235B
ENCODING 9051
SWIDTH 678 0
DWIDTH 5 0
BBX 4 5 1 -1
BITMAP
14
44
14
00
55
ENDCHAR
STARTCHAR uni235C
ENCODING 9052
SWIDTH 678 0
DWIDTH 5 0
BBX 5 6 0 -1
BITMAP
1500
1040
4040
1040
1500
1540
ENDCHAR
STARTCHAR uni235D
ENCODING 9053
SWIDTH 726 0
DWIDTH 6 0
BBX 6 6 0 0
BITMAP
1540
5540
5550
4510
4010
4010
ENDCHAR
STARTCHAR uni235E
ENCODING 9054
SWIDTH 678 0
DWIDTH 5 0
BBX 5 8 0 -2
BITMAP
5540
4440
4440
4040
4040
4040
4040
5540
ENDCHAR
STARTCHAR uni235F
ENCODING 9055
SWIDTH 862 0
DWIDTH 7 0
BBX 7 7 0 -1
BITMAP
0A40
2020
5214
8B84
5654
2020
0A40
ENDCHAR
STARTCHAR uni2360
ENCODING 9056
SWIDTH 678 0
DWIDTH 5 0
BBX 5 8 0 -2
BITMAP
5540
4040
4040
4040
4840
4840
4040
5540
ENDCHAR
STARTCHAR uni2361
ENCODING 9057
SWIDTH 678 0
DWIDTH 5 0
BBX 5 7 0 -1
BITMAP
1600
5940
0400
0400
0400
0400
0400
ENDCHAR
STARTCHAR uni2362
ENCODING 9058
SWIDTH 686 0
DWIDTH 5 0
BBX 5 7 0 -1
BITMAP
1600
5580
5040
2140
1100
0900
0400
ENDCHAR
STARTCHAR uni2363
ENCODING 9059
SWIDTH 540 0
DWIDTH 4 0
BBX 3 5 1 0
BITMAP
94
10
A4
B0
40
ENDCHAR
STARTCHAR uni2364
ENCODING 9060
SWIDTH 540 0
DWIDTH 4 0
BBX 4 5 0 0
BITMAP
15
14
41
41
14
ENDCHAR
STARTCHAR uni2365
ENCODING 9061
SWIDTH 832 0
DWIDTH 7 0
BBX 6 7 0 -1
BITMAP
0840
0540
1020
4010
4010
1020
0540
ENDCHAR
STARTCHAR uni2366
ENCODING 9062
SWIDTH 746 0
DWIDTH 6 0
BBX 6 7 0 -2
BITMAP
4510
4510
4510
4510
4550
1A40
0500
ENDCHAR
STARTCHAR uni2367
ENCODING 9063
SWIDTH 844 0
DWIDTH 7 0
BBX 6 8 0 -2
BITMAP
0100
0A50
2100
4100
4100
1100
0650
0100
ENDCHAR
STARTCHAR uni2368
ENCODING 9064
SWIDTH 554 0
DWIDTH 4 0
BBX 4 3 0 1
BITMAP
25
61
45
ENDCHAR
STARTCHAR uni2369
ENCODING 9065
SWIDTH 572 0
DWIDTH 5 0
BBX 4 6 1 0
BITMAP
88
00
50
09
24
40
ENDCHAR
STARTCHAR uni236A
ENCODING 9066
SWIDTH 347 0
DWIDTH 3 0
BBX 3 3 0 0
BITMAP
64
20
10
ENDCHAR
STARTCHAR uni236B
ENCODING 9067
SWIDTH 686 0
DWIDTH 5 0
BBX 5 6 0 0
BITMAP
5580
5040
2040
6640
0500
0400
ENDCHAR
STARTCHAR uni236C
ENCODING 9068
SWIDTH 651 0
DWIDTH 5 0
BBX 5 6 0 0
BITMAP
1500
1100
6580
1140
1100
1500
ENDCHAR
STARTCHAR uni236D
ENCODING 9069
SWIDTH 844 0
DWIDTH 7 0
BBX 5 7 1 -1
BITMAP
0400
0400
4A40
6800
0400
0400
0400
ENDCHAR
STARTCHAR uni236E
ENCODING 9070
SWIDTH 678 0
DWIDTH 5 0
BBX 4 6 1 -1
BITMAP
20
00
20
10
00
55
ENDCHAR
STARTCHAR uni236F
ENCODING 9071
SWIDTH 678 0
DWIDTH 5 0
BBX 5 8 0 -2
BITMAP
5540
4040
4140
5A80
5980
5440
4040
5540
ENDCHAR
STARTCHAR uni2370
ENCODING 9072
SWIDTH 678 0
DWIDTH 5 0
BBX 5 8 0 -2
BITMAP
5540
5540
5240
4140
4440
4440
4040
5540
ENDCHAR
STARTCHAR uni2371
ENCODING 9073
SWIDTH 766 0
DWIDTH 6 0
BBX 6 5 0 0
BITMAP
4010
1080
6990
0500
0500
ENDCHAR
STARTCHAR uni2372
ENCODING 9074
SWIDTH 766 0
DWIDTH 6 0
BBX 6 5 0 0
BITMAP
0500
0500
6990
1080
4010
ENDCHAR
STARTCHAR uni2373
ENCODING 9075
SWIDTH 288 0
DWIDTH 2 0
BBX 2 4 0 0
BITMAP
50
50
50
20
ENDCHAR
STARTCHAR uni2374
ENCODING 9076
SWIDTH 528 0
DWIDTH 4 0
BBX 4 5 0 -1
BITMAP
15
52
52
55
40
ENDCHAR
STARTCHAR uni2375
ENCODING 9077
SWIDTH 700 0
DWIDTH 6 0
BBX 5 4 0 0
BITMAP
2140
8440
8440
2540
ENDCHAR
STARTCHAR uni2376
ENCODING 9078
SWIDTH 561 0
DWIDTH 4 0
BBX 4 5 0 -1
BITMAP
26
45
45
66
55
ENDCHAR
STARTCHAR uni2377
ENCODING 9079
SWIDTH 440 0
DWIDTH 4 0
BBX 3 5 0 -1
BITMAP
14
94
80
14
54
ENDCHAR
STARTCHAR uni2378
ENCODING 9080
SWIDTH 288 0
DWIDTH 2 0
BBX 3 5 0 -1
BITMAP
50
50
50
20
54
ENDCHAR
STARTCHAR uni2379
ENCODING 9081
SWIDTH 660 0
DWIDTH 5 0
BBX 5 5 0 -1
BITMAP
6040
4880
4480
6640
5540
ENDCHAR
STARTCHAR uni237A
ENCODING 9082
SWIDTH 589 0
DWIDTH 5 0
BBX 5 5 0 0
BITMAP
1540
5200
8200
8600
2540
ENDCHAR
STARTCHAR uni237B
ENCODING 9083
SWIDTH 601 0
DWIDTH 5 0
BBX 5 5 0 0
BITMAP
0100
0640
4400
5400
2400
ENDCHAR
STARTCHAR uni237C
ENCODING 9084
SWIDTH 892 0
DWIDTH 7 0
BBX 7 7 0 -2
BITMAP
0400
0900
2400
1800
4EA4
6000
6400
ENDCHAR
STARTCHAR uni237D
ENCODING 9085
SWIDTH 747 0
DWIDTH 6 0
BBX 6 2 0 0
BITMAP
6090
1540
ENDCHAR
STARTCHAR uni237E
ENCODING 9086
SWIDTH 937 0
DWIDTH 8 0
BBX 7 6 0 0
BITMAP
0540
2420
1008
2994
0480
5854
ENDCHAR
STARTCHAR uni237F
ENCODING 9087
SWIDTH 337 0
DWIDTH 3 0
BBX 3 6 0 0
BITMAP
10
20
60
74
20
20
ENDCHAR
STARTCHAR uni2380
ENCODING 9088
SWIDTH 856 0
DWIDTH 7 0
BBX 6 6 0 -1
BITMAP
0500
0540
0940
5560
1880
0200
ENDCHAR
STARTCHAR uni2381
ENCODING 9089
SWIDTH 960 0
DWIDTH 8 0
BBX 7 5 0 0
BITMAP
1400
4800
5800
5554
6AA8
ENDCHAR
STARTCHAR uni2382
ENCODING 9090
SWIDTH 838 0
DWIDTH 7 0
BBX 7 5 0 0
BITMAP
1450
4860
5860
5454
69A4
ENDCHAR
STARTCHAR uni2383
ENCODING 9091
SWIDTH 1115 0
DWIDTH 9 0
BBX 9 6 0 0
BITMAP
100100
054400
011000
515540
055400
200200
ENDCHAR
STARTCHAR uni2384
ENCODING 9092
SWIDTH 1022 0
DWIDTH 8 0
BBX 8 6 0 0
BITMAP
56A4
4215
4411
4411
4115
56A4
ENDCHAR
STARTCHAR uni2385
ENCODING 9093
SWIDTH 823 0
DWIDTH 7 0
BBX 6 6 0 0
BITMAP
5560
4010
4010
4010
4010
5560
ENDCHAR
STARTCHAR uni2386
ENCODING 9094
SWIDTH 1011 0
DWIDTH 8 0
BBX 8 6 0 0
BITMAP
0050
0154
5555
5555
0154
0050
ENDCHAR
STARTCHAR uni2387
ENCODING 9095
SWIDTH 695 0
DWIDTH 6 0
BBX 5 6 0 0
BITMAP
6140
0400
0800
0500
0200
0140
ENDCHAR
STARTCHAR uni2388
ENCODING 9096
SWIDTH 960 0
DWIDTH 8 0
BBX 7 8 0 -1
BITMAP
0100
0240
5664
2A64
1784
2568
0690
0100
ENDCHAR
STARTCHAR uni2389
ENCODING 9097
SWIDTH 787 0
DWIDTH 6 0
BBX 6 6 0 0
BITMAP
1540
1050
60A0
4960
2550
1540
ENDCHAR
STARTCHAR uni238A
ENCODING 9098
SWIDTH 787 0
DWIDTH 6 0
BBX 6 6 0 0
BITMAP
1540
2050
5FA0
4B20
2650
1640
ENDCHAR
STARTCHAR uni238B
ENCODING 9099
SWIDTH 805 0
DWIDTH 6 0
BBX 6 6 0 0
BITMAP
7580
7860
0920
5020
2060
0A80
ENDCHAR
STARTCHAR uni238C
ENCODING 9100
SWIDTH 778 0
DWIDTH 6 0
BBX 6 5 0 0
BITMAP
1540
2440
5050
4510
5050
ENDCHAR
STARTCHAR uni238D
ENCODING 9101
SWIDTH 858 0
DWIDTH 7 0
BBX 7 6 0 0
BITMAP
0940
0440
0440
0440
0440
5454
ENDCHAR
STARTCHAR uni238E
ENCODING 9102
SWIDTH 746 0
DWIDTH 6 0
BBX 6 6 0 0
BITMAP
0550
1540
1540
1540
1540
5500
ENDCHAR
STARTCHAR uni238F
ENCODING 9103
SWIDTH 813 0
DWIDTH 7 0
BBX 6 6 0 0
BITMAP
1650
0540
1050
5020
1440
0600
ENDCHAR
STARTCHAR uni2390
ENCODING 9104
SWIDTH 813 0
DWIDTH 7 0
BBX 6 6 0 -1
BITMAP
0600
1440
5020
1050
0540
1650
ENDCHAR
STARTCHAR uni2391
ENCODING 9105
SWIDTH 813 0
DWIDTH 7 0
BBX 6 6 0 -1
BITMAP
0540
1050
6560
2050
0940
1650
ENDCHAR
STARTCHAR uni2392
ENCODING 9106
SWIDTH 813 0
DWIDTH 7 0
BBX 6 6 0 0
BITMAP
1650
0940
2050
6560
1040
0500
ENDCHAR
STARTCHAR uni2393
ENCODING 9107
SWIDTH 935 0
DWIDTH 7 0
BBX 6 3 1 1
BITMAP
AA90
0000
9950
ENDCHAR
STARTCHAR uni2394
ENCODING 9108
SWIDTH 948 0
DWIDTH 8 0
BBX 8 7 0 -1
BITMAP
1AA0
2014
5008
8005
5008
2014
0AA0
ENDCHAR
STARTCHAR uni2395
ENCODING 9109
SWIDTH 678 0
DWIDTH 5 0
BBX 5 8 0 -2
BITMAP
5540
4040
4040
4040
4040
4040
4040
5540
ENDCHAR
STARTCHAR uni2396
ENCODING 9110
SWIDTH 545 0
DWIDTH 4 0
BBX 4 5 0 0
BITMAP
7E
7D
78
70
50
ENDCHAR
STARTCHAR uni2397
ENCODING 9111
SWIDTH 750 0
DWIDTH 6 0
BBX 6 6 0 0
BITMAP
1500
1540
1810
5910
1410
0540
ENDCHAR
STARTCHAR uni2398
ENCODING 9112
SWIDTH 750 0
DWIDTH 6 0
BBX 5 6 0 0
BITMAP
1500
5540
4500
5500
1400
0540
ENDCHAR
STARTCHAR uni2399
ENCODING 9113
SWIDTH 836 0
DWIDTH 7 0
BBX 7 6 0 0
BITMAP
0140
0540
5560
4554
4010
1550
ENDCHAR
STARTCHAR uni239A
ENCODING 9114
SWIDTH 836 0
DWIDTH 7 0
BBX 7 5 0 0
BITMAP
1550
4010
4014
4010
1550
ENDCHAR
STARTCHAR uni239B
ENCODING 9115
SWIDTH 484 0
DWIDTH 4 0
BBX 4 10 0 0
BITMAP
05
04
20
20
50
50
90
90
90
90
ENDCHAR
STARTCHAR uni239C
ENCODING 9116
SWIDTH 484 0
DWIDTH 4 0
BBX 2 10 0 0
BITMAP
90
90
90
90
90
90
90
90
90
90
ENDCHAR
STARTCHAR uni239D
ENCODING 9117
SWIDTH 484 0
DWIDTH 4 0
BBX 4 10 0 0
BITMAP
90
90
90
90
50
50
20
20
04
05
ENDCHAR
STARTCHAR uni239E
ENCODING 9118
SWIDTH 484 0
DWIDTH 4 0
BBX 4 10 0 0
BITMAP
50
20
08
08
09
09
05
05
05
05
ENDCHAR
STARTCHAR uni239F
ENCODING 9119
SWIDTH 484 0
DWIDTH 4 0
BBX 2 10 2 0
BITMAP
50
50
50
50
50
50
50
50
50
50
ENDCHAR
STARTCHAR uni23A0
ENCODING 9120
SWIDTH 484 0
DWIDTH 4 0
BBX 4 10 0 0
BITMAP
05
05
05
05
09
09
08
08
20
50
ENDCHAR
STARTCHAR uni23A1
ENCODING 9121
SWIDTH 585 0
DWIDTH 5 0
BBX 3 11 1 -1
BITMAP
94
C0
C0
C0
C0
C0
C0
C0
C0
C0
80
ENDCHAR
STARTCHAR uni23A2
ENCODING 9122
SWIDTH 585 0
DWIDTH 5 0
BBX 1 8 1 0
BITMAP
C0
C0
C0
C0
C0
C0
C0
C0
ENDCHAR
STARTCHAR uni23A3
ENCODING 9123
SWIDTH 585 0
DWIDTH 5 0
BBX 3 11 1 0
BITMAP
40
C0
C0
C0
C0
C0
C0
C0
C0
C0
94
ENDCHAR
STARTCHAR uni23A4
ENCODING 9124
SWIDTH 585 0
DWIDTH 5 0
BBX 3 11 1 -1
BITMAP
54
18
18
18
18
18
18
18
18
18
14
ENDCHAR
STARTCHAR uni23A5
ENCODING 9125
SWIDTH 585 0
DWIDTH 5 0
BBX 2 8 2 0
BITMAP
60
60
60
60
60
60
60
60
ENDCHAR
STARTCHAR uni23A6
ENCODING 9126
SWIDTH 585 0
DWIDTH 5 0
BBX 3 11 1 0
BITMAP
04
18
18
18
18
18
18
18
18
18
54
ENDCHAR
STARTCHAR uni23A7
ENCODING 9127
SWIDTH 600 0
DWIDTH 5 0
BBX 3 11 2 0
BITMAP
14
50
80
80
C0
C0
C0
C0
C0
C0
80
ENDCHAR
STARTCHAR uni23A8
ENCODING 9128
SWIDTH 600 0
DWIDTH 5 0
BBX 3 16 0 -1
BITMAP
0C
0C
0C
0C
08
08
14
60
14
08
08
0C
0C
0C
0C
04
ENDCHAR
STARTCHAR uni23A9
ENCODING 9129
SWIDTH 600 0
DWIDTH 5 0
BBX 3 11 2 0
BITMAP
40
C0
C0
C0
C0
C0
C0
80
80
50
14
ENDCHAR
STARTCHAR uni23AA
ENCODING 9130
SWIDTH 600 0
DWIDTH 5 0
BBX 1 8 2 0
BITMAP
C0
C0
C0
C0
C0
C0
C0
C0
ENDCHAR
STARTCHAR uni23AB
ENCODING 9131
SWIDTH 600 0
DWIDTH 5 0
BBX 3 11 0 0
BITMAP
40
20
14
08
08
0C
0C
0C
0C
0C
08
ENDCHAR
STARTCHAR uni23AC
ENCODING 9132
SWIDTH 600 0
DWIDTH 5 0
BBX 2 16 2 -1
BITMAP
C0
C0
C0
C0
C0
80
80
30
80
80
C0
C0
C0
C0
C0
40
ENDCHAR
STARTCHAR uni23AD
ENCODING 9133
SWIDTH 600 0
DWIDTH 5 0
BBX 3 11 0 0
BITMAP
04
0C
0C
0C
0C
0C
08
08
14
20
40
ENDCHAR
STARTCHAR uni23AE
ENCODING 9134
SWIDTH 704 0
DWIDTH 6 0
BBX 2 5 2 0
BITMAP
90
90
90
90
90
ENDCHAR
STARTCHAR uni23AF
ENCODING 9135
SWIDTH 322 0
DWIDTH 3 0
BBX 3 1 0 2
BITMAP
A4
ENDCHAR
STARTCHAR uni23B0
ENCODING 9136
SWIDTH 614 0
DWIDTH 5 0
BBX 4 9 0 -3
BITMAP
01
05
0C
0C
0C
0C
0C
14
50
ENDCHAR
STARTCHAR uni23B1
ENCODING 9137
SWIDTH 614 0
DWIDTH 5 0
BBX 4 9 0 -3
BITMAP
50
14
0C
0C
0C
0C
0C
05
01
ENDCHAR
STARTCHAR uni23B2
ENCODING 9138
SWIDTH 1517 0
DWIDTH 12 0
BBX 10 13 1 -1
BITMAP
FAAAE0
B40060
780020
3C0000
2D0000
0E0000
0B0000
078000
03C000
02D000
01E000
00B000
005000
ENDCHAR
STARTCHAR uni23B3
ENCODING 9139
SWIDTH 1517 0
DWIDTH 12 0
BBX 10 13 1 0
BITMAP
006400
00F000
01E000
02D000
03C000
078000
0B0000
0E0000
2D0000
3C0010
780020
BEAAF0
FFFFE0
ENDCHAR
STARTCHAR uni23B4
ENCODING 9140
SWIDTH 630 0
DWIDTH 5 0
BBX 5 2 0 4
BITMAP
AA80
4040
ENDCHAR
STARTCHAR uni23B5
ENCODING 9141
SWIDTH 630 0
DWIDTH 5 0
BBX 5 2 0 -2
BITMAP
4040
AA80
ENDCHAR
STARTCHAR uni23B6
ENCODING 9142
SWIDTH 948 0
DWIDTH 8 0
BBX 7 4 0 0
BITMAP
4004
6AA8
6AA8
4004
ENDCHAR
STARTCHAR uni23B7
ENCODING 9143
SWIDTH 725 0
DWIDTH 6 0
BBX 3 8 1 0
BITMAP
14
14
14
54
94
64
34
24
ENDCHAR
STARTCHAR uni23B8
ENCODING 9144
SWIDTH 495 0
DWIDTH 4 0
BBX 1 10 0 -3
BITMAP
40
40
40
40
40
40
40
40
40
40
ENDCHAR
STARTCHAR uni23B9
ENCODING 9145
SWIDTH 495 0
DWIDTH 4 0
BBX 1 10 3 -3
BITMAP
40
40
40
40
40
40
40
40
40
40
ENDCHAR
STARTCHAR uni23BA
ENCODING 9146
SWIDTH 725 0
DWIDTH 6 0
BBX 6 1 0 4
BITMAP
AAA0
ENDCHAR
STARTCHAR uni23BB
ENCODING 9147
SWIDTH 725 0
DWIDTH 6 0
BBX 6 1 0 3
BITMAP
AAA0
ENDCHAR
STARTCHAR uni23BC
ENCODING 9148
SWIDTH 725 0
DWIDTH 6 0
BBX 6 1 0 1
BITMAP
AAA0
ENDCHAR
STARTCHAR uni23BD
ENCODING 9149
SWIDTH 725 0
DWIDTH 6 0
BBX 6 1 0 0
BITMAP
AAA0
ENDCHAR
STARTCHAR uni23BE
ENCODING 9150
SWIDTH 529 0
DWIDTH 4 0
BBX 4 7 0 -1
BITMAP
25
50
50
50
50
50
10
ENDCHAR
STARTCHAR uni23BF
ENCODING 9151
SWIDTH 529 0
DWIDTH 4 0
BBX 4 7 0 -1
BITMAP
10
50
50
50
50
50
25
ENDCHAR
STARTCHAR uni23C0
ENCODING 9152
SWIDTH 660 0
DWIDTH 5 0
BBX 5 7 0 -1
BITMAP
0400
0900
5940
4880
4880
1A00
0800
ENDCHAR
STARTCHAR uni23C1
ENCODING 9153
SWIDTH 794 0
DWIDTH 6 0
BBX 6 7 0 -1
BITMAP
5650
0640
2140
1110
2150
0A40
0100
ENDCHAR
STARTCHAR uni23C2
ENCODING 9154
SWIDTH 794 0
DWIDTH 6 0
BBX 6 7 0 -1
BITMAP
0100
0A40
2150
1110
2140
0640
5650
ENDCHAR
STARTCHAR uni23C3
ENCODING 9155
SWIDTH 730 0
DWIDTH 6 0
BBX 6 7 0 -1
BITMAP
0400
0500
0A00
1540
1540
5A90
0400
ENDCHAR
STARTCHAR uni23C4
ENCODING 9156
SWIDTH 794 0
DWIDTH 6 0
BBX 6 7 0 -1
BITMAP
5650
0200
0A00
1540
2150
6A60
0100
ENDCHAR
STARTCHAR uni23C5
ENCODING 9157
SWIDTH 794 0
DWIDTH 6 0
BBX 6 7 0 -1
BITMAP
0100
0600
0A00
1580
2150
6A60
5650
ENDCHAR
STARTCHAR uni23C6
ENCODING 9158
SWIDTH 734 0
DWIDTH 6 0
BBX 6 6 0 0
BITMAP
0500
0500
5900
0650
0500
0500
ENDCHAR
STARTCHAR uni23C7
ENCODING 9159
SWIDTH 794 0
DWIDTH 6 0
BBX 6 7 0 0
BITMAP
5650
0100
0100
5900
0250
0100
0100
ENDCHAR
STARTCHAR uni23C8
ENCODING 9160
SWIDTH 794 0
DWIDTH 6 0
BBX 6 7 0 -1
BITMAP
0100
0100
5900
0250
0100
0100
5650
ENDCHAR
STARTCHAR uni23C9
ENCODING 9161
SWIDTH 794 0
DWIDTH 6 0
BBX 6 7 0 -1
BITMAP
5650
0100
0100
0100
0100
0100
0100
ENDCHAR
STARTCHAR uni23CA
ENCODING 9162
SWIDTH 794 0
DWIDTH 6 0
BBX 6 7 0 -1
BITMAP
0100
0100
0100
0100
0100
0100
5650
ENDCHAR
STARTCHAR uni23CB
ENCODING 9163
SWIDTH 529 0
DWIDTH 4 0
BBX 4 7 0 -1
BITMAP
55
01
01
01
01
01
01
ENDCHAR
STARTCHAR uni23CC
ENCODING 9164
SWIDTH 529 0
DWIDTH 4 0
BBX 4 7 0 -1
BITMAP
01
01
01
01
01
01
55
ENDCHAR
STARTCHAR uni23CD
ENCODING 9165
SWIDTH 817 0
DWIDTH 7 0
BBX 6 6 0 0
BITMAP
5660
4110
4010
4010
4010
5560
ENDCHAR
STARTCHAR uni23CE
ENCODING 9166
SWIDTH 948 0
DWIDTH 8 0
BBX 7 8 0 -2
BITMAP
0018
0054
0054
0154
1544
5004
1550
0500
ENDCHAR
STARTCHAR uni23CF
ENCODING 9167
SWIDTH 634 0
DWIDTH 5 0
BBX 5 6 0 0
BITMAP
0400
1D00
3F00
1500
7F80
1500
ENDCHAR
STARTCHAR uni23D0
ENCODING 9168
SWIDTH 523 0
DWIDTH 4 0
BBX 2 3 1 1
BITMAP
10
50
50
ENDCHAR
STARTCHAR uni23D1
ENCODING 9169
SWIDTH 573 0
DWIDTH 5 0
BBX 4 2 0 1
BITMAP
41
19
ENDCHAR
STARTCHAR uni23D2
ENCODING 9170
SWIDTH 573 0
DWIDTH 5 0
BBX 4 3 0 1
BITMAP
55
41
19
ENDCHAR
STARTCHAR uni23D3
ENCODING 9171
SWIDTH 573 0
DWIDTH 5 0
BBX 4 2 0 0
BITMAP
19
55
ENDCHAR
STARTCHAR uni23D4
ENCODING 9172
SWIDTH 1070 0
DWIDTH 9 0
BBX 8 3 0 1
BITMAP
5555
4141
1919
ENDCHAR
STARTCHAR uni23D5
ENCODING 9173
SWIDTH 1070 0
DWIDTH 9 0
BBX 8 2 0 0
BITMAP
1919
5555
ENDCHAR
STARTCHAR uni23D6
ENCODING 9174
SWIDTH 996 0
DWIDTH 8 0
BBX 8 2 0 1
BITMAP
4141
1554
ENDCHAR
STARTCHAR uni23D7
ENCODING 9175
SWIDTH 1070 0
DWIDTH 9 0
BBX 8 3 0 1
BITMAP
0001
0001
5556
ENDCHAR
STARTCHAR uni23D8
ENCODING 9176
SWIDTH 1071 0
DWIDTH 9 0
BBX 8 3 0 1
BITMAP
4001
4001
5556
ENDCHAR
STARTCHAR uni23D9
ENCODING 9177
SWIDTH 1071 0
DWIDTH 9 0
BBX 8 3 0 1
BITMAP
4041
4041
5596
ENDCHAR
STARTCHAR uni23DA
ENCODING 9178
SWIDTH 880 0
DWIDTH 7 0
BBX 7 5 0 0
BITMAP
0100
0100
5654
1550
1550
ENDCHAR
STARTCHAR uni23DB
ENCODING 9179
SWIDTH 1211 0
DWIDTH 10 0
BBX 9 4 0 0
BITMAP
055500
695640
140100
055500
ENDCHAR
STARTCHAR uni23DC
ENCODING 9180
SWIDTH 632 0
DWIDTH 5 0
BBX 5 2 0 5
BITMAP
2A00
4040
ENDCHAR
STARTCHAR uni23DD
ENCODING 9181
SWIDTH 632 0
DWIDTH 5 0
BBX 5 2 0 -3
BITMAP
4040
2A00
ENDCHAR
STARTCHAR uni23DE
ENCODING 9182
SWIDTH 630 0
DWIDTH 5 0
BBX 5 1 0 5
BITMAP
6640
ENDCHAR
STARTCHAR uni23DF
ENCODING 9183
SWIDTH 630 0
DWIDTH 5 0
BBX 5 2 0 -2
BITMAP
4040
6640
ENDCHAR
STARTCHAR uni23E0
ENCODING 9184
SWIDTH 630 0
DWIDTH 5 0
BBX 5 2 0 4
BITMAP
6A40
4040
ENDCHAR
STARTCHAR uni23E1
ENCODING 9185
SWIDTH 630 0
DWIDTH 5 0
BBX 5 2 0 -2
BITMAP
4040
6A40
ENDCHAR
STARTCHAR uni23E2
ENCODING 9186
SWIDTH 1171 0
DWIDTH 9 0
BBX 9 5 0 -1
BITMAP
2AA400
100400
500200
400140
6AAA80
ENDCHAR
STARTCHAR uni23E3
ENCODING 9187
SWIDTH 932 0
DWIDTH 7 0
BBX 7 8 0 -2
BITMAP
0100
0990
6558
5418
5418
6558
0990
0100
ENDCHAR
STARTCHAR uni23E4
ENCODING 9188
SWIDTH 1120 0
DWIDTH 9 0
BBX 9 1 0 2
BITMAP
6AAA40
ENDCHAR
STARTCHAR uni23E5
ENCODING 9189
SWIDTH 1042 0
DWIDTH 8 0
BBX 8 5 0 0
BITMAP
06AA
0805
2008
2014
6AA0
ENDCHAR
STARTCHAR uni23E6
ENCODING 9190
SWIDTH 948 0
DWIDTH 8 0
BBX 7 3 0 0
BITMAP
1800
6AA8
0064
ENDCHAR
STARTCHAR uni23E7
ENCODING 9191
SWIDTH 817 0
DWIDTH 7 0
BBX 5 5 1 0
BITMAP
5000
1440
1D00
1400
1100
ENDCHAR
STARTCHAR uni23E8
ENCODING 9192
SWIDTH 725 0
DWIDTH 6 0
BBX 6 4 0 -2
BITMAP
6140
2510
2510
2140
ENDCHAR
STARTCHAR uni23E9
ENCODING 9193
SWIDTH 796 0
DWIDTH 6 0
BBX 6 4 0 1
BITMAP
4100
76D0
7EE0
6280
ENDCHAR
STARTCHAR uni23EA
ENCODING 9194
SWIDTH 796 0
DWIDTH 6 0
BBX 6 4 0 1
BITMAP
0410
2CA0
BEE0
1860
ENDCHAR
STARTCHAR uni23EB
ENCODING 9195
SWIDTH 614 0
DWIDTH 5 0
BBX 4 6 0 0
BITMAP
04
1D
7F
04
1D
7F
ENDCHAR
STARTCHAR uni23EC
ENCODING 9196
SWIDTH 614 0
DWIDTH 5 0
BBX 4 6 0 0
BITMAP
7F
2D
08
7F
1D
04
ENDCHAR
STARTCHAR uni23ED
ENCODING 9197
SWIDTH 1003 0
DWIDTH 8 0
BBX 8 4 0 1
BITMAP
5149
7AE9
7AE9
5149
ENDCHAR
STARTCHAR uni23EE
ENCODING 9198
SWIDTH 1003 0
DWIDTH 8 0
BBX 8 4 0 1
BITMAP
6145
6BAD
6BAD
6145
ENDCHAR
STARTCHAR uni23EF
ENCODING 9199
SWIDTH 871 0
DWIDTH 7 0
BBX 7 4 0 1
BITMAP
52A4
7AA4
7AA4
52A4
ENDCHAR
STARTCHAR uni23F0
ENCODING 9200
SWIDTH 722 0
DWIDTH 6 0
BBX 6 6 0 0
BITMAP
1540
5490
0440
4440
5040
2580
ENDCHAR
ENDFONT
